FrauncesItalic.ufo
<glyph name="asterisk" format="2">
  <advance width="1012"/>
  <unicode hex="002A"/>
  <outline>
    <contour>
      <point x="808.0" y="1032.0" type="line"/>
      <point x="850.0" y="1186.0"/>
      <point x="936.0" y="1228.0"/>
      <point x="966.0" y="1340.0" type="curve" smooth="yes"/>
      <point x="986.0" y="1418.0"/>
      <point x="944.0" y="1454.0"/>
      <point x="892.0" y="1454.0" type="curve" smooth="yes"/>
      <point x="846.0" y="1454.0"/>
      <point x="792.0" y="1418.0"/>
      <point x="772.0" y="1348.0" type="curve" smooth="yes"/>
      <point x="740.0" y="1236.0"/>
      <point x="804.0" y="1192.0"/>
      <point x="760.0" y="1032.0" type="curve"/>
    </contour>
    <contour>
      <point x="796.0" y="1056.0" type="line"/>
      <point x="664.0" y="1104.0"/>
      <point x="668.0" y="1188.0"/>
      <point x="572.0" y="1222.0" type="curve" smooth="yes"/>
      <point x="504.0" y="1246.0"/>
      <point x="444.0" y="1208.0"/>
      <point x="414.0" y="1158.0" type="curve" smooth="yes"/>
      <point x="388.0" y="1114.0"/>
      <point x="394.0" y="1062.0"/>
      <point x="454.0" y="1038.0" type="curve" smooth="yes"/>
      <point x="550.0" y="1002.0"/>
      <point x="632.0" y="1060.0"/>
      <point x="772.0" y="1012.0" type="curve"/>
    </contour>
    <contour>
      <point x="764.0" y="1048.0" type="line"/>
      <point x="642.0" y="922.0"/>
      <point x="560.0" y="932.0"/>
      <point x="470.0" y="842.0" type="curve" smooth="yes"/>
      <point x="406.0" y="778.0"/>
      <point x="412.0" y="718.0"/>
      <point x="446.0" y="688.0" type="curve" smooth="yes"/>
      <point x="476.0" y="662.0"/>
      <point x="534.0" y="664.0"/>
      <point x="590.0" y="720.0" type="curve" smooth="yes"/>
      <point x="684.0" y="810.0"/>
      <point x="668.0" y="890.0"/>
      <point x="798.0" y="1020.0" type="curve"/>
    </contour>
    <contour>
      <point x="756.0" y="1016.0" type="line"/>
      <point x="816.0" y="892.0"/>
      <point x="758.0" y="814.0"/>
      <point x="800.0" y="724.0" type="curve" smooth="yes"/>
      <point x="828.0" y="660.0"/>
      <point x="894.0" y="662.0"/>
      <point x="944.0" y="692.0" type="curve" smooth="yes"/>
      <point x="986.0" y="720.0"/>
      <point x="1016.0" y="774.0"/>
      <point x="992.0" y="832.0" type="curve" smooth="yes"/>
      <point x="954.0" y="924.0"/>
      <point x="864.0" y="916.0"/>
      <point x="804.0" y="1044.0" type="curve"/>
    </contour>
    <contour>
      <point x="784.0" y="1008.0" type="line"/>
      <point x="942.0" y="1054.0"/>
      <point x="992.0" y="998.0"/>
      <point x="1106.0" y="1032.0" type="curve" smooth="yes"/>
      <point x="1186.0" y="1056.0"/>
      <point x="1222.0" y="1116.0"/>
      <point x="1218.0" y="1166.0" type="curve" smooth="yes"/>
      <point x="1216.0" y="1210.0"/>
      <point x="1176.0" y="1240.0"/>
      <point x="1102.0" y="1220.0" type="curve" smooth="yes"/>
      <point x="988.0" y="1188.0"/>
      <point x="948.0" y="1102.0"/>
      <point x="782.0" y="1052.0" type="curve"/>
    </contour>
  </outline>
</glyph>
<glyph name="comma" format="2">
  <advance width="594"/>
  <unicode hex="002C"/>
  <outline>
    <contour>
      <point x="338.0" y="-24.0" type="curve" smooth="yes"/>
      <point x="362.0" y="-32.0"/>
      <point x="374.0" y="-44.0"/>
      <point x="374.0" y="-76.0" type="curve" smooth="yes"/>
      <point x="374.0" y="-150.0"/>
      <point x="304.0" y="-248.0"/>
      <point x="188.0" y="-312.0" type="curve" smooth="yes"/>
      <point x="158.0" y="-330.0"/>
      <point x="140.0" y="-346.0"/>
      <point x="140.0" y="-364.0" type="curve" smooth="yes"/>
      <point x="140.0" y="-384.0"/>
      <point x="156.0" y="-398.0"/>
      <point x="174.0" y="-398.0" type="curve" smooth="yes"/>
      <point x="190.0" y="-398.0"/>
      <point x="202.0" y="-394.0"/>
      <point x="224.0" y="-384.0" type="curve" smooth="yes"/>
      <point x="358.0" y="-322.0"/>
      <point x="498.0" y="-150.0"/>
      <point x="498.0" y="120.0" type="curve" smooth="yes"/>
      <point x="498.0" y="230.0"/>
      <point x="446.0" y="272.0"/>
      <point x="392.0" y="272.0" type="curve" smooth="yes"/>
      <point x="308.0" y="272.0"/>
      <point x="242.0" y="196.0"/>
      <point x="242.0" y="110.0" type="curve" smooth="yes"/>
      <point x="242.0" y="44.0"/>
      <point x="270.0" y="4.0"/>
    </contour>
  </outline>
</glyph>
<glyph name="zero" format="2">
  <advance width="1180"/>
  <unicode hex="0030"/>
  <outline>
    <contour>
      <point x="954.0" y="1300.0" type="curve" smooth="yes"/>
      <point x="658.0" y="1300.0"/>
      <point x="402.0" y="1050.0"/>
      <point x="296.0" y="654.0" type="curve" smooth="yes"/>
      <point x="178.0" y="214.0"/>
      <point x="288.0" y="-30.0"/>
      <point x="598.0" y="-30.0" type="curve" smooth="yes"/>
      <point x="886.0" y="-30.0"/>
      <point x="1162.0" y="208.0"/>
      <point x="1282.0" y="654.0" type="curve" smooth="yes"/>
      <point x="1390.0" y="1056.0"/>
      <point x="1254.0" y="1300.0"/>
    </contour>
    <contour>
      <point x="1100.0" y="1198.0"/>
      <point x="1160.0" y="1004.0"/>
      <point x="1046.0" y="572.0" type="curve" smooth="yes"/>
      <point x="948.0" y="206.0"/>
      <point x="802.0" y="72.0"/>
      <point x="656.0" y="72.0" type="curve" smooth="yes"/>
      <point x="456.0" y="72.0"/>
      <point x="400.0" y="262.0"/>
      <point x="524.0" y="722.0" type="curve" smooth="yes"/>
      <point x="606.0" y="1028.0"/>
      <point x="738.0" y="1198.0"/>
      <point x="904.0" y="1198.0" type="curve" smooth="yes"/>
    </contour>
  </outline>
</glyph>
<glyph name="one" format="2">
  <advance width="442"/>
  <unicode hex="0031"/>
  <outline>
    <contour>
      <point x="232" y="552" type="line" smooth="yes"/>
      <point x="213" y="552"/>
      <point x="207" y="562"/>
      <point x="210" y="576" type="curve" smooth="yes"/>
      <point x="214" y="590"/>
      <point x="229" y="601"/>
      <point x="249" y="601" type="curve" smooth="yes"/>
      <point x="292" y="601" type="line" smooth="yes"/>
      <point x="329" y="601"/>
      <point x="357" y="606"/>
      <point x="389" y="631" type="curve" smooth="yes"/>
      <point x="404" y="644"/>
      <point x="416" y="650"/>
      <point x="432" y="650" type="curve" smooth="yes"/>
      <point x="449" y="650"/>
      <point x="457" y="641"/>
      <point x="451" y="618" type="curve" smooth="yes"/>
      <point x="313" y="103" type="line" smooth="yes"/>
      <point x="305" y="75"/>
      <point x="320" y="54"/>
      <point x="348" y="52" type="curve" smooth="yes"/>
      <point x="406" y="48" type="line" smooth="yes"/>
      <point x="423" y="47"/>
      <point x="432" y="39"/>
      <point x="429" y="26" type="curve" smooth="yes"/>
      <point x="424" y="8"/>
      <point x="412" y="0"/>
      <point x="393" y="0" type="curve" smooth="yes"/>
      <point x="70" y="0" type="line" smooth="yes"/>
      <point x="51" y="0"/>
      <point x="42" y="8"/>
      <point x="47" y="26" type="curve" smooth="yes"/>
      <point x="51" y="41"/>
      <point x="64" y="50"/>
      <point x="85" y="51" type="curve" smooth="yes"/>
      <point x="142" y="55" type="line" smooth="yes"/>
      <point x="174" y="57"/>
      <point x="206" y="74"/>
      <point x="214" y="103" type="curve" smooth="yes"/>
      <point x="319" y="495" type="line" smooth="yes"/>
      <point x="329" y="535"/>
      <point x="314" y="552"/>
      <point x="281" y="552" type="curve" smooth="yes"/>
    </contour>
  </outline>
</glyph>
<glyph name="colon" format="2">
  <advance width="544"/>
  <unicode hex="003A"/>
  <outline>
    <contour>
      <point x="274.0" y="-30.0" type="curve" smooth="yes"/>
      <point x="358.0" y="-30.0"/>
      <point x="464.0" y="104.35714285714286"/>
      <point x="464.0" y="234.0" type="curve" smooth="yes"/>
      <point x="464.0" y="282.0"/>
      <point x="428.0" y="316.0"/>
      <point x="384.0" y="316.0" type="curve" smooth="yes"/>
      <point x="294.0" y="316.0"/>
      <point x="192.0" y="174.3783783783784"/>
      <point x="192.0" y="54.0" type="curve" smooth="yes"/>
      <point x="192.0" y="6.0"/>
      <point x="228.0" y="-30.0"/>
    </contour>
    <contour>
      <point x="400.0" y="546.0" type="curve" smooth="yes"/>
      <point x="484.0" y="546.0"/>
      <point x="590.0" y="680.3571428571429"/>
      <point x="590.0" y="810.0" type="curve" smooth="yes"/>
      <point x="590.0" y="858.0"/>
      <point x="554.0" y="892.0"/>
      <point x="510.0" y="892.0" type="curve" smooth="yes"/>
      <point x="420.0" y="892.0"/>
      <point x="318.0" y="750.3783783783783"/>
      <point x="318.0" y="630.0" type="curve" smooth="yes"/>
      <point x="318.0" y="582.0"/>
      <point x="354.0" y="546.0"/>
    </contour>
  </outline>
</glyph>
<glyph name="F" format="2">
  <advance width="1080"/>
  <unicode hex="0046"/>
  <outline>
    <contour>
      <point x="426.0" y="1358.0" type="curve" smooth="yes"/>
      <point x="418.0" y="1330.0"/>
      <point x="440.0" y="1318.0"/>
      <point x="476.0" y="1310.0" type="curve" smooth="yes"/>
      <point x="534.0" y="1298.0" type="line" smooth="yes"/>
      <point x="560.0" y="1292.0"/>
      <point x="570.0" y="1264.0"/>
      <point x="562.0" y="1226.0" type="curve"/>
      <point x="496.0" y="874.0"/>
      <point x="400.0" y="532.0"/>
      <point x="292.0" y="208.0" type="curve"/>
      <point x="276.0" y="148.0"/>
      <point x="250.0" y="116.0"/>
      <point x="200.0" y="104.0" type="curve" smooth="yes"/>
      <point x="158.0" y="94.0" type="line" smooth="yes"/>
      <point x="110.0" y="80.0"/>
      <point x="86.0" y="70.0"/>
      <point x="80.0" y="42.0" type="curve" smooth="yes"/>
      <point x="72.0" y="14.0"/>
      <point x="92.0" y="0.0"/>
      <point x="130.0" y="0.0" type="curve" smooth="yes"/>
      <point x="600.0" y="0.0" type="line" smooth="yes"/>
      <point x="662.0" y="0.0"/>
      <point x="678.0" y="20.0"/>
      <point x="678.0" y="46.0" type="curve" smooth="yes"/>
      <point x="678.0" y="72.0"/>
      <point x="658.0" y="82.0"/>
      <point x="592.0" y="98.0" type="curve" smooth="yes"/>
      <point x="550.0" y="108.0"/>
      <point x="504.0" y="140.0"/>
      <point x="524.0" y="220.0" type="curve"/>
      <point x="584.0" y="528.0"/>
      <point x="678.0" y="892.0"/>
      <point x="810.0" y="1308.0" type="curve"/>
      <point x="1024.0" y="1308.0" type="line" smooth="yes"/>
      <point x="1108.0" y="1308.0"/>
      <point x="1170.0" y="1272.0"/>
      <point x="1206.0" y="1204.0" type="curve" smooth="yes"/>
      <point x="1242.0" y="1136.0" type="line" smooth="yes"/>
      <point x="1262.0" y="1096.0"/>
      <point x="1276.0" y="1082.0"/>
      <point x="1306.0" y="1082.0" type="curve" smooth="yes"/>
      <point x="1328.0" y="1082.0"/>
      <point x="1352.0" y="1104.0"/>
      <point x="1352.0" y="1146.0" type="curve" smooth="yes"/>
      <point x="1348.0" y="1404.0" type="line" smooth="yes"/>
      <point x="1348.0" y="1440.0"/>
      <point x="1342.0" y="1454.0"/>
      <point x="1310.0" y="1454.0" type="curve" smooth="yes"/>
      <point x="1290.0" y="1454.0"/>
      <point x="1270.0" y="1444.0"/>
      <point x="1248.0" y="1426.0" type="curve" smooth="yes"/>
      <point x="1230.0" y="1410.0"/>
      <point x="1202.0" y="1400.0"/>
      <point x="1182.0" y="1400.0" type="curve" smooth="yes"/>
      <point x="498.0" y="1400.0" type="line" smooth="yes"/>
      <point x="458.0" y="1400.0"/>
      <point x="434.0" y="1386.0"/>
    </contour>
    <contour>
      <point x="604.0" y="696.0" type="line"/>
      <point x="568.0" y="612.0" type="line"/>
      <point x="902.0" y="612.0" type="line" smooth="yes"/>
      <point x="972.1694915254237" y="612.0"/>
      <point x="1018.4506837746969" y="589.0166899461159"/>
      <point x="1040.0" y="542.0" type="curve" smooth="yes"/>
      <point x="1059.3679958842943" y="498.9600091460127"/>
      <point x="1074.2857142857142" y="486.0"/>
      <point x="1100.0" y="486.0" type="curve" smooth="yes"/>
      <point x="1122.0" y="486.0"/>
      <point x="1144.0" y="504.0"/>
      <point x="1138.0" y="540.0" type="curve" smooth="yes"/>
      <point x="1090.0" y="790.0" type="line" smooth="yes"/>
      <point x="1084.0" y="816.0"/>
      <point x="1076.0" y="838.0"/>
      <point x="1054.0" y="838.0" type="curve" smooth="yes"/>
      <point x="1032.0" y="838.0"/>
      <point x="1016.0" y="816.0"/>
      <point x="994.0" y="780.0" type="curve" smooth="yes"/>
      <point x="958.0" y="716.0"/>
      <point x="902.0" y="696.0"/>
      <point x="844.0" y="696.0" type="curve" smooth="yes"/>
    </contour>
  </outline>
</glyph>
<glyph name="J" format="2">
  <advance width="674"/>
  <unicode hex="004A"/>
  <outline>
    <contour>
      <point x="780.0" y="1214.0" type="curve" smooth="yes"/>
      <point x="798.0" y="1268.0"/>
      <point x="822.0" y="1294.0"/>
      <point x="868.0" y="1304.0" type="curve" smooth="yes"/>
      <point x="922.0" y="1316.0" type="line" smooth="yes"/>
      <point x="958.0" y="1324.0"/>
      <point x="982.0" y="1334.0"/>
      <point x="990.0" y="1362.0" type="curve" smooth="yes"/>
      <point x="996.0" y="1388.0"/>
      <point x="978.0" y="1400.0"/>
      <point x="936.0" y="1400.0" type="curve" smooth="yes"/>
      <point x="506.0" y="1400.0" type="line" smooth="yes"/>
      <point x="462.0" y="1400.0"/>
      <point x="442.0" y="1388.0"/>
      <point x="436.0" y="1362.0" type="curve" smooth="yes"/>
      <point x="428.0" y="1334.0"/>
      <point x="446.0" y="1322.0"/>
      <point x="480.0" y="1316.0" type="curve" smooth="yes"/>
      <point x="526.0" y="1304.0" type="line" smooth="yes"/>
      <point x="564.0" y="1294.0"/>
      <point x="576.0" y="1268.0"/>
      <point x="566.0" y="1214.0" type="curve" smooth="yes"/>
      <point x="508.0" y="898.0"/>
      <point x="388.0" y="446.0"/>
      <point x="308.0" y="148.0" type="curve" smooth="yes"/>
      <point x="276.0" y="28.0"/>
      <point x="318.0" y="-32.0"/>
      <point x="318.0" y="-82.0" type="curve" smooth="yes"/>
      <point x="318.0" y="-140.0"/>
      <point x="288.0" y="-168.0"/>
      <point x="248.0" y="-168.0" type="curve" smooth="yes"/>
      <point x="198.0" y="-168.0"/>
      <point x="154.0" y="-90.0"/>
      <point x="98.0" y="-90.0" type="curve" smooth="yes"/>
      <point x="10.0" y="-90.0"/>
      <point x="-38.0" y="-146.0"/>
      <point x="-38.0" y="-214.0" type="curve" smooth="yes"/>
      <point x="-38.0" y="-282.0"/>
      <point x="16.0" y="-342.0"/>
      <point x="112.0" y="-342.0" type="curve" smooth="yes"/>
      <point x="278.0" y="-342.0"/>
      <point x="436.0" y="-144.0"/>
      <point x="478.0" y="78.0" type="curve" smooth="yes"/>
      <point x="522.0" y="314.0"/>
      <point x="670.0" y="874.0"/>
    </contour>
  </outline>
</glyph>
<glyph name="M" format="2">
  <advance width="1700"/>
  <unicode hex="004D"/>
  <outline>
    <contour>
      <point x="1002.0" y="378.0" type="line"/>
      <point x="934.0" y="686.0"/>
      <point x="878.0" y="1002.0"/>
      <point x="828.0" y="1334.0" type="curve" smooth="yes"/>
      <point x="822.0" y="1380.0"/>
      <point x="798.0" y="1400.0"/>
      <point x="756.0" y="1400.0" type="curve" smooth="yes"/>
      <point x="538.0" y="1400.0" type="line" smooth="yes"/>
      <point x="500.0" y="1400.0"/>
      <point x="474.0" y="1388.0"/>
      <point x="468.0" y="1362.0" type="curve" smooth="yes"/>
      <point x="462.0" y="1338.0"/>
      <point x="474.0" y="1314.0"/>
      <point x="508.0" y="1304.0" type="curve" smooth="yes"/>
      <point x="556.0" y="1290.0" type="line" smooth="yes"/>
      <point x="590.0" y="1280.0"/>
      <point x="610.0" y="1254.0"/>
      <point x="598.0" y="1216.0" type="curve" smooth="yes"/>
      <point x="276.0" y="230.0" type="line" smooth="yes"/>
      <point x="256.0" y="174.0"/>
      <point x="220.0" y="146.0"/>
      <point x="168.0" y="124.0" type="curve" smooth="yes"/>
      <point x="130.0" y="108.0" type="line" smooth="yes"/>
      <point x="76.0" y="88.0"/>
      <point x="52.0" y="70.0"/>
      <point x="46.0" y="42.0" type="curve" smooth="yes"/>
      <point x="36.0" y="10.0"/>
      <point x="60.0" y="0.0"/>
      <point x="96.0" y="0.0" type="curve" smooth="yes"/>
      <point x="448.0" y="0.0" type="line" smooth="yes"/>
      <point x="490.0" y="0.0"/>
      <point x="522.0" y="16.0"/>
      <point x="530.0" y="44.0" type="curve" smooth="yes"/>
      <point x="538.0" y="76.0"/>
      <point x="528.0" y="90.0"/>
      <point x="498.0" y="100.0" type="curve" smooth="yes"/>
      <point x="432.0" y="128.0" type="line" smooth="yes"/>
      <point x="386.0" y="148.0"/>
      <point x="370.0" y="182.0"/>
      <point x="386.0" y="226.0" type="curve" smooth="yes"/>
      <point x="700.0" y="1184.0" type="line"/>
      <point x="646.0" y="1170.0" type="line"/>
      <point x="722.0" y="852.0"/>
      <point x="778.0" y="530.0"/>
      <point x="824.0" y="204.0" type="curve" smooth="yes"/>
      <point x="830.0" y="166.0"/>
      <point x="846.0" y="144.0"/>
      <point x="870.0" y="144.0" type="curve" smooth="yes"/>
      <point x="908.0" y="144.0"/>
      <point x="940.0" y="174.0"/>
      <point x="996.0" y="264.0" type="curve" smooth="yes"/>
      <point x="1598.0" y="1214.0" type="line"/>
      <point x="1538.0" y="1214.0" type="line"/>
      <point x="1486.0" y="848.0"/>
      <point x="1426.0" y="502.0"/>
      <point x="1358.0" y="184.0" type="curve" smooth="yes"/>
      <point x="1348.0" y="132.0"/>
      <point x="1318.0" y="104.0"/>
      <point x="1280.0" y="96.0" type="curve" smooth="yes"/>
      <point x="1228.0" y="84.0" type="line" smooth="yes"/>
      <point x="1190.0" y="76.0"/>
      <point x="1168.0" y="66.0"/>
      <point x="1160.0" y="38.0" type="curve" smooth="yes"/>
      <point x="1154.0" y="12.0"/>
      <point x="1168.0" y="0.0"/>
      <point x="1212.0" y="0.0" type="curve" smooth="yes"/>
      <point x="1618.0" y="0.0" type="line" smooth="yes"/>
      <point x="1662.0" y="0.0"/>
      <point x="1684.0" y="12.0"/>
      <point x="1690.0" y="38.0" type="curve" smooth="yes"/>
      <point x="1698.0" y="66.0"/>
      <point x="1676.0" y="72.0"/>
      <point x="1646.0" y="84.0" type="curve" smooth="yes"/>
      <point x="1616.0" y="96.0" type="line" smooth="yes"/>
      <point x="1574.0" y="112.0"/>
      <point x="1560.0" y="132.0"/>
      <point x="1568.0" y="184.0" type="curve" smooth="yes"/>
      <point x="1614.0" y="518.0"/>
      <point x="1672.0" y="864.0"/>
      <point x="1746.0" y="1214.0" type="curve" smooth="yes"/>
      <point x="1756.0" y="1266.0"/>
      <point x="1786.0" y="1296.0"/>
      <point x="1824.0" y="1304.0" type="curve" smooth="yes"/>
      <point x="1882.0" y="1316.0" type="line" smooth="yes"/>
      <point x="1920.0" y="1324.0"/>
      <point x="1942.0" y="1334.0"/>
      <point x="1950.0" y="1362.0" type="curve" smooth="yes"/>
      <point x="1956.0" y="1388.0"/>
      <point x="1940.0" y="1400.0"/>
      <point x="1896.0" y="1400.0" type="curve" smooth="yes"/>
      <point x="1896.0" y="1400.0"/>
      <point x="1698.0" y="1400.0"/>
      <point x="1664.0" y="1400.0" type="curve" smooth="yes"/>
      <point x="1618.0" y="1400.0"/>
      <point x="1580.0" y="1372.0"/>
      <point x="1552.0" y="1328.0" type="curve" smooth="yes"/>
      <point x="950.0" y="350.0" type="line"/>
    </contour>
  </outline>
</glyph>
<glyph name="Q" format="2">
  <advance width="1506"/>
  <unicode hex="0051"/>
  <outline>
    <contour>
      <point x="786.0" y="154.0" type="curve" smooth="yes"/>
      <point x="786.0" y="-88.0"/>
      <point x="938.0" y="-300.0"/>
      <point x="1118.0" y="-300.0" type="curve" smooth="yes"/>
      <point x="1182.0" y="-300.0"/>
      <point x="1234.0" y="-266.0"/>
      <point x="1276.0" y="-194.0" type="curve" smooth="yes"/>
      <point x="1302.0" y="-148.0"/>
      <point x="1310.0" y="-128.0"/>
      <point x="1310.0" y="-108.0" type="curve" smooth="yes"/>
      <point x="1310.0" y="-92.0"/>
      <point x="1300.0" y="-78.0"/>
      <point x="1278.0" y="-78.0" type="curve" smooth="yes"/>
      <point x="1244.0" y="-78.0"/>
      <point x="1212.0" y="-108.0"/>
      <point x="1162.0" y="-108.0" type="curve" smooth="yes"/>
      <point x="1004.0" y="-108.0"/>
      <point x="886.0" y="60.0"/>
      <point x="886.0" y="248.0" type="curve" smooth="yes"/>
      <point x="886.0" y="306.0"/>
      <point x="894.0" y="344.0"/>
      <point x="894.0" y="370.0" type="curve" smooth="yes"/>
      <point x="894.0" y="392.0"/>
      <point x="886.0" y="410.0"/>
      <point x="864.0" y="410.0" type="curve" smooth="yes"/>
      <point x="822.0" y="410.0"/>
      <point x="786.0" y="322.0"/>
    </contour>
    <contour>
      <point x="1122.0" y="1428.0" type="curve" smooth="yes"/>
      <point x="720.0" y="1428.0"/>
      <point x="406.0" y="1146.0"/>
      <point x="294.0" y="724.0" type="curve" smooth="yes"/>
      <point x="176.0" y="280.0"/>
      <point x="414.0" y="-30.0"/>
      <point x="718.0" y="-30.0" type="curve" smooth="yes"/>
      <point x="1094.0" y="-30.0"/>
      <point x="1450.0" y="216.0"/>
      <point x="1566.0" y="706.0" type="curve" smooth="yes"/>
      <point x="1662.0" y="1114.0"/>
      <point x="1442.0" y="1428.0"/>
    </contour>
    <contour>
      <point x="1200.0" y="250.0"/>
      <point x="978.0" y="76.0"/>
      <point x="768.0" y="76.0" type="curve" smooth="yes"/>
      <point x="562.0" y="76.0"/>
      <point x="426.0" y="284.0"/>
      <point x="526.0" y="718.0" type="curve" smooth="yes"/>
      <point x="612.0" y="1090.0"/>
      <point x="840.0" y="1334.0"/>
      <point x="1076.0" y="1334.0" type="curve" smooth="yes"/>
      <point x="1286.0" y="1334.0"/>
      <point x="1444.0" y="1098.0"/>
      <point x="1330.0" y="700.0" type="curve" smooth="yes"/>
    </contour>
  </outline>
</glyph>
<glyph name="V" format="2">
  <advance width="599"/>
  <unicode hex="0056"/>
  <outline>
    <contour>
      <point x="564" y="674" type="curve" smooth="yes"/>
      <point x="564" y="663"/>
      <point x="572" y="654"/>
      <point x="584" y="647" type="curve" smooth="yes"/>
      <point x="613" y="630" type="line" smooth="yes"/>
      <point x="624" y="623"/>
      <point x="629" y="615"/>
      <point x="629" y="604" type="curve" smooth="yes"/>
      <point x="629" y="594"/>
      <point x="624" y="579"/>
      <point x="615" y="564" type="curve" smooth="yes"/>
      <point x="302" y="61" type="line"/>
      <point x="341" y="79" type="line"/>
      <point x="337" y="250"/>
      <point x="344" y="481"/>
      <point x="344" y="587" type="curve" smooth="yes"/>
      <point x="344" y="620"/>
      <point x="361" y="641"/>
      <point x="387" y="646" type="curve" smooth="yes"/>
      <point x="412" y="651" type="line" smooth="yes"/>
      <point x="428" y="654"/>
      <point x="442" y="662"/>
      <point x="442" y="678" type="curve" smooth="yes"/>
      <point x="442" y="692"/>
      <point x="432" y="700"/>
      <point x="420" y="700" type="curve" smooth="yes"/>
      <point x="226" y="700" type="line" smooth="yes"/>
      <point x="211" y="700"/>
      <point x="198" y="689"/>
      <point x="198" y="675" type="curve" smooth="yes"/>
      <point x="198" y="665"/>
      <point x="203" y="660"/>
      <point x="216" y="651" type="curve" smooth="yes"/>
      <point x="225" y="645"/>
      <point x="242" y="627"/>
      <point x="244" y="590" type="curve" smooth="yes"/>
      <point x="253" y="428"/>
      <point x="254" y="168"/>
      <point x="246" y="103" type="curve" smooth="yes"/>
      <point x="244" y="87"/>
      <point x="245" y="78"/>
      <point x="240" y="59" type="curve" smooth="yes"/>
      <point x="234" y="38" type="line" smooth="yes"/>
      <point x="228" y="16"/>
      <point x="238" y="0"/>
      <point x="257" y="0" type="curve" smooth="yes"/>
      <point x="309" y="0" type="line" smooth="yes"/>
      <point x="330" y="0"/>
      <point x="348" y="14"/>
      <point x="354" y="36" type="curve" smooth="yes"/>
      <point x="359" y="56" type="line" smooth="yes"/>
      <point x="364" y="78"/>
      <point x="372" y="96"/>
      <point x="383" y="113" type="curve" smooth="yes"/>
      <point x="672" y="566" type="line" smooth="yes"/>
      <point x="701" y="611"/>
      <point x="720" y="627"/>
      <point x="753" y="639" type="curve" smooth="yes"/>
      <point x="785" y="650"/>
      <point x="796" y="660"/>
      <point x="796" y="677" type="curve" smooth="yes"/>
      <point x="796" y="693"/>
      <point x="786" y="700"/>
      <point x="763" y="700" type="curve" smooth="yes"/>
      <point x="599" y="700" type="line" smooth="yes"/>
      <point x="580" y="700"/>
      <point x="564" y="689"/>
    </contour>
  </outline>
</glyph>
<glyph name="bracketleft" format="2">
  <advance width="348"/>
  <unicode hex="005B"/>
  <outline>
    <contour>
      <point x="381" y="685" type="line" smooth="yes"/>
      <point x="386" y="704"/>
      <point x="405" y="719"/>
      <point x="423" y="719" type="curve" smooth="yes"/>
      <point x="503" y="719" type="line" smooth="yes"/>
      <point x="520" y="719"/>
      <point x="527" y="724"/>
      <point x="530" y="736" type="curve" smooth="yes"/>
      <point x="533" y="746"/>
      <point x="530" y="756"/>
      <point x="515" y="756" type="curve" smooth="yes"/>
      <point x="363" y="756" type="line" smooth="yes"/>
      <point x="340" y="756"/>
      <point x="317" y="734"/>
      <point x="309" y="707" type="curve" smooth="yes"/>
      <point x="86" y="-128" type="line" smooth="yes"/>
      <point x="78" y="-155"/>
      <point x="90" y="-177"/>
      <point x="113" y="-177" type="curve" smooth="yes"/>
      <point x="265" y="-177" type="line" smooth="yes"/>
      <point x="280" y="-177"/>
      <point x="288" y="-167"/>
      <point x="291" y="-157" type="curve" smooth="yes"/>
      <point x="294" y="-145"/>
      <point x="289" y="-140"/>
      <point x="272" y="-140" type="curve" smooth="yes"/>
      <point x="192" y="-140" type="line" smooth="yes"/>
      <point x="174" y="-140"/>
      <point x="164" y="-125"/>
      <point x="169" y="-106" type="curve" smooth="yes"/>
    </contour>
  </outline>
</glyph>
<glyph name="backslash" format="2">
  <advance width="840"/>
  <unicode hex="005C"/>
  <outline>
    <contour>
      <point x="480.0" y="1404.0" type="curve" smooth="yes"/>
      <point x="476.0" y="1428.0"/>
      <point x="476.0" y="1448.0"/>
      <point x="480.0" y="1464.0" type="curve" smooth="yes"/>
      <point x="492.0" y="1506.0"/>
      <point x="530.0" y="1534.0"/>
      <point x="566.0" y="1534.0" type="curve" smooth="yes"/>
      <point x="606.0" y="1534.0"/>
      <point x="622.0" y="1500.0"/>
      <point x="620.0" y="1464.0" type="curve" smooth="yes"/>
      <point x="614.0" y="1240.0"/>
      <point x="632.0" y="808.0"/>
      <point x="640.0" y="686.0" type="curve" smooth="yes"/>
      <point x="646.0" y="572.0"/>
      <point x="688.0" y="132.0"/>
      <point x="716.0" y="-76.0" type="curve" smooth="yes"/>
      <point x="722.0" y="-112.0"/>
      <point x="718.0" y="-134.0"/>
      <point x="712.0" y="-154.0" type="curve" smooth="yes"/>
      <point x="706.0" y="-182.0"/>
      <point x="672.0" y="-212.0"/>
      <point x="638.0" y="-212.0" type="curve" smooth="yes"/>
      <point x="598.0" y="-212.0"/>
      <point x="568.0" y="-186.0"/>
      <point x="568.0" y="-124.0" type="curve" smooth="yes"/>
      <point x="578.0" y="90.0"/>
      <point x="570.0" y="498.0"/>
      <point x="556.0" y="658.0" type="curve" smooth="yes"/>
      <point x="550.0" y="804.0"/>
      <point x="516.0" y="1206.0"/>
    </contour>
  </outline>
</glyph>
<glyph name="bracketright" format="2">
  <advance width="696"/>
  <unicode hex="005D"/>
  <outline>
    <contour>
      <point x="212.0" y="-210.0" type="line" smooth="yes"/>
      <point x="202.0" y="-248.0"/>
      <point x="164.0" y="-278.0"/>
      <point x="128.0" y="-278.0" type="curve" smooth="yes"/>
      <point x="-32.0" y="-278.0" type="line" smooth="yes"/>
      <point x="-66.0" y="-278.0"/>
      <point x="-80.0" y="-288.0"/>
      <point x="-86.0" y="-312.0" type="curve" smooth="yes"/>
      <point x="-92.0" y="-332.0"/>
      <point x="-86.0" y="-352.0"/>
      <point x="-56.0" y="-352.0" type="curve" smooth="yes"/>
      <point x="248.0" y="-352.0" type="line" smooth="yes"/>
      <point x="294.0" y="-352.0"/>
      <point x="340.0" y="-308.0"/>
      <point x="356.0" y="-254.0" type="curve" smooth="yes"/>
      <point x="802.0" y="1416.0" type="line" smooth="yes"/>
      <point x="818.0" y="1470.0"/>
      <point x="794.0" y="1514.0"/>
      <point x="748.0" y="1514.0" type="curve" smooth="yes"/>
      <point x="444.0" y="1514.0" type="line" smooth="yes"/>
      <point x="414.0" y="1514.0"/>
      <point x="398.0" y="1494.0"/>
      <point x="392.0" y="1474.0" type="curve" smooth="yes"/>
      <point x="386.0" y="1450.0"/>
      <point x="396.0" y="1440.0"/>
      <point x="430.0" y="1440.0" type="curve" smooth="yes"/>
      <point x="590.0" y="1440.0" type="line" smooth="yes"/>
      <point x="626.0" y="1440.0"/>
      <point x="646.0" y="1410.0"/>
      <point x="636.0" y="1372.0" type="curve" smooth="yes"/>
    </contour>
  </outline>
</glyph>
<glyph name="underscore" format="2">
  <advance width="1284"/>
  <unicode hex="005F"/>
  <outline>
    <contour>
      <point x="1164.0" y="104.0" type="curve" smooth="yes"/>
      <point x="206.0" y="104.0" type="line" smooth="yes"/>
      <point x="170.0" y="104.0"/>
      <point x="140.0" y="76.0"/>
      <point x="140.0" y="46.0" type="curve" smooth="yes"/>
      <point x="140.0" y="18.0"/>
      <point x="156.0" y="0.0"/>
      <point x="186.0" y="0.0" type="curve" smooth="yes"/>
      <point x="1144.0" y="0.0" type="line"/>
      <point x="1180.0" y="0.0"/>
      <point x="1210.0" y="28.0"/>
      <point x="1210.0" y="58.0" type="curve" smooth="yes"/>
      <point x="1210.0" y="86.0"/>
      <point x="1194.0" y="104.0"/>
    </contour>
  </outline>
</glyph>
<glyph name="b" format="2">
  <advance width="978"/>
  <unicode hex="0062"/>
  <outline>
    <contour>
      <point x="576.0" y="1070.0" type="line" smooth="yes"/>
      <point x="612.1156551776265" y="1218.4754712857978"/>
      <point x="681.6428571428571" y="1274.0"/>
      <point x="780.0" y="1274.0" type="curve" smooth="yes"/>
      <point x="854.0" y="1274.0"/>
      <point x="956.0" y="1206.0"/>
      <point x="1032.0" y="1206.0" type="curve" smooth="yes"/>
      <point x="1124.0" y="1206.0"/>
      <point x="1166.0" y="1262.0"/>
      <point x="1166.0" y="1316.0" type="curve" smooth="yes"/>
      <point x="1166.0" y="1376.0"/>
      <point x="1110.0" y="1430.0"/>
      <point x="1008.0" y="1430.0" type="curve" smooth="yes"/>
      <point x="670.0" y="1430.0"/>
      <point x="456.0" y="1244.0"/>
      <point x="382.0" y="960.0" type="curve" smooth="yes"/>
      <point x="190.0" y="222.0" type="line" smooth="yes"/>
      <point x="162.0" y="114.0"/>
      <point x="146.0" y="66.0"/>
      <point x="146.0" y="20.0" type="curve" smooth="yes"/>
      <point x="146.0" y="-12.0"/>
      <point x="166.0" y="-32.0"/>
      <point x="194.0" y="-32.0" type="curve" smooth="yes"/>
      <point x="226.0" y="-32.0"/>
      <point x="246.0" y="-6.0"/>
      <point x="280.0" y="44.0" type="curve" smooth="yes"/>
      <point x="338.0" y="132.0" type="line"/>
      <point x="258.0" y="226.0" type="line"/>
      <point x="258.0" y="70.0"/>
      <point x="332.0816326530612" y="-30.0"/>
      <point x="478.0" y="-30.0" type="curve" smooth="yes"/>
      <point x="741.3099041533546" y="-30.0"/>
      <point x="1084.0" y="262.00000000000006"/>
      <point x="1084.0" y="716.0" type="curve" smooth="yes"/>
      <point x="1084.0" y="870.0"/>
      <point x="1023.5454545454545" y="960.0"/>
      <point x="894.0" y="960.0" type="curve" smooth="yes"/>
      <point x="677.6198347107438" y="960.0"/>
      <point x="498.26471271398714" y="744.6860921362525"/>
      <point x="400.0" y="490.0" type="curve"/>
      <point x="432.0" y="478.0" type="line"/>
    </contour>
    <contour>
      <point x="798.0" y="830.0" type="curve" smooth="yes"/>
      <point x="875.5384615384615" y="830.0"/>
      <point x="910.0" y="770.0"/>
      <point x="910.0" y="634.0" type="curve" smooth="yes"/>
      <point x="910.0" y="312.0"/>
      <point x="686.4042553191489" y="72.0"/>
      <point x="538.0" y="72.0" type="curve" smooth="yes"/>
      <point x="448.0" y="72.0"/>
      <point x="382.0" y="122.73170731707316"/>
      <point x="382.0" y="232.0" type="curve" smooth="yes"/>
      <point x="382.0" y="479.65656565656565"/>
      <point x="634.1212121212121" y="830.0"/>
    </contour>
  </outline>
</glyph>
<glyph name="c" format="2">
  <advance width="804"/>
  <unicode hex="0063"/>
  <anchor x="704.0" y="1072.0" name="center"/>
  <outline>
    <contour>
      <point x="664.0" y="856.0" type="curve" smooth="yes"/>
      <point x="714.6666666666666" y="856.0"/>
      <point x="744.0" y="830.0"/>
      <point x="744.0" y="800.0" type="curve" smooth="yes"/>
      <point x="744.0" y="764.0"/>
      <point x="726.0" y="720.0"/>
      <point x="726.0" y="690.0" type="curve" smooth="yes"/>
      <point x="726.0" y="642.0"/>
      <point x="762.0" y="612.0"/>
      <point x="814.0" y="612.0" type="curve" smooth="yes"/>
      <point x="874.0" y="612.0"/>
      <point x="924.0" y="668.0"/>
      <point x="924.0" y="764.0" type="curve" smooth="yes"/>
      <point x="924.0" y="860.0"/>
      <point x="851.2653061224489" y="960.0"/>
      <point x="708.0" y="960.0" type="curve" smooth="yes"/>
      <point x="422.0" y="960.0"/>
      <point x="170.0" y="606.0"/>
      <point x="170.0" y="286.0" type="curve" smooth="yes"/>
      <point x="170.0" y="102.0"/>
      <point x="270.0" y="-30.0"/>
      <point x="448.0" y="-30.0" type="curve" smooth="yes"/>
      <point x="650.0" y="-30.0"/>
      <point x="830.0" y="132.0"/>
      <point x="830.0" y="242.0" type="curve" smooth="yes"/>
      <point x="830.0" y="270.0"/>
      <point x="812.0" y="290.0"/>
      <point x="798.0" y="290.0" type="curve" smooth="yes"/>
      <point x="768.0" y="290.0"/>
      <point x="748.0" y="264.0"/>
      <point x="730.0" y="236.0" type="curve" smooth="yes"/>
      <point x="685.1029522021091" y="162.53210360345122"/>
      <point x="617.1351351351351" y="104.0"/>
      <point x="514.0" y="104.0" type="curve" smooth="yes"/>
      <point x="416.51851851851853" y="104.0"/>
      <point x="346.0" y="198.0"/>
      <point x="346.0" y="358.0" type="curve" smooth="yes"/>
      <point x="346.0" y="628.0"/>
      <point x="502.0" y="856.0"/>
    </contour>
  </outline>
</glyph>
<glyph name="d" format="2">
  <advance width="992"/>
  <unicode hex="0064"/>
  <outline>
    <contour>
      <point x="1022.0" y="794.0" type="line"/>
      <point x="1022.0" y="890.0"/>
      <point x="952.0" y="960.0"/>
      <point x="818.0" y="960.0" type="curve" smooth="yes"/>
      <point x="500.0" y="960.0"/>
      <point x="138.0" y="590.0"/>
      <point x="138.0" y="202.0" type="curve" smooth="yes"/>
      <point x="138.0" y="40.0"/>
      <point x="202.0" y="-30.0"/>
      <point x="324.0" y="-30.0" type="curve" smooth="yes"/>
      <point x="476.0" y="-30.0"/>
      <point x="648.0" y="106.0"/>
      <point x="796.0" y="416.0" type="curve"/>
      <point x="762.0" y="418.0" type="line"/>
      <point x="762.0" y="318.0"/>
      <point x="712.0" y="198.0"/>
      <point x="712.0" y="82.0" type="curve" smooth="yes"/>
      <point x="712.0" y="18.0"/>
      <point x="750.0" y="-30.0"/>
      <point x="820.0" y="-30.0" type="curve" smooth="yes"/>
      <point x="938.0" y="-30.0"/>
      <point x="1056.0" y="80.0"/>
      <point x="1056.0" y="158.0" type="curve" smooth="yes"/>
      <point x="1056.0" y="176.0"/>
      <point x="1044.0" y="196.0"/>
      <point x="1022.0" y="196.0" type="curve" smooth="yes"/>
      <point x="1004.0" y="196.0"/>
      <point x="996.0" y="182.0"/>
      <point x="984.0" y="166.0" type="curve" smooth="yes"/>
      <point x="970.0" y="148.0"/>
      <point x="950.0" y="128.0"/>
      <point x="922.0" y="128.0" type="curve" smooth="yes"/>
      <point x="894.0" y="128.0"/>
      <point x="874.0" y="154.0"/>
      <point x="874.0" y="196.0" type="curve" smooth="yes"/>
      <point x="874.0" y="236.0"/>
      <point x="878.0" y="276.0"/>
      <point x="890.0" y="318.0" type="curve" smooth="yes"/>
      <point x="1106.0" y="1060.0" type="line" smooth="yes"/>
      <point x="1129.4298905492506" y="1140.4860129052956"/>
      <point x="1106.0" y="1198.0"/>
      <point x="1106.0" y="1236.0" type="curve" smooth="yes"/>
      <point x="1106.0" y="1274.0"/>
      <point x="1124.0" y="1296.0"/>
      <point x="1162.0" y="1296.0" type="curve" smooth="yes"/>
      <point x="1201.1304347826085" y="1296.0"/>
      <point x="1245.076923076923" y="1232.0"/>
      <point x="1312.0" y="1232.0" type="curve" smooth="yes"/>
      <point x="1372.75" y="1232.0"/>
      <point x="1420.0" y="1274.0"/>
      <point x="1420.0" y="1330.0" type="curve" smooth="yes"/>
      <point x="1420.0" y="1394.0"/>
      <point x="1371.388888888889" y="1430.0"/>
      <point x="1280.0" y="1430.0" type="curve" smooth="yes"/>
      <point x="1146.086956521739" y="1430.0"/>
      <point x="1053.2574448060038" y="1343.2117248181742"/>
      <point x="1000.0" y="1182.0" type="curve" smooth="yes"/>
      <point x="852.0" y="734.0" type="line" smooth="yes"/>
      <point x="730.0" y="362.0"/>
      <point x="556.0" y="126.0"/>
      <point x="434.0" y="126.0" type="curve" smooth="yes"/>
      <point x="344.0" y="126.0"/>
      <point x="310.0" y="190.0"/>
      <point x="310.0" y="332.0" type="curve" smooth="yes"/>
      <point x="310.0" y="584.0"/>
      <point x="524.0" y="828.0"/>
      <point x="732.0" y="828.0" type="curve" smooth="yes"/>
      <point x="822.0" y="828.0"/>
      <point x="854.0" y="782.0"/>
      <point x="854.0" y="730.0" type="curve"/>
    </contour>
  </outline>
</glyph>
<glyph name="f" format="2">
  <advance width="542"/>
  <unicode hex="0066"/>
  <outline>
    <contour>
      <point x="490.0" y="836.0" type="line"/>
      <point x="696.0" y="836.0" type="line" smooth="yes"/>
      <point x="740.0" y="836.0"/>
      <point x="770.0" y="858.0"/>
      <point x="770.0" y="894.0" type="curve" smooth="yes"/>
      <point x="770.0" y="918.0"/>
      <point x="754.0" y="930.0"/>
      <point x="724.0" y="930.0" type="curve" smooth="yes"/>
      <point x="502.0" y="930.0" type="line"/>
    </contour>
    <contour>
      <point x="238.0" y="882.0" type="curve" smooth="yes"/>
      <point x="238.0" y="862.0"/>
      <point x="254.0" y="842.0"/>
      <point x="294.0" y="828.0" type="curve" smooth="yes"/>
      <point x="354.0" y="806.0"/>
      <point x="376.0" y="750.0"/>
      <point x="356.0" y="686.0" type="curve" smooth="yes"/>
      <point x="106.0" y="-122.0" type="line" smooth="yes"/>
      <point x="86.0" y="-186.0"/>
      <point x="78.0" y="-232.0"/>
      <point x="80.0" y="-294.0" type="curve" smooth="yes"/>
      <point x="84.0" y="-350.0"/>
      <point x="118.0" y="-380.0"/>
      <point x="178.0" y="-380.0" type="curve" smooth="yes"/>
      <point x="242.0" y="-380.0"/>
      <point x="306.0" y="-326.0"/>
      <point x="306.0" y="-256.0" type="curve" smooth="yes"/>
      <point x="306.0" y="-182.0"/>
      <point x="282.0" y="-172.0"/>
      <point x="282.0" y="-106.0" type="curve" smooth="yes"/>
      <point x="282.0" y="-82.0"/>
      <point x="284.0" y="-50.0"/>
      <point x="296.0" y="-6.0" type="curve" smooth="yes"/>
      <point x="568.0" y="958.0" type="line" smooth="yes"/>
      <point x="598.0" y="1066.0"/>
      <point x="558.0" y="1155.4736842105262"/>
      <point x="558.0" y="1226.0" type="curve" smooth="yes"/>
      <point x="558.0" y="1287.3333333333335"/>
      <point x="591.1904761904761" y="1318.0"/>
      <point x="640.0" y="1318.0" type="curve" smooth="yes"/>
      <point x="714.3181818181818" y="1318.0"/>
      <point x="777.1685393258426" y="1218.0"/>
      <point x="858.0" y="1218.0" type="curve" smooth="yes"/>
      <point x="922.0" y="1218.0"/>
      <point x="956.0" y="1262.0"/>
      <point x="956.0" y="1316.0" type="curve" smooth="yes"/>
      <point x="956.0" y="1378.0"/>
      <point x="896.0952380952381" y="1432.0"/>
      <point x="786.0" y="1432.0" type="curve" smooth="yes"/>
      <point x="593.922077922078" y="1432.0"/>
      <point x="462.1522331031658" y="1301.845333975072"/>
      <point x="438.0" y="1136.0" type="curve" smooth="yes"/>
      <point x="408.0" y="930.0" type="line"/>
      <point x="298.0" y="930.0" type="line" smooth="yes"/>
      <point x="262.0" y="930.0"/>
      <point x="238.0" y="910.0"/>
    </contour>
  </outline>
</glyph>
<glyph name="j" format="2">
  <advance width="568"/>
  <unicode hex="006A"/>
  <outline>
    <contour>
      <point x="576.0" y="1124.0" type="curve" smooth="yes"/>
      <point x="660.0" y="1124.0"/>
      <point x="766.0" y="1238.0"/>
      <point x="766.0" y="1348.0" type="curve" smooth="yes"/>
      <point x="766.0" y="1396.0"/>
      <point x="730.0" y="1430.0"/>
      <point x="686.0" y="1430.0" type="curve" smooth="yes"/>
      <point x="596.0" y="1430.0"/>
      <point x="494.0" y="1310.0"/>
      <point x="494.0" y="1208.0" type="curve" smooth="yes"/>
      <point x="494.0" y="1160.0"/>
      <point x="530.0" y="1124.0"/>
    </contour>
    <contour>
      <point x="568.0" y="598.0" type="curve" smooth="yes"/>
      <point x="392.0" y="-124.0" type="line" smooth="yes"/>
      <point x="336.0" y="-356.0"/>
      <point x="192.0" y="-490.0"/>
      <point x="24.0" y="-490.0" type="curve" smooth="yes"/>
      <point x="-60.0" y="-490.0"/>
      <point x="-106.0" y="-436.0"/>
      <point x="-106.0" y="-376.0" type="curve" smooth="yes"/>
      <point x="-106.0" y="-304.0"/>
      <point x="-62.0" y="-244.0"/>
      <point x="16.0" y="-244.0" type="curve" smooth="yes"/>
      <point x="72.61764705882354" y="-244.0"/>
      <point x="117.91176470588235" y="-328.0"/>
      <point x="170.0" y="-328.0" type="curve" smooth="yes"/>
      <point x="203.46153846153845" y="-328.0"/>
      <point x="228.0" y="-304.0"/>
      <point x="228.0" y="-254.0" type="curve" smooth="yes"/>
      <point x="228.0" y="-190.0"/>
      <point x="230.0" y="-96.0"/>
      <point x="244.0" y="-40.0" type="curve" smooth="yes"/>
      <point x="418.0" y="634.0" type="line" smooth="yes"/>
      <point x="430.0" y="684.0"/>
      <point x="438.0" y="712.0"/>
      <point x="436.0" y="748.0" type="curve" smooth="yes"/>
      <point x="436.0" y="774.0"/>
      <point x="420.0" y="788.0"/>
      <point x="392.0" y="788.0" type="curve" smooth="yes"/>
      <point x="362.0" y="788.0"/>
      <point x="344.0" y="772.0"/>
      <point x="320.0" y="746.0" type="curve" smooth="yes"/>
      <point x="298.0" y="720.0"/>
      <point x="280.0" y="704.0"/>
      <point x="262.0" y="704.0" type="curve" smooth="yes"/>
      <point x="238.0" y="704.0"/>
      <point x="220.0" y="716.0"/>
      <point x="218.0" y="750.0" type="curve" smooth="yes"/>
      <point x="216.0" y="818.0"/>
      <point x="396.0" y="960.0"/>
      <point x="538.0" y="960.0" type="curve" smooth="yes"/>
      <point x="604.0" y="960.0"/>
      <point x="636.0" y="924.0"/>
      <point x="638.0" y="872.0" type="curve" smooth="yes"/>
      <point x="642.0" y="796.0"/>
      <point x="590.0" y="690.0"/>
    </contour>
  </outline>
</glyph>
<glyph name="k" format="2">
  <advance width="1032"/>
  <unicode hex="006B"/>
  <outline>
    <contour>
      <point x="374.0" y="474.0" type="line"/>
      <point x="502.0" y="778.0"/>
      <point x="738.0" y="960.0"/>
      <point x="954.0" y="960.0" type="curve" smooth="yes"/>
      <point x="1072.0" y="960.0"/>
      <point x="1144.0" y="904.0"/>
      <point x="1144.0" y="798.0" type="curve" smooth="yes"/>
      <point x="1144.0" y="602.0"/>
      <point x="934.0" y="456.0"/>
      <point x="364.0" y="294.0" type="curve"/>
      <point x="360.0" y="352.0" type="line"/>
      <point x="838.0" y="506.0"/>
      <point x="970.0" y="656.0"/>
      <point x="970.0" y="772.0" type="curve" smooth="yes"/>
      <point x="970.0" y="826.0454545454545"/>
      <point x="936.16" y="854.0"/>
      <point x="876.0" y="854.0" type="curve" smooth="yes"/>
      <point x="705.8369098712446" y="854.0"/>
      <point x="485.1642826281493" y="645.1463309253878"/>
      <point x="404.0" y="368.0" type="curve" smooth="yes"/>
      <point x="390.0" y="318.0"/>
      <point x="384.0" y="282.0"/>
      <point x="384.0" y="256.0" type="curve" smooth="yes"/>
      <point x="384.0" y="180.0"/>
      <point x="420.0" y="148.0"/>
      <point x="420.0" y="100.0" type="curve" smooth="yes"/>
      <point x="420.0" y="22.0"/>
      <point x="348.0" y="-32.0"/>
      <point x="268.0" y="-32.0" type="curve" smooth="yes"/>
      <point x="210.0" y="-32.0"/>
      <point x="172.0" y="6.0"/>
      <point x="172.0" y="72.0" type="curve" smooth="yes"/>
      <point x="172.0" y="110.0"/>
      <point x="182.0" y="154.0"/>
      <point x="198.0" y="210.0" type="curve" smooth="yes"/>
      <point x="414.0" y="948.0" type="line" smooth="yes"/>
      <point x="498.0" y="1232.0"/>
      <point x="742.0" y="1432.0"/>
      <point x="1082.0" y="1432.0" type="curve" smooth="yes"/>
      <point x="1214.0" y="1432.0"/>
      <point x="1278.0" y="1378.0"/>
      <point x="1278.0" y="1322.0" type="curve" smooth="yes"/>
      <point x="1278.0" y="1260.0"/>
      <point x="1230.0" y="1204.0"/>
      <point x="1142.0" y="1204.0" type="curve" smooth="yes"/>
      <point x="1048.0" y="1204.0"/>
      <point x="922.0" y="1284.0"/>
      <point x="830.0" y="1284.0" type="curve" smooth="yes"/>
      <point x="726.0" y="1284.0"/>
      <point x="638.0" y="1192.0"/>
      <point x="604.0" y="1076.0" type="curve" smooth="yes"/>
      <point x="512.0" y="764.0"/>
      <point x="458.0" y="678.0"/>
      <point x="458.0" y="576.0" type="curve"/>
    </contour>
    <contour>
      <point x="588.0" y="414.0" type="curve"/>
      <point x="698.0" y="466.0" type="line"/>
      <point x="774.0" y="218.0"/>
      <point x="826.0" y="160.0"/>
      <point x="906.0" y="160.0" type="curve" smooth="yes"/>
      <point x="960.0" y="160.0"/>
      <point x="974.0" y="218.0"/>
      <point x="1012.0" y="218.0" type="curve" smooth="yes"/>
      <point x="1034.0" y="218.0"/>
      <point x="1046.0" y="204.0"/>
      <point x="1046.0" y="174.0" type="curve" smooth="yes"/>
      <point x="1046.0" y="60.0"/>
      <point x="936.0" y="-30.0"/>
      <point x="828.0" y="-30.0" type="curve" smooth="yes"/>
      <point x="720.0" y="-30.0"/>
      <point x="648.0" y="66.0"/>
    </contour>
  </outline>
</glyph>
<glyph name="m" format="2">
  <advance width="1586"/>
  <unicode hex="006D"/>
  <outline>
    <contour>
      <point x="742.0" y="200.0" type="line" smooth="yes"/>
      <point x="724.0" y="156.0"/>
      <point x="710.0" y="106.0"/>
      <point x="714.0" y="58.0" type="curve" smooth="yes"/>
      <point x="716.0" y="0.0"/>
      <point x="744.0" y="-30.0"/>
      <point x="792.0" y="-30.0" type="curve" smooth="yes"/>
      <point x="868.0" y="-30.0"/>
      <point x="938.0" y="18.0"/>
      <point x="934.0" y="86.0" type="curve" smooth="yes"/>
      <point x="932.0" y="124.0"/>
      <point x="922.0" y="160.0"/>
      <point x="918.0" y="196.0" type="curve" smooth="yes"/>
      <point x="916.0" y="232.0"/>
      <point x="922.0" y="290.0"/>
      <point x="946.0" y="350.0" type="curve" smooth="yes"/>
      <point x="1058.0" y="636.0"/>
      <point x="1248.0" y="792.0"/>
      <point x="1350.0" y="792.0" type="curve" smooth="yes"/>
      <point x="1394.0" y="792.0"/>
      <point x="1412.0" y="760.0"/>
      <point x="1412.0" y="718.0" type="curve" smooth="yes"/>
      <point x="1412.0" y="682.0"/>
      <point x="1402.0" y="632.0"/>
      <point x="1384.0" y="586.0" type="curve" smooth="yes"/>
      <point x="1266.0" y="280.0" type="line" smooth="yes"/>
      <point x="1240.0" y="212.0"/>
      <point x="1214.0" y="158.0"/>
      <point x="1216.0" y="100.0" type="curve" smooth="yes"/>
      <point x="1220.0" y="28.0"/>
      <point x="1254.0" y="-30.0"/>
      <point x="1322.0" y="-30.0" type="curve" smooth="yes"/>
      <point x="1488.0" y="-30.0"/>
      <point x="1612.0" y="86.0"/>
      <point x="1608.0" y="174.0" type="curve" smooth="yes"/>
      <point x="1606.0" y="202.0"/>
      <point x="1592.0" y="212.0"/>
      <point x="1574.0" y="212.0" type="curve" smooth="yes"/>
      <point x="1560.0" y="212.0"/>
      <point x="1548.0" y="202.0"/>
      <point x="1530.0" y="176.0" type="curve" smooth="yes"/>
      <point x="1510.0" y="148.0"/>
      <point x="1480.0" y="132.0"/>
      <point x="1454.0" y="132.0" type="curve" smooth="yes"/>
      <point x="1426.0" y="132.0"/>
      <point x="1404.0" y="156.0"/>
      <point x="1402.0" y="196.0" type="curve" smooth="yes"/>
      <point x="1398.0" y="242.0"/>
      <point x="1416.0" y="292.0"/>
      <point x="1434.0" y="340.0" type="curve" smooth="yes"/>
      <point x="1532.0" y="598.0" type="line" smooth="yes"/>
      <point x="1568.0" y="692.0"/>
      <point x="1592.0" y="750.0"/>
      <point x="1592.0" y="834.0" type="curve" smooth="yes"/>
      <point x="1592.0" y="908.0"/>
      <point x="1550.0" y="960.0"/>
      <point x="1474.0" y="960.0" type="curve" smooth="yes"/>
      <point x="1328.0" y="960.0"/>
      <point x="1166.0" y="834.0"/>
      <point x="1008.0" y="608.0" type="curve"/>
      <point x="1028.0" y="596.0" type="line"/>
      <point x="1028.0" y="676.0"/>
      <point x="1094.0" y="764.0"/>
      <point x="1094.0" y="854.0" type="curve" smooth="yes"/>
      <point x="1094.0" y="916.0"/>
      <point x="1054.0" y="960.0"/>
      <point x="982.0" y="960.0" type="curve" smooth="yes"/>
      <point x="828.0" y="960.0"/>
      <point x="658.0" y="838.0"/>
      <point x="496.0" y="594.0" type="curve"/>
      <point x="522.0" y="584.0" type="line"/>
      <point x="542.0" y="732.0"/>
      <point x="598.0" y="822.0"/>
      <point x="594.0" y="888.0" type="curve" smooth="yes"/>
      <point x="592.0" y="930.0"/>
      <point x="550.0" y="958.0"/>
      <point x="484.0" y="958.0" type="curve" smooth="yes"/>
      <point x="360.0" y="958.0"/>
      <point x="204.0" y="826.0"/>
      <point x="210.0" y="734.0" type="curve" smooth="yes"/>
      <point x="210.0" y="712.0"/>
      <point x="222.0" y="698.0"/>
      <point x="242.0" y="698.0" type="curve" smooth="yes"/>
      <point x="266.0" y="698.0"/>
      <point x="284.0" y="712.0"/>
      <point x="302.0" y="734.0" type="curve" smooth="yes"/>
      <point x="328.0" y="764.0"/>
      <point x="352.0" y="784.0"/>
      <point x="378.0" y="784.0" type="curve" smooth="yes"/>
      <point x="414.0" y="784.0"/>
      <point x="428.0" y="762.0"/>
      <point x="430.0" y="738.0" type="curve" smooth="yes"/>
      <point x="432.0" y="700.0"/>
      <point x="424.0" y="658.0"/>
      <point x="408.0" y="616.0" type="curve" smooth="yes"/>
      <point x="236.0" y="200.0" type="line" smooth="yes"/>
      <point x="218.0" y="154.0"/>
      <point x="204.0" y="106.0"/>
      <point x="208.0" y="58.0" type="curve" smooth="yes"/>
      <point x="210.0" y="0.0"/>
      <point x="238.0" y="-30.0"/>
      <point x="286.0" y="-30.0" type="curve" smooth="yes"/>
      <point x="362.0" y="-30.0"/>
      <point x="432.0" y="18.0"/>
      <point x="428.0" y="86.0" type="curve" smooth="yes"/>
      <point x="426.0" y="124.0"/>
      <point x="416.0" y="160.0"/>
      <point x="412.0" y="196.0" type="curve" smooth="yes"/>
      <point x="410.0" y="232.0"/>
      <point x="424.0" y="288.0"/>
      <point x="450.0" y="352.0" type="curve" smooth="yes"/>
      <point x="566.0" y="650.0"/>
      <point x="716.0" y="792.0"/>
      <point x="842.0" y="792.0" type="curve" smooth="yes"/>
      <point x="898.0" y="792.0"/>
      <point x="920.0" y="760.0"/>
      <point x="920.0" y="718.0" type="curve" smooth="yes"/>
      <point x="920.0" y="680.0"/>
      <point x="910.0" y="632.0"/>
      <point x="892.0" y="586.0" type="curve" smooth="yes"/>
    </contour>
  </outline>
</glyph>
<glyph name="n" format="2">
  <advance width="1100"/>
  <unicode hex="006E"/>
  <outline>
    <contour>
      <point x="248.0" y="698.0" type="curve" smooth="yes"/>
      <point x="272.0" y="698.0"/>
      <point x="290.0" y="712.0"/>
      <point x="308.0" y="734.0" type="curve" smooth="yes"/>
      <point x="338.0" y="768.0"/>
      <point x="364.0" y="786.0"/>
      <point x="390.0" y="786.0" type="curve" smooth="yes"/>
      <point x="420.0" y="786.0"/>
      <point x="432.0" y="764.0"/>
      <point x="434.0" y="738.0" type="curve" smooth="yes"/>
      <point x="436.0" y="700.0"/>
      <point x="428.0" y="658.0"/>
      <point x="412.0" y="616.0" type="curve" smooth="yes"/>
      <point x="240.0" y="200.0" type="line" smooth="yes"/>
      <point x="222.0" y="154.0"/>
      <point x="208.0" y="106.0"/>
      <point x="212.0" y="58.0" type="curve" smooth="yes"/>
      <point x="214.0" y="0.0"/>
      <point x="242.0" y="-30.0"/>
      <point x="290.0" y="-30.0" type="curve" smooth="yes"/>
      <point x="364.0" y="-30.0"/>
      <point x="436.0" y="18.0"/>
      <point x="432.0" y="86.0" type="curve" smooth="yes"/>
      <point x="430.0" y="124.0"/>
      <point x="420.0" y="160.0"/>
      <point x="416.0" y="196.0" type="curve" smooth="yes"/>
      <point x="414.0" y="232.0"/>
      <point x="428.0" y="288.0"/>
      <point x="482.0" y="424.0" type="curve" smooth="yes"/>
      <point x="580.0" y="672.0"/>
      <point x="742.0" y="804.0"/>
      <point x="856.0" y="804.0" type="curve" smooth="yes"/>
      <point x="912.0" y="804.0"/>
      <point x="930.0" y="774.0"/>
      <point x="934.0" y="730.0" type="curve" smooth="yes"/>
      <point x="934.0" y="692.0"/>
      <point x="924.0" y="644.0"/>
      <point x="906.0" y="598.0" type="curve" smooth="yes"/>
      <point x="786.0" y="280.0" type="line" smooth="yes"/>
      <point x="760.0" y="212.0"/>
      <point x="734.0" y="158.0"/>
      <point x="736.0" y="100.0" type="curve" smooth="yes"/>
      <point x="740.0" y="28.0"/>
      <point x="774.0" y="-30.0"/>
      <point x="842.0" y="-30.0" type="curve" smooth="yes"/>
      <point x="1008.0" y="-30.0"/>
      <point x="1132.0" y="86.0"/>
      <point x="1128.0" y="174.0" type="curve" smooth="yes"/>
      <point x="1126.0" y="202.0"/>
      <point x="1112.0" y="212.0"/>
      <point x="1094.0" y="212.0" type="curve" smooth="yes"/>
      <point x="1080.0" y="212.0"/>
      <point x="1068.0" y="202.0"/>
      <point x="1050.0" y="176.0" type="curve" smooth="yes"/>
      <point x="1030.0" y="148.0"/>
      <point x="1000.0" y="132.0"/>
      <point x="974.0" y="132.0" type="curve" smooth="yes"/>
      <point x="946.0" y="132.0"/>
      <point x="924.0" y="156.0"/>
      <point x="922.0" y="196.0" type="curve" smooth="yes"/>
      <point x="918.0" y="242.0"/>
      <point x="936.0" y="292.0"/>
      <point x="954.0" y="340.0" type="curve" smooth="yes"/>
      <point x="1052.0" y="598.0" type="line" smooth="yes"/>
      <point x="1088.0" y="692.0"/>
      <point x="1112.0" y="750.0"/>
      <point x="1112.0" y="834.0" type="curve" smooth="yes"/>
      <point x="1112.0" y="908.0"/>
      <point x="1070.0" y="960.0"/>
      <point x="994.0" y="960.0" type="curve" smooth="yes"/>
      <point x="830.0" y="960.0"/>
      <point x="672.0" y="850.0"/>
      <point x="514.0" y="610.0" type="curve"/>
      <point x="532.0" y="600.0" type="line"/>
      <point x="532.0" y="676.0"/>
      <point x="598.0" y="792.0"/>
      <point x="598.0" y="868.0" type="curve" smooth="yes"/>
      <point x="598.0" y="924.0"/>
      <point x="558.0" y="960.0"/>
      <point x="496.0" y="960.0" type="curve" smooth="yes"/>
      <point x="370.0" y="960.0"/>
      <point x="210.0" y="826.0"/>
      <point x="216.0" y="734.0" type="curve" smooth="yes"/>
      <point x="216.0" y="712.0"/>
      <point x="228.0" y="698.0"/>
    </contour>
  </outline>
</glyph>
<glyph name="p" format="2">
  <advance width="1024"/>
  <unicode hex="0070"/>
  <outline>
    <contour>
      <point x="674.0" y="1022.0" type="line" smooth="yes"/>
      <point x="682.6922699779188" y="1050.9418598147467"/>
      <point x="686.0" y="1069.4375"/>
      <point x="686.0" y="1088.0" type="curve" smooth="yes"/>
      <point x="686.0" y="1136.8372093023256"/>
      <point x="657.2" y="1172.0"/>
      <point x="614.0" y="1172.0" type="curve" smooth="yes"/>
      <point x="584.1428571428572" y="1172.0"/>
      <point x="558.490893257246" y="1147.766037832624"/>
      <point x="548.0" y="1114.0" type="curve" smooth="yes"/>
      <point x="118.0" y="-270.0" type="line" smooth="yes"/>
      <point x="106.0" y="-306.0"/>
      <point x="80.0" y="-330.0"/>
      <point x="36.0" y="-356.0" type="curve" smooth="yes"/>
      <point x="-12.0" y="-382.0"/>
      <point x="-30.0" y="-402.0"/>
      <point x="-30.0" y="-422.0" type="curve" smooth="yes"/>
      <point x="-30.0" y="-454.0"/>
      <point x="-4.0" y="-472.0"/>
      <point x="30.0" y="-470.0" type="curve" smooth="yes"/>
      <point x="348.0" y="-460.0" type="line" smooth="yes"/>
      <point x="386.0" y="-458.0"/>
      <point x="412.0" y="-440.0"/>
      <point x="412.0" y="-414.0" type="curve" smooth="yes"/>
      <point x="412.0" y="-390.0"/>
      <point x="394.0" y="-374.0"/>
      <point x="352.0" y="-356.0" type="curve" smooth="yes"/>
      <point x="308.0" y="-336.0"/>
      <point x="292.0" y="-316.0"/>
      <point x="292.0" y="-282.0" type="curve" smooth="yes"/>
      <point x="292.0" y="-250.0"/>
      <point x="304.0" y="-208.0"/>
      <point x="316.0" y="-170.0" type="curve" smooth="yes"/>
    </contour>
    <contour>
      <point x="244.0" y="626.0" type="curve" smooth="yes"/>
      <point x="264.0" y="626.0"/>
      <point x="280.0" y="642.0"/>
      <point x="296.0" y="656.0" type="curve" smooth="yes"/>
      <point x="420.0" y="774.0"/>
      <point x="576.0" y="862.0"/>
      <point x="714.0" y="862.0" type="curve" smooth="yes"/>
      <point x="854.0" y="862.0"/>
      <point x="906.0" y="782.8253968253969"/>
      <point x="906.0" y="630.0" type="curve" smooth="yes"/>
      <point x="906.0" y="284.33093525179856"/>
      <point x="684.3455497382199" y="58.0"/>
      <point x="528.0" y="58.0" type="curve" smooth="yes"/>
      <point x="429.8181818181818" y="58.0"/>
      <point x="373.07183963045617" y="101.92771769059101"/>
      <point x="348.0" y="154.0" type="curve"/>
      <point x="298.0" y="124.0" type="line"/>
      <point x="339.26147139511426" y="15.934241584224637"/>
      <point x="402.2903225806452" y="-30.0"/>
      <point x="542.0" y="-30.0" type="curve" smooth="yes"/>
      <point x="775.1428571428571" y="-30.0"/>
      <point x="1086.0" y="225.6307692307692"/>
      <point x="1086.0" y="640.0" type="curve" smooth="yes"/>
      <point x="1086.0" y="845.1764705882354"/>
      <point x="986.0" y="960.0"/>
      <point x="774.0" y="960.0" type="curve" smooth="yes"/>
      <point x="532.0" y="960.0"/>
      <point x="360.0" y="858.0"/>
      <point x="240.0" y="728.0" type="curve" smooth="yes"/>
      <point x="226.0" y="714.0"/>
      <point x="204.0" y="690.0"/>
      <point x="204.0" y="662.0" type="curve" smooth="yes"/>
      <point x="204.0" y="638.0"/>
      <point x="222.0" y="626.0"/>
    </contour>
  </outline>
</glyph>
<glyph name="q" format="2">
  <advance width="972"/>
  <unicode hex="0071"/>
  <outline>
    <contour>
      <point x="374.0" y="128.0"/>
      <point x="332.0" y="172.0"/>
      <point x="332.0" y="268.0" type="curve" smooth="yes"/>
      <point x="332.0" y="581.0074074074074"/>
      <point x="527.9795918367347" y="824.0"/>
      <point x="728.0" y="824.0" type="curve" smooth="yes"/>
      <point x="800.7241379310344" y="824.0"/>
      <point x="842.0" y="775.4"/>
      <point x="842.0" y="680.0" type="curve" smooth="yes"/>
      <point x="842.0" y="517.2835820895523"/>
      <point x="638.9849246231156" y="128.0"/>
      <point x="442.0" y="128.0" type="curve" smooth="yes"/>
    </contour>
    <contour>
      <point x="830.0" y="524.0" type="line"/>
      <point x="626.0" y="-228.0" type="line" smooth="yes"/>
      <point x="612.0" y="-280.0"/>
      <point x="584.0" y="-322.0"/>
      <point x="528.0" y="-344.0" type="curve" smooth="yes"/>
      <point x="468.0" y="-366.0"/>
      <point x="442.0" y="-390.0"/>
      <point x="442.0" y="-412.0" type="curve" smooth="yes"/>
      <point x="442.0" y="-444.0"/>
      <point x="466.0" y="-462.0"/>
      <point x="498.0" y="-460.0" type="curve" smooth="yes"/>
      <point x="810.0" y="-450.0" type="line" smooth="yes"/>
      <point x="848.0" y="-448.0"/>
      <point x="874.0" y="-428.0"/>
      <point x="874.0" y="-398.0" type="curve" smooth="yes"/>
      <point x="874.0" y="-384.0"/>
      <point x="868.0" y="-370.0"/>
      <point x="848.0" y="-360.0" type="curve" smooth="yes"/>
      <point x="804.0" y="-336.0"/>
      <point x="784.0" y="-316.0"/>
      <point x="784.0" y="-270.0" type="curve" smooth="yes"/>
      <point x="784.0" y="-238.0"/>
      <point x="790.0" y="-204.0"/>
      <point x="804.0" y="-148.0" type="curve" smooth="yes"/>
      <point x="986.0" y="622.0" type="line" smooth="yes"/>
      <point x="1008.0" y="718.0"/>
      <point x="1068.0" y="772.0"/>
      <point x="1068.0" y="844.0" type="curve" smooth="yes"/>
      <point x="1068.0" y="918.0"/>
      <point x="994.0" y="960.0"/>
      <point x="858.0" y="960.0" type="curve" smooth="yes"/>
      <point x="502.0" y="960.0"/>
      <point x="162.0" y="554.0"/>
      <point x="162.0" y="176.0" type="curve" smooth="yes"/>
      <point x="162.0" y="40.0"/>
      <point x="234.0" y="-30.0"/>
      <point x="348.0" y="-30.0" type="curve" smooth="yes"/>
      <point x="516.0" y="-30.0"/>
      <point x="758.0" y="150.0"/>
      <point x="890.0" y="602.0" type="curve"/>
    </contour>
  </outline>
</glyph>
<glyph name="s" format="2">
  <advance width="740"/>
  <unicode hex="0073"/>
  <outline>
    <contour>
      <point x="458.0" y="62.0" type="curve" smooth="yes"/>
      <point x="388.7" y="62.0"/>
      <point x="338.7056198588126" y="100.10122782746717"/>
      <point x="290.0" y="172.0" type="curve" smooth="yes"/>
      <point x="254.0" y="224.0"/>
      <point x="216.0" y="248.0"/>
      <point x="176.0" y="248.0" type="curve" smooth="yes"/>
      <point x="134.0" y="248.0"/>
      <point x="108.0" y="216.0"/>
      <point x="108.0" y="156.0" type="curve" smooth="yes"/>
      <point x="108.0" y="56.0"/>
      <point x="220.0" y="-30.0"/>
      <point x="374.0" y="-30.0" type="curve" smooth="yes"/>
      <point x="586.0" y="-30.0"/>
      <point x="728.0" y="100.0"/>
      <point x="728.0" y="266.0" type="curve" smooth="yes"/>
      <point x="728.0" y="346.0"/>
      <point x="678.6777876002451" y="418.59019949811403"/>
      <point x="564.0" y="508.0" type="curve" smooth="yes"/>
      <point x="438.0" y="604.0"/>
      <point x="402.0" y="664.0"/>
      <point x="402.0" y="732.0" type="curve" smooth="yes"/>
      <point x="402.0" y="806.0"/>
      <point x="460.0" y="868.0"/>
      <point x="552.0" y="868.0" type="curve" smooth="yes"/>
      <point x="610.0" y="868.0"/>
      <point x="657.0452883367054" y="831.227566788906"/>
      <point x="686.0" y="780.0" type="curve" smooth="yes"/>
      <point x="718.0" y="722.0"/>
      <point x="758.0" y="696.0"/>
      <point x="802.0" y="696.0" type="curve" smooth="yes"/>
      <point x="854.0" y="696.0"/>
      <point x="888.0" y="728.0"/>
      <point x="888.0" y="786.0" type="curve" smooth="yes"/>
      <point x="888.0" y="876.0"/>
      <point x="806.0" y="960.0"/>
      <point x="636.0" y="960.0" type="curve" smooth="yes"/>
      <point x="402.0" y="960.0"/>
      <point x="254.0" y="808.0"/>
      <point x="254.0" y="642.0" type="curve" smooth="yes"/>
      <point x="254.0" y="560.0"/>
      <point x="307.79359183481193" y="490.69590388580895"/>
      <point x="428.0" y="386.0" type="curve" smooth="yes"/>
      <point x="554.0" y="278.0"/>
      <point x="582.0" y="232.0"/>
      <point x="582.0" y="182.0" type="curve" smooth="yes"/>
      <point x="582.0" y="102.0"/>
      <point x="527.5151515151515" y="62.0"/>
    </contour>
  </outline>
</glyph>
<glyph name="bar" format="2">
  <advance width="714"/>
  <unicode hex="007C"/>
  <outline>
    <contour>
      <point x="664.0" y="1422.0" type="curve" smooth="yes"/>
      <point x="624.0" y="1184.0"/>
      <point x="492.0" y="694.0"/>
      <point x="448.0" y="530.0" type="curve" smooth="yes"/>
      <point x="396.0" y="336.0"/>
      <point x="270.0" y="-134.0"/>
      <point x="182.0" y="-374.0" type="curve" smooth="yes"/>
      <point x="176.0" y="-390.0"/>
      <point x="172.0" y="-404.0"/>
      <point x="168.0" y="-420.0" type="curve" smooth="yes"/>
      <point x="154.0" y="-470.0"/>
      <point x="176.0" y="-500.0"/>
      <point x="222.0" y="-500.0" type="curve" smooth="yes"/>
      <point x="266.0" y="-500.0"/>
      <point x="300.0" y="-470.0"/>
      <point x="312.0" y="-426.0" type="curve" smooth="yes"/>
      <point x="316.0" y="-408.0"/>
      <point x="322.0" y="-390.0"/>
      <point x="326.0" y="-368.0" type="curve" smooth="yes"/>
      <point x="376.0" y="-126.0"/>
      <point x="490.0" y="322.0"/>
      <point x="544.0" y="526.0" type="curve" smooth="yes"/>
      <point x="586.0" y="678.0"/>
      <point x="720.0" y="1188.0"/>
      <point x="796.0" y="1420.0" type="curve" smooth="yes"/>
      <point x="806.0" y="1448.0"/>
      <point x="806.0" y="1450.0"/>
      <point x="808.0" y="1454.0" type="curve" smooth="yes"/>
      <point x="818.0" y="1496.0"/>
      <point x="802.0" y="1530.0"/>
      <point x="760.0" y="1530.0" type="curve" smooth="yes"/>
      <point x="720.0" y="1530.0"/>
      <point x="684.0" y="1500.0"/>
      <point x="670.0" y="1450.0" type="curve" smooth="yes"/>
      <point x="668.0" y="1442.0"/>
      <point x="666.0" y="1432.0"/>
    </contour>
  </outline>
</glyph>
<glyph name="exclamdown" format="2">
  <advance width="526"/>
  <unicode hex="00A1"/>
  <outline>
    <contour>
      <point x="274.0" y="-452.0"/>
      <point x="228.0" y="-492.0"/>
      <point x="154.0" y="-492.0" type="curve" smooth="yes"/>
      <point x="92.0" y="-492.0"/>
      <point x="68.0" y="-454.0"/>
      <point x="68.0" y="-408.0" type="curve" smooth="yes"/>
      <point x="68.0" y="-384.0"/>
      <point x="74.0" y="-366.0"/>
      <point x="90.0" y="-318.0" type="curve" smooth="yes"/>
      <point x="374.0" y="502.0" type="line" smooth="yes"/>
      <point x="386.0" y="536.0"/>
      <point x="404.0" y="554.0"/>
      <point x="428.0" y="554.0" type="curve" smooth="yes"/>
      <point x="452.0" y="554.0"/>
      <point x="460.0" y="536.0"/>
      <point x="454.0" y="498.0" type="curve" smooth="yes"/>
      <point x="312.0" y="-316.0" type="line" smooth="yes"/>
      <point x="308.0" y="-342.0"/>
      <point x="304.0" y="-360.0"/>
      <point x="298.0" y="-378.0" type="curve" smooth="yes"/>
    </contour>
    <contour>
      <point x="554.1" y="983.99" type="curve" smooth="yes"/>
      <point x="475.728" y="983.99"/>
      <point x="376.83000000000004" y="858.6347857142857"/>
      <point x="376.83000000000004" y="737.678" type="curve" smooth="yes"/>
      <point x="376.83000000000004" y="692.894"/>
      <point x="410.418" y="661.172"/>
      <point x="451.47" y="661.172" type="curve" smooth="yes"/>
      <point x="535.44" y="661.172"/>
      <point x="630.606" y="793.304972972973"/>
      <point x="630.606" y="905.618" type="curve" smooth="yes"/>
      <point x="630.606" y="950.402"/>
      <point x="597.018" y="983.99"/>
    </contour>
  </outline>
</glyph>
<glyph name="currency" format="2">
  <advance width="494"/>
  <unicode hex="00A4"/>
  <outline>
    <contour>
      <point x="287" y="153" type="curve" smooth="yes"/>
      <point x="193" y="153"/>
      <point x="137" y="233"/>
      <point x="162" y="326" type="curve" smooth="yes"/>
      <point x="188" y="420"/>
      <point x="285" y="497"/>
      <point x="379" y="497" type="curve" smooth="yes"/>
      <point x="475" y="497"/>
      <point x="531" y="420"/>
      <point x="505" y="326" type="curve" smooth="yes"/>
      <point x="480" y="233"/>
      <point x="383" y="153"/>
    </contour>
    <contour>
      <point x="305" y="215" type="curve" smooth="yes"/>
      <point x="364" y="215"/>
      <point x="428" y="264"/>
      <point x="444" y="326" type="curve" smooth="yes"/>
      <point x="461" y="388"/>
      <point x="423" y="436"/>
      <point x="364" y="436" type="curve" smooth="yes"/>
      <point x="302" y="436"/>
      <point x="242" y="388"/>
      <point x="225" y="326" type="curve" smooth="yes"/>
      <point x="209" y="264"/>
      <point x="243" y="215"/>
    </contour>
    <contour>
      <point x="461" y="448" type="line"/>
      <point x="497" y="483"/>
      <point x="517" y="504"/>
      <point x="531" y="515" type="curve" smooth="yes"/>
      <point x="558" y="537"/>
      <point x="574" y="535"/>
      <point x="581" y="524" type="curve" smooth="yes"/>
      <point x="588" y="513"/>
      <point x="586" y="496"/>
      <point x="560" y="476" type="curve" smooth="yes"/>
      <point x="546" y="465"/>
      <point x="521" y="451"/>
      <point x="479" y="424" type="curve"/>
    </contour>
    <contour>
      <point x="239" y="422" type="line"/>
      <point x="212" y="448"/>
      <point x="196" y="461"/>
      <point x="187" y="472" type="curve" smooth="yes"/>
      <point x="172" y="493"/>
      <point x="180" y="513"/>
      <point x="193" y="524" type="curve" smooth="yes"/>
      <point x="206" y="535"/>
      <point x="225" y="537"/>
      <point x="240" y="515" type="curve" smooth="yes"/>
      <point x="248" y="504"/>
      <point x="256" y="484"/>
      <point x="273" y="450" type="curve"/>
    </contour>
    <contour>
      <point x="108" y="173" type="curve" smooth="yes"/>
      <point x="123" y="184"/>
      <point x="148" y="198"/>
      <point x="191" y="226" type="curve"/>
      <point x="207" y="203" type="line"/>
      <point x="170" y="168"/>
      <point x="150" y="147"/>
      <point x="136" y="135" type="curve" smooth="yes"/>
      <point x="113" y="114"/>
      <point x="94" y="116"/>
      <point x="87" y="126" type="curve" smooth="yes"/>
      <point x="79" y="136"/>
      <point x="82" y="153"/>
    </contour>
    <contour>
      <point x="478" y="173" type="curve" smooth="yes"/>
      <point x="494" y="154"/>
      <point x="487" y="136"/>
      <point x="475" y="126" type="curve" smooth="yes"/>
      <point x="462" y="116"/>
      <point x="443" y="114"/>
      <point x="430" y="135" type="curve" smooth="yes"/>
      <point x="423" y="146"/>
      <point x="416" y="167"/>
      <point x="397" y="200" type="curve"/>
      <point x="427" y="224" type="line"/>
      <point x="453" y="197"/>
      <point x="470" y="183"/>
    </contour>
  </outline>
</glyph>
<glyph name="brokenbar" format="2">
  <advance width="714"/>
  <unicode hex="00A6"/>
  <outline>
    <contour>
      <point x="156.0" y="-390.0" type="curve" smooth="yes"/>
      <point x="136.0" y="-460.0"/>
      <point x="170.0" y="-490.0"/>
      <point x="214.0" y="-490.0" type="curve" smooth="yes"/>
      <point x="260.0" y="-490.0"/>
      <point x="308.0" y="-460.0"/>
      <point x="328.0" y="-390.0" type="curve" smooth="yes"/>
      <point x="354.0" y="-290.0"/>
      <point x="338.0" y="-178.0"/>
      <point x="482.0" y="358.0" type="curve" smooth="yes"/>
      <point x="492.0" y="398.0"/>
      <point x="484.0" y="414.0"/>
      <point x="456.0" y="414.0" type="curve" smooth="yes"/>
      <point x="428.0" y="414.0"/>
      <point x="412.0" y="398.0"/>
      <point x="402.0" y="358.0" type="curve" smooth="yes"/>
      <point x="258.0" y="-178.0"/>
      <point x="182.0" y="-290.0"/>
    </contour>
    <contour>
      <point x="644.0" y="1432.0" type="curve" smooth="yes"/>
      <point x="618.0" y="1334.0"/>
      <point x="632.0" y="1220.0"/>
      <point x="490.0" y="684.0" type="curve" smooth="yes"/>
      <point x="478.0" y="644.0"/>
      <point x="486.0" y="628.0"/>
      <point x="514.0" y="628.0" type="curve" smooth="yes"/>
      <point x="542.0" y="628.0"/>
      <point x="558.0" y="644.0"/>
      <point x="570.0" y="684.0" type="curve" smooth="yes"/>
      <point x="712.0" y="1220.0"/>
      <point x="790.0" y="1334.0"/>
      <point x="816.0" y="1432.0" type="curve" smooth="yes"/>
      <point x="834.0" y="1502.0"/>
      <point x="808.0" y="1532.0"/>
      <point x="756.0" y="1532.0" type="curve" smooth="yes"/>
      <point x="706.0" y="1532.0"/>
      <point x="662.0" y="1502.0"/>
    </contour>
  </outline>
</glyph>
<glyph name="registered" format="2">
  <advance width="1504"/>
  <unicode hex="00AE"/>
  <outline>
    <contour>
      <point x="764.0" y="-30.0" type="curve" smooth="yes"/>
      <point x="490.0" y="-30.0"/>
      <point x="300.0" y="164.0"/>
      <point x="300.0" y="442.0" type="curve" smooth="yes"/>
      <point x="300.0" y="932.0"/>
      <point x="650.0" y="1298.0"/>
      <point x="1120.0" y="1298.0" type="curve" smooth="yes"/>
      <point x="1398.0" y="1298.0"/>
      <point x="1590.0" y="1102.0"/>
      <point x="1590.0" y="818.0" type="curve" smooth="yes"/>
      <point x="1590.0" y="332.0"/>
      <point x="1236.0" y="-30.0"/>
    </contour>
    <contour>
      <point x="796.0" y="74.0" type="curve" smooth="yes"/>
      <point x="1194.0" y="74.0"/>
      <point x="1494.0" y="378.0"/>
      <point x="1494.0" y="784.0" type="curve" smooth="yes"/>
      <point x="1494.0" y="1028.0"/>
      <point x="1330.0" y="1200.0"/>
      <point x="1098.0" y="1200.0" type="curve" smooth="yes"/>
      <point x="702.0" y="1200.0"/>
      <point x="408.0" y="890.0"/>
      <point x="408.0" y="470.0" type="curve" smooth="yes"/>
      <point x="408.0" y="236.0"/>
      <point x="568.0" y="74.0"/>
    </contour>
    <contour>
      <point x="800.0" y="574.0" type="move"/>
      <point x="824.0" y="558.0"/>
      <point x="862.0" y="544.0"/>
      <point x="902.0" y="544.0" type="curve" smooth="yes"/>
      <point x="1102.0" y="548.0"/>
      <point x="1288.0" y="644.0"/>
      <point x="1288.0" y="842.0" type="curve" smooth="yes"/>
      <point x="1288.0" y="962.0"/>
      <point x="1188.0" y="1054.0"/>
      <point x="1036.0" y="1054.0" type="curve" smooth="yes"/>
      <point x="786.0" y="1054.0" type="line"/>
      <point x="760.0" y="1054.0"/>
      <point x="750.0" y="1048.0"/>
      <point x="746.0" y="1034.0" type="curve" smooth="yes"/>
      <point x="742.0" y="1016.0"/>
      <point x="752.0" y="1010.0"/>
      <point x="770.0" y="1006.0" type="curve" smooth="yes"/>
      <point x="796.0" y="1000.0" type="line" smooth="yes"/>
      <point x="818.0" y="994.0"/>
      <point x="824.0" y="978.0"/>
      <point x="820.0" y="950.0" type="curve" smooth="yes"/>
      <point x="788.0" y="770.0"/>
      <point x="740.0" y="578.0"/>
      <point x="668.0" y="370.0" type="curve" smooth="yes"/>
      <point x="656.0" y="342.0"/>
      <point x="644.0" y="326.0"/>
      <point x="616.0" y="320.0" type="curve" smooth="yes"/>
      <point x="588.0" y="314.0" type="line" smooth="yes"/>
      <point x="566.0" y="310.0"/>
      <point x="552.0" y="304.0"/>
      <point x="550.0" y="288.0" type="curve" smooth="yes"/>
      <point x="546.0" y="274.0"/>
      <point x="552.0" y="266.0"/>
      <point x="578.0" y="266.0" type="curve" smooth="yes"/>
      <point x="828.0" y="266.0" type="line" smooth="yes"/>
      <point x="852.0" y="266.0"/>
      <point x="864.0" y="274.0"/>
      <point x="868.0" y="288.0" type="curve" smooth="yes"/>
      <point x="874.0" y="304.0"/>
      <point x="862.0" y="310.0"/>
      <point x="844.0" y="314.0" type="curve" smooth="yes"/>
      <point x="816.0" y="320.0" type="line" smooth="yes"/>
      <point x="796.0" y="326.0"/>
      <point x="788.0" y="340.0"/>
      <point x="794.0" y="370.0" type="curve" smooth="yes"/>
      <point x="834.0" y="588.0"/>
      <point x="880.0" y="762.0"/>
      <point x="938.0" y="934.0" type="curve" smooth="yes"/>
      <point x="948.0" y="966.0"/>
      <point x="974.0" y="986.0"/>
      <point x="1020.0" y="986.0" type="curve" smooth="yes"/>
      <point x="1108.0" y="986.0"/>
      <point x="1162.0" y="926.0"/>
      <point x="1162.0" y="844.0" type="curve" smooth="yes"/>
      <point x="1162.0" y="700.0"/>
      <point x="1050.0" y="608.0"/>
      <point x="900.0" y="608.0" type="curve" smooth="yes"/>
      <point x="864.0" y="608.0"/>
      <point x="828.0" y="618.0"/>
      <point x="814.0" y="628.0" type="curve" smooth="yes"/>
    </contour>
    <contour>
      <point x="862.0" y="584.0" type="line"/>
      <point x="984.0" y="312.0"/>
      <point x="1044.0" y="250.0"/>
      <point x="1124.0" y="250.0" type="curve" smooth="yes"/>
      <point x="1184.0" y="250.0"/>
      <point x="1232.0" y="294.0"/>
      <point x="1232.0" y="346.0" type="curve" smooth="yes"/>
      <point x="1232.0" y="366.0"/>
      <point x="1224.0" y="382.0"/>
      <point x="1212.0" y="382.0" type="curve" smooth="yes"/>
      <point x="1194.0" y="382.0"/>
      <point x="1182.0" y="372.0"/>
      <point x="1156.0" y="372.0" type="curve" smooth="yes"/>
      <point x="1106.0" y="372.0"/>
      <point x="1060.0" y="416.0"/>
      <point x="982.0" y="578.0" type="curve"/>
    </contour>
  </outline>
</glyph>
<glyph name="plusminus" format="2">
  <advance width="996"/>
  <unicode hex="00B1"/>
  <outline>
    <contour>
      <point x="310.0" y="784.0" type="curve" smooth="yes"/>
      <point x="300.0" y="748.0"/>
      <point x="328.0" y="720.0"/>
      <point x="366.0" y="720.0" type="curve" smooth="yes"/>
      <point x="480.0" y="720.0"/>
      <point x="620.0" y="748.0"/>
      <point x="704.0" y="748.0" type="curve" smooth="yes"/>
      <point x="790.0" y="748.0"/>
      <point x="912.0" y="720.0"/>
      <point x="1018.0" y="720.0" type="curve" smooth="yes"/>
      <point x="1062.0" y="720.0"/>
      <point x="1096.0" y="748.0"/>
      <point x="1106.0" y="784.0" type="curve" smooth="yes"/>
      <point x="1116.0" y="822.0"/>
      <point x="1094.0" y="852.0"/>
      <point x="1052.0" y="852.0" type="curve" smooth="yes"/>
      <point x="946.0" y="852.0"/>
      <point x="812.0" y="824.0"/>
      <point x="726.0" y="824.0" type="curve" smooth="yes"/>
      <point x="628.0" y="824.0"/>
      <point x="514.0" y="852.0"/>
      <point x="402.0" y="852.0" type="curve" smooth="yes"/>
      <point x="366.0" y="852.0"/>
      <point x="320.0" y="822.0"/>
    </contour>
    <contour>
      <point x="610.0" y="384.0" type="curve" smooth="yes"/>
      <point x="646.0" y="384.0"/>
      <point x="682.0" y="418.0"/>
      <point x="692.0" y="456.0" type="curve" smooth="yes"/>
      <point x="724.0" y="570.0"/>
      <point x="730.0" y="704.0"/>
      <point x="754.0" y="788.0" type="curve" smooth="yes"/>
      <point x="776.0" y="874.0"/>
      <point x="838.0" y="1002.0"/>
      <point x="868.0" y="1108.0" type="curve" smooth="yes"/>
      <point x="878.0" y="1152.0"/>
      <point x="858.0" y="1180.0"/>
      <point x="822.0" y="1180.0" type="curve" smooth="yes"/>
      <point x="784.0" y="1180.0"/>
      <point x="746.0" y="1150.0"/>
      <point x="736.0" y="1108.0" type="curve" smooth="yes"/>
      <point x="706.0" y="1002.0"/>
      <point x="700.0" y="874.0"/>
      <point x="678.0" y="788.0" type="curve" smooth="yes"/>
      <point x="652.0" y="690.0"/>
      <point x="592.0" y="570.0"/>
      <point x="562.0" y="458.0" type="curve" smooth="yes"/>
      <point x="552.0" y="422.0"/>
      <point x="572.0" y="384.0"/>
    </contour>
    <contour>
      <point x="156.0" y="212.0" type="curve" smooth="yes"/>
      <point x="146.0" y="176.0"/>
      <point x="172.0" y="148.0"/>
      <point x="210.0" y="148.0" type="curve" smooth="yes"/>
      <point x="324.0" y="148.0"/>
      <point x="464.0" y="166.0"/>
      <point x="548.0" y="166.0" type="curve" smooth="yes"/>
      <point x="634.0" y="166.0"/>
      <point x="756.0" y="148.0"/>
      <point x="862.0" y="148.0" type="curve" smooth="yes"/>
      <point x="906.0" y="148.0"/>
      <point x="942.0" y="176.0"/>
      <point x="952.0" y="212.0" type="curve" smooth="yes"/>
      <point x="962.0" y="250.0"/>
      <point x="940.0" y="280.0"/>
      <point x="898.0" y="280.0" type="curve" smooth="yes"/>
      <point x="792.0" y="280.0"/>
      <point x="660.0" y="262.0"/>
      <point x="574.0" y="262.0" type="curve" smooth="yes"/>
      <point x="476.0" y="262.0"/>
      <point x="360.0" y="280.0"/>
      <point x="248.0" y="280.0" type="curve" smooth="yes"/>
      <point x="212.0" y="280.0"/>
      <point x="166.0" y="250.0"/>
    </contour>
  </outline>
</glyph>
<glyph name="acute" format="2">
  <advance width="590"/>
  <unicode hex="00B4"/>
  <outline>
    <contour>
      <point x="502.0" y="1110.0" type="curve" smooth="yes"/>
      <point x="662.0" y="1286.0" type="line" smooth="yes"/>
      <point x="686.0" y="1312.0"/>
      <point x="716.0" y="1334.0"/>
      <point x="758.0" y="1334.0" type="curve" smooth="yes"/>
      <point x="816.0" y="1334.0" type="line" smooth="yes"/>
      <point x="850.0" y="1334.0"/>
      <point x="866.0" y="1320.0"/>
      <point x="866.0" y="1296.0" type="curve" smooth="yes"/>
      <point x="866.0" y="1272.0"/>
      <point x="848.0" y="1258.0"/>
      <point x="812.0" y="1230.0" type="curve" smooth="yes"/>
      <point x="594.0" y="1060.0" type="line" smooth="yes"/>
      <point x="562.0" y="1036.0"/>
      <point x="532.0" y="1026.0"/>
      <point x="512.0" y="1026.0" type="curve" smooth="yes"/>
      <point x="488.0" y="1026.0"/>
      <point x="476.0" y="1036.0"/>
      <point x="476.0" y="1058.0" type="curve" smooth="yes"/>
      <point x="476.0" y="1076.0"/>
      <point x="490.0" y="1098.0"/>
    </contour>
  </outline>
</glyph>
<glyph name="periodcentered" format="2">
  <advance width="672"/>
  <unicode hex="00B7"/>
  <outline>
    <contour>
      <point x="364.0" y="374.0" type="curve" smooth="yes"/>
      <point x="448.0" y="374.0"/>
      <point x="554.0" y="508.3571428571429"/>
      <point x="554.0" y="638.0" type="curve" smooth="yes"/>
      <point x="554.0" y="686.0"/>
      <point x="518.0" y="720.0"/>
      <point x="474.0" y="720.0" type="curve" smooth="yes"/>
      <point x="384.0" y="720.0"/>
      <point x="282.0" y="578.3783783783783"/>
      <point x="282.0" y="458.0" type="curve" smooth="yes"/>
      <point x="282.0" y="410.0"/>
      <point x="318.0" y="374.0"/>
    </contour>
  </outline>
</glyph>
<glyph name="cedilla" format="2">
  <advance width="612"/>
  <unicode hex="00B8"/>
  <outline>
    <contour>
      <point x="312.0" y="16.0" type="line"/>
      <point x="178.0" y="-190.0" type="line" smooth="yes"/>
      <point x="166.0" y="-208.0"/>
      <point x="184.0" y="-222.0"/>
      <point x="200.0" y="-222.0" type="curve" smooth="yes"/>
      <point x="214.0" y="-222.0"/>
      <point x="230.0" y="-212.0"/>
      <point x="254.0" y="-212.0" type="curve" smooth="yes"/>
      <point x="304.0" y="-212.0"/>
      <point x="324.0" y="-244.0"/>
      <point x="306.0" y="-314.0" type="curve" smooth="yes"/>
      <point x="288.0" y="-380.0"/>
      <point x="242.0" y="-416.0"/>
      <point x="190.0" y="-416.0" type="curve" smooth="yes"/>
      <point x="148.0" y="-416.0"/>
      <point x="128.0" y="-404.0"/>
      <point x="132.0" y="-388.0" type="curve" smooth="yes"/>
      <point x="136.0" y="-374.0" type="line" smooth="yes"/>
      <point x="150.0" y="-318.0"/>
      <point x="130.0" y="-282.0"/>
      <point x="92.0" y="-282.0" type="curve" smooth="yes"/>
      <point x="56.0" y="-282.0"/>
      <point x="16.0" y="-312.0"/>
      <point x="6.0" y="-352.0" type="curve" smooth="yes"/>
      <point x="-16.0" y="-432.0"/>
      <point x="50.0" y="-490.0"/>
      <point x="150.0" y="-490.0" type="curve" smooth="yes"/>
      <point x="282.0" y="-490.0"/>
      <point x="400.0" y="-420.0"/>
      <point x="428.0" y="-314.0" type="curve" smooth="yes"/>
      <point x="454.0" y="-214.0"/>
      <point x="398.0" y="-158.0"/>
      <point x="292.0" y="-158.0" type="curve" smooth="yes"/>
      <point x="260.0" y="-158.0"/>
      <point x="234.0" y="-162.0"/>
      <point x="210.0" y="-190.0" type="curve"/>
      <point x="266.0" y="-180.0" type="line"/>
      <point x="398.0" y="18.0" type="line"/>
    </contour>
    <contour>
      <point x="312.0" y="16.0" type="line"/>
      <point x="178.0" y="-190.0" type="line" smooth="yes"/>
      <point x="166.0" y="-208.0"/>
      <point x="184.0" y="-222.0"/>
      <point x="200.0" y="-222.0" type="curve" smooth="yes"/>
      <point x="214.0" y="-222.0"/>
      <point x="230.0" y="-212.0"/>
      <point x="254.0" y="-212.0" type="curve" smooth="yes"/>
      <point x="304.0" y="-212.0"/>
      <point x="324.0" y="-244.0"/>
      <point x="306.0" y="-314.0" type="curve" smooth="yes"/>
      <point x="288.0" y="-380.0"/>
      <point x="242.0" y="-416.0"/>
      <point x="190.0" y="-416.0" type="curve" smooth="yes"/>
      <point x="148.0" y="-416.0"/>
      <point x="128.0" y="-404.0"/>
      <point x="132.0" y="-388.0" type="curve" smooth="yes"/>
      <point x="136.0" y="-374.0" type="line" smooth="yes"/>
      <point x="150.0" y="-318.0"/>
      <point x="130.0" y="-282.0"/>
      <point x="92.0" y="-282.0" type="curve" smooth="yes"/>
      <point x="56.0" y="-282.0"/>
      <point x="16.0" y="-312.0"/>
      <point x="6.0" y="-352.0" type="curve" smooth="yes"/>
      <point x="-16.0" y="-432.0"/>
      <point x="50.0" y="-490.0"/>
      <point x="150.0" y="-490.0" type="curve" smooth="yes"/>
      <point x="282.0" y="-490.0"/>
      <point x="400.0" y="-420.0"/>
      <point x="428.0" y="-314.0" type="curve" smooth="yes"/>
      <point x="454.0" y="-214.0"/>
      <point x="398.0" y="-158.0"/>
      <point x="292.0" y="-158.0" type="curve" smooth="yes"/>
      <point x="260.0" y="-158.0"/>
      <point x="234.0" y="-162.0"/>
      <point x="210.0" y="-190.0" type="curve"/>
      <point x="266.0" y="-180.0" type="line"/>
      <point x="398.0" y="18.0" type="line"/>
    </contour>
  </outline>
</glyph>
<glyph name="threequarters" format="2">
  <advance width="1500"/>
  <unicode hex="00BE"/>
  <outline>
    <contour>
      <point x="1566.0" y="1160.0" type="curve" smooth="yes"/>
      <point x="1600.0" y="1188.0"/>
      <point x="1618.0" y="1214.0"/>
      <point x="1624.0" y="1240.0" type="curve" smooth="yes"/>
      <point x="1632.0" y="1270.0"/>
      <point x="1614.0" y="1300.0"/>
      <point x="1580.0" y="1300.0" type="curve" smooth="yes"/>
      <point x="1550.0" y="1300.0"/>
      <point x="1520.0" y="1286.0"/>
      <point x="1492.0" y="1256.0" type="curve" smooth="yes"/>
      <point x="1342.0" y="1100.0"/>
      <point x="1030.0" y="790.0"/>
      <point x="944.0" y="710.0" type="curve" smooth="yes"/>
      <point x="850.0" y="620.0"/>
      <point x="472.0" y="278.0"/>
      <point x="238.0" y="80.0" type="curve" smooth="yes"/>
      <point x="220.0" y="64.0"/>
      <point x="210.0" y="48.0"/>
      <point x="208.0" y="34.0" type="curve" smooth="yes"/>
      <point x="200.0" y="8.0"/>
      <point x="210.0" y="-32.0"/>
      <point x="262.0" y="-32.0" type="curve" smooth="yes"/>
      <point x="290.0" y="-32.0"/>
      <point x="318.0" y="-24.0"/>
      <point x="350.0" y="10.0" type="curve" smooth="yes"/>
      <point x="536.0" y="198.0"/>
      <point x="856.0" y="528.0"/>
      <point x="992.0" y="656.0" type="curve" smooth="yes"/>
      <point x="1098.0" y="756.0"/>
      <point x="1404.0" y="1024.0"/>
    </contour>
    <contour>
      <point x="586.0" y="964.0" type="line"/>
      <point x="914.0" y="1228.0" type="line" smooth="yes"/>
      <point x="934.0" y="1246.0"/>
      <point x="940.0" y="1258.0"/>
      <point x="942.0" y="1268.0" type="curve" smooth="yes"/>
      <point x="948.0" y="1288.0"/>
      <point x="940.0" y="1302.0"/>
      <point x="914.0" y="1302.0" type="curve" smooth="yes"/>
      <point x="522.0" y="1302.0" type="line" smooth="yes"/>
      <point x="496.0" y="1302.0"/>
      <point x="476.0" y="1280.0"/>
      <point x="466.0" y="1250.0" type="curve" smooth="yes"/>
      <point x="426.0" y="1142.0" type="line" smooth="yes"/>
      <point x="418.0" y="1122.0"/>
      <point x="428.0" y="1110.0"/>
      <point x="440.0" y="1110.0" type="curve" smooth="yes"/>
      <point x="456.0" y="1110.0"/>
      <point x="474.0" y="1124.0"/>
      <point x="484.0" y="1138.0" type="curve" smooth="yes"/>
      <point x="510.0" y="1172.0" type="line" smooth="yes"/>
      <point x="534.0" y="1200.0"/>
      <point x="554.0" y="1210.0"/>
      <point x="586.0" y="1210.0" type="curve" smooth="yes"/>
      <point x="822.0" y="1210.0" type="line"/>
      <point x="832.0" y="1244.0" type="line"/>
      <point x="528.0" y="1002.0" type="line" smooth="yes"/>
      <point x="510.0" y="988.0"/>
      <point x="498.0" y="974.0"/>
      <point x="496.0" y="960.0" type="curve" smooth="yes"/>
      <point x="490.0" y="940.0"/>
      <point x="502.0" y="930.0"/>
      <point x="522.0" y="930.0" type="curve" smooth="yes"/>
      <point x="572.0" y="930.0" type="line" smooth="yes"/>
      <point x="660.0" y="930.0"/>
      <point x="706.0" y="882.0"/>
      <point x="682.0" y="792.0" type="curve" smooth="yes"/>
      <point x="660.0" y="712.0"/>
      <point x="598.0" y="660.0"/>
      <point x="526.0" y="660.0" type="curve" smooth="yes"/>
      <point x="464.0" y="660.0"/>
      <point x="430.0" y="696.0"/>
      <point x="442.0" y="740.0" type="curve" smooth="yes"/>
      <point x="448.0" y="760.0" type="line" smooth="yes"/>
      <point x="458.0" y="802.0"/>
      <point x="434.0" y="832.0"/>
      <point x="392.0" y="832.0" type="curve" smooth="yes"/>
      <point x="356.0" y="832.0"/>
      <point x="316.0" y="798.0"/>
      <point x="304.0" y="754.0" type="curve" smooth="yes"/>
      <point x="280.0" y="662.0"/>
      <point x="346.0" y="590.0"/>
      <point x="494.0" y="590.0" type="curve" smooth="yes"/>
      <point x="640.0" y="590.0"/>
      <point x="776.0" y="678.0"/>
      <point x="812.0" y="814.0" type="curve" smooth="yes"/>
      <point x="846.0" y="940.0"/>
      <point x="766.0" y="1000.0"/>
      <point x="612.0" y="1000.0" type="curve" smooth="yes"/>
      <point x="610.0" y="1000.0"/>
      <point x="584.0" y="1000.0"/>
      <point x="578.0" y="1000.0" type="curve"/>
    </contour>
    <contour>
      <point x="1250.0" y="354.0"/>
      <point x="1238.0" y="336.0"/>
      <point x="1232.0" y="314.0" type="curve" smooth="yes"/>
      <point x="1186.0" y="142.0" type="line" smooth="yes"/>
      <point x="1176.0" y="100.0"/>
      <point x="1148.0" y="78.0"/>
      <point x="1096.0" y="72.0" type="curve" smooth="yes"/>
      <point x="1058.0" y="68.0"/>
      <point x="1040.0" y="56.0"/>
      <point x="1034.0" y="36.0" type="curve" smooth="yes"/>
      <point x="1028.0" y="16.0"/>
      <point x="1040.0" y="4.0"/>
      <point x="1074.0" y="4.0" type="curve" smooth="yes"/>
      <point x="1336.0" y="4.0" type="line" smooth="yes"/>
      <point x="1368.0" y="4.0"/>
      <point x="1384.0" y="16.0"/>
      <point x="1390.0" y="36.0" type="curve" smooth="yes"/>
      <point x="1396.0" y="56.0"/>
      <point x="1382.0" y="64.0"/>
      <point x="1358.0" y="70.0" type="curve" smooth="yes"/>
      <point x="1314.0" y="80.0"/>
      <point x="1298.0" y="98.0"/>
      <point x="1310.0" y="140.0" type="curve" smooth="yes"/>
      <point x="1380.0" y="398.0" type="line" smooth="yes"/>
      <point x="1386.0" y="422.0"/>
      <point x="1380.0" y="432.0"/>
      <point x="1362.0" y="432.0" type="curve" smooth="yes"/>
      <point x="1350.0" y="432.0"/>
      <point x="1338.0" y="426.0"/>
      <point x="1316.0" y="408.0" type="curve" smooth="yes"/>
      <point x="1272.0" y="372.0" type="line" smooth="yes"/>
    </contour>
    <contour>
      <point x="1168.0" y="478.0" type="curve" smooth="yes"/>
      <point x="946.0" y="306.0" type="line" smooth="yes"/>
      <point x="914.0" y="280.0"/>
      <point x="890.0" y="256.0"/>
      <point x="882.0" y="230.0" type="curve" smooth="yes"/>
      <point x="874.0" y="198.0"/>
      <point x="888.0" y="180.0"/>
      <point x="922.0" y="180.0" type="curve" smooth="yes"/>
      <point x="1404.0" y="180.0" type="line" smooth="yes"/>
      <point x="1434.0" y="180.0"/>
      <point x="1452.0" y="192.0"/>
      <point x="1458.0" y="218.0" type="curve" smooth="yes"/>
      <point x="1466.0" y="246.0"/>
      <point x="1452.0" y="256.0"/>
      <point x="1424.0" y="256.0" type="curve" smooth="yes"/>
      <point x="936.0" y="256.0" type="line"/>
      <point x="952.0" y="222.0" type="line"/>
      <point x="1304.0" y="496.0" type="line" smooth="yes"/>
      <point x="1354.0" y="534.0"/>
      <point x="1382.0" y="570.0"/>
      <point x="1392.0" y="608.0" type="curve" smooth="yes"/>
      <point x="1404.0" y="658.0"/>
      <point x="1378.0" y="694.0"/>
      <point x="1324.0" y="694.0" type="curve" smooth="yes"/>
      <point x="1270.0" y="694.0"/>
      <point x="1220.0" y="652.0"/>
      <point x="1212.0" y="616.0" type="curve" smooth="yes"/>
      <point x="1202.0" y="582.0"/>
      <point x="1218.0" y="562.0"/>
      <point x="1212.0" y="534.0" type="curve" smooth="yes"/>
      <point x="1206.0" y="512.0"/>
      <point x="1194.0" y="496.0"/>
    </contour>
  </outline>
</glyph>
<glyph name="questiondown" format="2">
  <advance width="862"/>
  <unicode hex="00BF"/>
  <outline>
    <contour>
      <point x="540.0" y="216.0" type="curve" smooth="yes"/>
      <point x="366.0" y="120.0"/>
      <point x="284.0" y="28.0"/>
      <point x="250.0" y="-144.0" type="curve" smooth="yes"/>
      <point x="216.0" y="-314.0"/>
      <point x="286.0" y="-416.0"/>
      <point x="406.0" y="-416.0" type="curve" smooth="yes"/>
      <point x="506.0" y="-416.0"/>
      <point x="570.0" y="-368.0"/>
      <point x="590.0" y="-286.0" type="curve" smooth="yes"/>
      <point x="610.0" y="-202.0" type="line" smooth="yes"/>
      <point x="626.0" y="-132.0"/>
      <point x="682.0" y="-90.0"/>
      <point x="740.0" y="-90.0" type="curve" smooth="yes"/>
      <point x="786.0" y="-90.0"/>
      <point x="814.0" y="-126.0"/>
      <point x="814.0" y="-186.0" type="curve" smooth="yes"/>
      <point x="814.0" y="-318.0"/>
      <point x="600.0" y="-490.0"/>
      <point x="356.0" y="-490.0" type="curve" smooth="yes"/>
      <point x="134.0" y="-490.0"/>
      <point x="12.0" y="-360.0"/>
      <point x="56.0" y="-146.0" type="curve" smooth="yes"/>
      <point x="86.0" y="-4.0"/>
      <point x="160.0" y="90.0"/>
      <point x="352.0" y="200.0" type="curve" smooth="yes"/>
      <point x="536.0" y="306.0"/>
      <point x="602.0" y="378.0"/>
      <point x="624.0" y="492.0" type="curve" smooth="yes"/>
      <point x="630.0" y="522.0"/>
      <point x="648.0" y="540.0"/>
      <point x="672.0" y="540.0" type="curve" smooth="yes"/>
      <point x="714.0" y="540.0"/>
      <point x="746.0" y="502.0"/>
      <point x="746.0" y="440.0" type="curve" smooth="yes"/>
      <point x="746.0" y="364.0"/>
      <point x="688.0" y="298.0"/>
    </contour>
    <contour>
      <point x="812.1" y="963.99" type="curve" smooth="yes"/>
      <point x="733.7280000000001" y="963.99"/>
      <point x="634.83" y="838.6347857142857"/>
      <point x="634.83" y="717.678" type="curve" smooth="yes"/>
      <point x="634.83" y="672.894"/>
      <point x="668.418" y="641.172"/>
      <point x="709.47" y="641.172" type="curve" smooth="yes"/>
      <point x="793.44" y="641.172"/>
      <point x="888.606" y="773.304972972973"/>
      <point x="888.606" y="885.618" type="curve" smooth="yes"/>
      <point x="888.606" y="930.402"/>
      <point x="855.018" y="963.99"/>
    </contour>
  </outline>
</glyph>
<glyph name="Ccedilla" format="2">
  <advance width="1272"/>
  <unicode hex="00C7"/>
  <outline>
    <contour>
      <point x="1296.0" y="364.0" type="curve" smooth="yes"/>
      <point x="1296.0" y="392.0"/>
      <point x="1284.0" y="406.0"/>
      <point x="1264.0" y="406.0" type="curve" smooth="yes"/>
      <point x="1240.4285714285713" y="406.0"/>
      <point x="1226.1195502189541" y="385.2420069877993"/>
      <point x="1198.0" y="344.0" type="curve" smooth="yes"/>
      <point x="1090.4306405935886" y="185.69037672263977"/>
      <point x="970.1827411167512" y="126.0"/>
      <point x="790.0" y="126.0" type="curve" smooth="yes"/>
      <point x="603.7142857142858" y="126.0"/>
      <point x="464.0" y="292.69767441860466"/>
      <point x="464.0" y="574.0" type="curve" smooth="yes"/>
      <point x="464.0" y="958.860824742268"/>
      <point x="728.0" y="1332.0"/>
      <point x="1028.0" y="1332.0" type="curve" smooth="yes"/>
      <point x="1176.0" y="1332.0"/>
      <point x="1242.0" y="1282.0"/>
      <point x="1306.0" y="1166.0" type="curve" smooth="yes"/>
      <point x="1356.0" y="1076.0" type="line" smooth="yes"/>
      <point x="1372.0" y="1046.0"/>
      <point x="1388.0" y="1024.0"/>
      <point x="1416.0" y="1024.0" type="curve" smooth="yes"/>
      <point x="1442.0" y="1024.0"/>
      <point x="1462.0" y="1040.0"/>
      <point x="1460.0" y="1080.0" type="curve" smooth="yes"/>
      <point x="1450.0" y="1358.0" type="line" smooth="yes"/>
      <point x="1448.0" y="1398.0"/>
      <point x="1430.0" y="1422.0"/>
      <point x="1400.0" y="1422.0" type="curve" smooth="yes"/>
      <point x="1366.0" y="1422.0"/>
      <point x="1338.0" y="1370.0"/>
      <point x="1300.0" y="1370.0" type="curve" smooth="yes"/>
      <point x="1252.0" y="1370.0"/>
      <point x="1168.0" y="1430.0"/>
      <point x="1042.0" y="1430.0" type="curve" smooth="yes"/>
      <point x="622.0" y="1430.0"/>
      <point x="248.0" y="947.1111111111111"/>
      <point x="248.0" y="476.0" type="curve" smooth="yes"/>
      <point x="248.0" y="173.22950819672133"/>
      <point x="423.56756756756755" y="-30.0"/>
      <point x="696.0" y="-30.0" type="curve" smooth="yes"/>
      <point x="984.0068728522338" y="-30.0"/>
      <point x="1198.0939571862416" y="124.20027716014636"/>
      <point x="1274.0" y="286.0" type="curve" smooth="yes"/>
      <point x="1290.0" y="320.0"/>
      <point x="1296.0" y="340.0"/>
    </contour>
    <contour>
      <point x="736.0" y="16.0" type="line"/>
      <point x="602.0" y="-190.0" type="line" smooth="yes"/>
      <point x="590.0" y="-208.0"/>
      <point x="608.0" y="-222.0"/>
      <point x="624.0" y="-222.0" type="curve" smooth="yes"/>
      <point x="638.0" y="-222.0"/>
      <point x="654.0" y="-212.0"/>
      <point x="678.0" y="-212.0" type="curve" smooth="yes"/>
      <point x="728.0" y="-212.0"/>
      <point x="748.0" y="-244.0"/>
      <point x="730.0" y="-314.0" type="curve" smooth="yes"/>
      <point x="712.0" y="-380.0"/>
      <point x="666.0" y="-416.0"/>
      <point x="614.0" y="-416.0" type="curve" smooth="yes"/>
      <point x="572.0" y="-416.0"/>
      <point x="552.0" y="-404.0"/>
      <point x="556.0" y="-388.0" type="curve" smooth="yes"/>
      <point x="560.0" y="-374.0" type="line" smooth="yes"/>
      <point x="574.0" y="-318.0"/>
      <point x="554.0" y="-282.0"/>
      <point x="516.0" y="-282.0" type="curve" smooth="yes"/>
      <point x="480.0" y="-282.0"/>
      <point x="440.0" y="-312.0"/>
      <point x="430.0" y="-352.0" type="curve" smooth="yes"/>
      <point x="408.0" y="-432.0"/>
      <point x="474.0" y="-490.0"/>
      <point x="574.0" y="-490.0" type="curve" smooth="yes"/>
      <point x="706.0" y="-490.0"/>
      <point x="824.0" y="-420.0"/>
      <point x="852.0" y="-314.0" type="curve" smooth="yes"/>
      <point x="878.0" y="-214.0"/>
      <point x="822.0" y="-158.0"/>
      <point x="716.0" y="-158.0" type="curve" smooth="yes"/>
      <point x="684.0" y="-158.0"/>
      <point x="658.0" y="-162.0"/>
      <point x="634.0" y="-190.0" type="curve"/>
      <point x="690.0" y="-180.0" type="line"/>
      <point x="822.0" y="18.0" type="line"/>
    </contour>
  </outline>
</glyph>
<glyph name="Odieresis" format="2">
  <advance width="1500"/>
  <unicode hex="00D6"/>
  <outline>
    <contour>
      <point x="1122.0" y="1428.0" type="curve" smooth="yes"/>
      <point x="720.0" y="1428.0"/>
      <point x="406.0" y="1146.0"/>
      <point x="294.0" y="724.0" type="curve" smooth="yes"/>
      <point x="176.0" y="280.0"/>
      <point x="414.0" y="-30.0"/>
      <point x="718.0" y="-30.0" type="curve" smooth="yes"/>
      <point x="1094.0" y="-30.0"/>
      <point x="1450.0" y="216.0"/>
      <point x="1566.0" y="706.0" type="curve" smooth="yes"/>
      <point x="1662.0" y="1114.0"/>
      <point x="1442.0" y="1428.0"/>
    </contour>
    <contour>
      <point x="1200.0" y="250.0"/>
      <point x="978.0" y="76.0"/>
      <point x="768.0" y="76.0" type="curve" smooth="yes"/>
      <point x="562.0" y="76.0"/>
      <point x="426.0" y="284.0"/>
      <point x="526.0" y="718.0" type="curve" smooth="yes"/>
      <point x="612.0" y="1090.0"/>
      <point x="840.0" y="1334.0"/>
      <point x="1076.0" y="1334.0" type="curve" smooth="yes"/>
      <point x="1286.0" y="1334.0"/>
      <point x="1444.0" y="1098.0"/>
      <point x="1330.0" y="700.0" type="curve" smooth="yes"/>
    </contour>
    <contour>
      <point x="972.3956797148898" y="1590.5117499999997" type="curve" smooth="yes"/>
      <point x="1050.0116797148899" y="1590.5117499999997"/>
      <point x="1147.9556797148898" y="1692.3165999999999"/>
      <point x="1147.9556797148898" y="1790.54935" type="curve" smooth="yes"/>
      <point x="1147.9556797148898" y="1833.41455"/>
      <point x="1114.6916797148897" y="1863.7774"/>
      <point x="1074.0356797148897" y="1863.7774" type="curve" smooth="yes"/>
      <point x="990.8756797148898" y="1863.7774"/>
      <point x="896.6276797148897" y="1756.6144"/>
      <point x="896.6276797148897" y="1665.52585" type="curve" smooth="yes"/>
      <point x="896.6276797148897" y="1622.6606499999998"/>
      <point x="929.8916797148897" y="1590.5117499999997"/>
    </contour>
    <contour>
      <point x="972.3956797148898" y="1590.5117499999997" type="curve" smooth="yes"/>
      <point x="1050.0116797148899" y="1590.5117499999997"/>
      <point x="1147.9556797148898" y="1692.3165999999999"/>
      <point x="1147.9556797148898" y="1790.54935" type="curve" smooth="yes"/>
      <point x="1147.9556797148898" y="1833.41455"/>
      <point x="1114.6916797148897" y="1863.7774"/>
      <point x="1074.0356797148897" y="1863.7774" type="curve" smooth="yes"/>
      <point x="990.8756797148898" y="1863.7774"/>
      <point x="896.6276797148897" y="1756.6144"/>
      <point x="896.6276797148897" y="1665.52585" type="curve" smooth="yes"/>
      <point x="896.6276797148897" y="1622.6606499999998"/>
      <point x="929.8916797148897" y="1590.5117499999997"/>
    </contour>
    <contour>
      <point x="1365.0956797148897" y="1590.5117499999997" type="curve" smooth="yes"/>
      <point x="1442.7116797148897" y="1590.5117499999997"/>
      <point x="1540.6556797148899" y="1692.3165999999999"/>
      <point x="1540.6556797148899" y="1790.54935" type="curve" smooth="yes"/>
      <point x="1540.6556797148899" y="1833.41455"/>
      <point x="1507.3916797148897" y="1863.7774"/>
      <point x="1466.73567971489" y="1863.7774" type="curve" smooth="yes"/>
      <point x="1383.5756797148897" y="1863.7774"/>
      <point x="1289.3276797148897" y="1756.6144"/>
      <point x="1289.3276797148897" y="1665.52585" type="curve" smooth="yes"/>
      <point x="1289.3276797148897" y="1622.6606499999998"/>
      <point x="1322.5916797148898" y="1590.5117499999997"/>
    </contour>
    <contour>
      <point x="1365.0956797148897" y="1590.5117499999997" type="curve" smooth="yes"/>
      <point x="1442.7116797148897" y="1590.5117499999997"/>
      <point x="1540.6556797148899" y="1692.3165999999999"/>
      <point x="1540.6556797148899" y="1790.54935" type="curve" smooth="yes"/>
      <point x="1540.6556797148899" y="1833.41455"/>
      <point x="1507.3916797148897" y="1863.7774"/>
      <point x="1466.73567971489" y="1863.7774" type="curve" smooth="yes"/>
      <point x="1383.5756797148897" y="1863.7774"/>
      <point x="1289.3276797148897" y="1756.6144"/>
      <point x="1289.3276797148897" y="1665.52585" type="curve" smooth="yes"/>
      <point x="1289.3276797148897" y="1622.6606499999998"/>
      <point x="1322.5916797148898" y="1590.5117499999997"/>
    </contour>
    <contour>
      <point x="972.3956797148898" y="1590.5117499999997" type="curve" smooth="yes"/>
      <point x="1050.0116797148899" y="1590.5117499999997"/>
      <point x="1147.9556797148898" y="1692.3165999999999"/>
      <point x="1147.9556797148898" y="1790.54935" type="curve" smooth="yes"/>
      <point x="1147.9556797148898" y="1833.41455"/>
      <point x="1114.6916797148897" y="1863.7774"/>
      <point x="1074.0356797148897" y="1863.7774" type="curve" smooth="yes"/>
      <point x="990.8756797148898" y="1863.7774"/>
      <point x="896.6276797148897" y="1756.6144"/>
      <point x="896.6276797148897" y="1665.52585" type="curve" smooth="yes"/>
      <point x="896.6276797148897" y="1622.6606499999998"/>
      <point x="929.8916797148897" y="1590.5117499999997"/>
    </contour>
    <contour>
      <point x="972.3956797148898" y="1590.5117499999997" type="curve" smooth="yes"/>
      <point x="1050.0116797148899" y="1590.5117499999997"/>
      <point x="1147.9556797148898" y="1692.3165999999999"/>
      <point x="1147.9556797148898" y="1790.54935" type="curve" smooth="yes"/>
      <point x="1147.9556797148898" y="1833.41455"/>
      <point x="1114.6916797148897" y="1863.7774"/>
      <point x="1074.0356797148897" y="1863.7774" type="curve" smooth="yes"/>
      <point x="990.8756797148898" y="1863.7774"/>
      <point x="896.6276797148897" y="1756.6144"/>
      <point x="896.6276797148897" y="1665.52585" type="curve" smooth="yes"/>
      <point x="896.6276797148897" y="1622.6606499999998"/>
      <point x="929.8916797148897" y="1590.5117499999997"/>
    </contour>
    <contour>
      <point x="1365.0956797148897" y="1590.5117499999997" type="curve" smooth="yes"/>
      <point x="1442.7116797148897" y="1590.5117499999997"/>
      <point x="1540.6556797148899" y="1692.3165999999999"/>
      <point x="1540.6556797148899" y="1790.54935" type="curve" smooth="yes"/>
      <point x="1540.6556797148899" y="1833.41455"/>
      <point x="1507.3916797148897" y="1863.7774"/>
      <point x="1466.73567971489" y="1863.7774" type="curve" smooth="yes"/>
      <point x="1383.5756797148897" y="1863.7774"/>
      <point x="1289.3276797148897" y="1756.6144"/>
      <point x="1289.3276797148897" y="1665.52585" type="curve" smooth="yes"/>
      <point x="1289.3276797148897" y="1622.6606499999998"/>
      <point x="1322.5916797148898" y="1590.5117499999997"/>
    </contour>
    <contour>
      <point x="1365.0956797148897" y="1590.5117499999997" type="curve" smooth="yes"/>
      <point x="1442.7116797148897" y="1590.5117499999997"/>
      <point x="1540.6556797148899" y="1692.3165999999999"/>
      <point x="1540.6556797148899" y="1790.54935" type="curve" smooth="yes"/>
      <point x="1540.6556797148899" y="1833.41455"/>
      <point x="1507.3916797148897" y="1863.7774"/>
      <point x="1466.73567971489" y="1863.7774" type="curve" smooth="yes"/>
      <point x="1383.5756797148897" y="1863.7774"/>
      <point x="1289.3276797148897" y="1756.6144"/>
      <point x="1289.3276797148897" y="1665.52585" type="curve" smooth="yes"/>
      <point x="1289.3276797148897" y="1622.6606499999998"/>
      <point x="1322.5916797148898" y="1590.5117499999997"/>
    </contour>
    <contour>
      <point x="972.3956797148898" y="1590.5117499999997" type="curve" smooth="yes"/>
      <point x="1050.0116797148899" y="1590.5117499999997"/>
      <point x="1147.9556797148898" y="1692.3165999999999"/>
      <point x="1147.9556797148898" y="1790.54935" type="curve" smooth="yes"/>
      <point x="1147.9556797148898" y="1833.41455"/>
      <point x="1114.6916797148897" y="1863.7774"/>
      <point x="1074.0356797148897" y="1863.7774" type="curve" smooth="yes"/>
      <point x="990.8756797148898" y="1863.7774"/>
      <point x="896.6276797148897" y="1756.6144"/>
      <point x="896.6276797148897" y="1665.52585" type="curve" smooth="yes"/>
      <point x="896.6276797148897" y="1622.6606499999998"/>
      <point x="929.8916797148897" y="1590.5117499999997"/>
    </contour>
    <contour>
      <point x="972.3956797148898" y="1590.5117499999997" type="curve" smooth="yes"/>
      <point x="1050.0116797148899" y="1590.5117499999997"/>
      <point x="1147.9556797148898" y="1692.3165999999999"/>
      <point x="1147.9556797148898" y="1790.54935" type="curve" smooth="yes"/>
      <point x="1147.9556797148898" y="1833.41455"/>
      <point x="1114.6916797148897" y="1863.7774"/>
      <point x="1074.0356797148897" y="1863.7774" type="curve" smooth="yes"/>
      <point x="990.8756797148898" y="1863.7774"/>
      <point x="896.6276797148897" y="1756.6144"/>
      <point x="896.6276797148897" y="1665.52585" type="curve" smooth="yes"/>
      <point x="896.6276797148897" y="1622.6606499999998"/>
      <point x="929.8916797148897" y="1590.5117499999997"/>
    </contour>
    <contour>
      <point x="1365.0956797148897" y="1590.5117499999997" type="curve" smooth="yes"/>
      <point x="1442.7116797148897" y="1590.5117499999997"/>
      <point x="1540.6556797148899" y="1692.3165999999999"/>
      <point x="1540.6556797148899" y="1790.54935" type="curve" smooth="yes"/>
      <point x="1540.6556797148899" y="1833.41455"/>
      <point x="1507.3916797148897" y="1863.7774"/>
      <point x="1466.73567971489" y="1863.7774" type="curve" smooth="yes"/>
      <point x="1383.5756797148897" y="1863.7774"/>
      <point x="1289.3276797148897" y="1756.6144"/>
      <point x="1289.3276797148897" y="1665.52585" type="curve" smooth="yes"/>
      <point x="1289.3276797148897" y="1622.6606499999998"/>
      <point x="1322.5916797148898" y="1590.5117499999997"/>
    </contour>
    <contour>
      <point x="1365.0956797148897" y="1590.5117499999997" type="curve" smooth="yes"/>
      <point x="1442.7116797148897" y="1590.5117499999997"/>
      <point x="1540.6556797148899" y="1692.3165999999999"/>
      <point x="1540.6556797148899" y="1790.54935" type="curve" smooth="yes"/>
      <point x="1540.6556797148899" y="1833.41455"/>
      <point x="1507.3916797148897" y="1863.7774"/>
      <point x="1466.73567971489" y="1863.7774" type="curve" smooth="yes"/>
      <point x="1383.5756797148897" y="1863.7774"/>
      <point x="1289.3276797148897" y="1756.6144"/>
      <point x="1289.3276797148897" y="1665.52585" type="curve" smooth="yes"/>
      <point x="1289.3276797148897" y="1622.6606499999998"/>
      <point x="1322.5916797148898" y="1590.5117499999997"/>
    </contour>
    <contour>
      <point x="972.3956797148898" y="1590.5117499999997" type="curve" smooth="yes"/>
      <point x="1050.0116797148899" y="1590.5117499999997"/>
      <point x="1147.9556797148898" y="1692.3165999999999"/>
      <point x="1147.9556797148898" y="1790.54935" type="curve" smooth="yes"/>
      <point x="1147.9556797148898" y="1833.41455"/>
      <point x="1114.6916797148897" y="1863.7774"/>
      <point x="1074.0356797148897" y="1863.7774" type="curve" smooth="yes"/>
      <point x="990.8756797148898" y="1863.7774"/>
      <point x="896.6276797148897" y="1756.6144"/>
      <point x="896.6276797148897" y="1665.52585" type="curve" smooth="yes"/>
      <point x="896.6276797148897" y="1622.6606499999998"/>
      <point x="929.8916797148897" y="1590.5117499999997"/>
    </contour>
    <contour>
      <point x="972.3956797148898" y="1590.5117499999997" type="curve" smooth="yes"/>
      <point x="1050.0116797148899" y="1590.5117499999997"/>
      <point x="1147.9556797148898" y="1692.3165999999999"/>
      <point x="1147.9556797148898" y="1790.54935" type="curve" smooth="yes"/>
      <point x="1147.9556797148898" y="1833.41455"/>
      <point x="1114.6916797148897" y="1863.7774"/>
      <point x="1074.0356797148897" y="1863.7774" type="curve" smooth="yes"/>
      <point x="990.8756797148898" y="1863.7774"/>
      <point x="896.6276797148897" y="1756.6144"/>
      <point x="896.6276797148897" y="1665.52585" type="curve" smooth="yes"/>
      <point x="896.6276797148897" y="1622.6606499999998"/>
      <point x="929.8916797148897" y="1590.5117499999997"/>
    </contour>
    <contour>
      <point x="1365.0956797148897" y="1590.5117499999997" type="curve" smooth="yes"/>
      <point x="1442.7116797148897" y="1590.5117499999997"/>
      <point x="1540.6556797148899" y="1692.3165999999999"/>
      <point x="1540.6556797148899" y="1790.54935" type="curve" smooth="yes"/>
      <point x="1540.6556797148899" y="1833.41455"/>
      <point x="1507.3916797148897" y="1863.7774"/>
      <point x="1466.73567971489" y="1863.7774" type="curve" smooth="yes"/>
      <point x="1383.5756797148897" y="1863.7774"/>
      <point x="1289.3276797148897" y="1756.6144"/>
      <point x="1289.3276797148897" y="1665.52585" type="curve" smooth="yes"/>
      <point x="1289.3276797148897" y="1622.6606499999998"/>
      <point x="1322.5916797148898" y="1590.5117499999997"/>
    </contour>
    <contour>
      <point x="1365.0956797148897" y="1590.5117499999997" type="curve" smooth="yes"/>
      <point x="1442.7116797148897" y="1590.5117499999997"/>
      <point x="1540.6556797148899" y="1692.3165999999999"/>
      <point x="1540.6556797148899" y="1790.54935" type="curve" smooth="yes"/>
      <point x="1540.6556797148899" y="1833.41455"/>
      <point x="1507.3916797148897" y="1863.7774"/>
      <point x="1466.73567971489" y="1863.7774" type="curve" smooth="yes"/>
      <point x="1383.5756797148897" y="1863.7774"/>
      <point x="1289.3276797148897" y="1756.6144"/>
      <point x="1289.3276797148897" y="1665.52585" type="curve" smooth="yes"/>
      <point x="1289.3276797148897" y="1622.6606499999998"/>
      <point x="1322.5916797148898" y="1590.5117499999997"/>
    </contour>
  </outline>
</glyph>
<glyph name="multiply" format="2">
  <advance width="866"/>
  <unicode hex="00D7"/>
  <outline>
    <contour>
      <point x="212.0" y="304.0" type="curve" smooth="yes"/>
      <point x="228.0" y="278.0"/>
      <point x="274.0" y="282.0"/>
      <point x="310.0" y="310.0" type="curve" smooth="yes"/>
      <point x="420.0" y="396.0"/>
      <point x="534.0" y="518.0"/>
      <point x="616.0" y="584.0" type="curve" smooth="yes"/>
      <point x="702.0" y="652.0"/>
      <point x="840.0" y="730.0"/>
      <point x="944.0" y="810.0" type="curve" smooth="yes"/>
      <point x="984.0" y="842.0"/>
      <point x="994.0" y="882.0"/>
      <point x="974.0" y="906.0" type="curve" smooth="yes"/>
      <point x="956.0" y="934.0"/>
      <point x="912.0" y="934.0"/>
      <point x="876.0" y="904.0" type="curve" smooth="yes"/>
      <point x="772.0" y="824.0"/>
      <point x="662.0" y="704.0"/>
      <point x="576.0" y="638.0" type="curve" smooth="yes"/>
      <point x="482.0" y="562.0"/>
      <point x="350.0" y="490.0"/>
      <point x="242.0" y="404.0" type="curve" smooth="yes"/>
      <point x="210.0" y="378.0"/>
      <point x="190.0" y="330.0"/>
    </contour>
    <contour>
      <point x="822.0" y="308.0" type="curve" smooth="yes"/>
      <point x="854.0" y="334.0"/>
      <point x="862.0" y="378.0"/>
      <point x="842.0" y="404.0" type="curve" smooth="yes"/>
      <point x="778.0" y="494.0"/>
      <point x="678.0" y="574.0"/>
      <point x="630.0" y="640.0" type="curve" smooth="yes"/>
      <point x="582.0" y="706.0"/>
      <point x="536.0" y="824.0"/>
      <point x="474.0" y="906.0" type="curve" smooth="yes"/>
      <point x="452.0" y="936.0"/>
      <point x="412.0" y="936.0"/>
      <point x="380.0" y="912.0" type="curve" smooth="yes"/>
      <point x="346.0" y="884.0"/>
      <point x="336.0" y="842.0"/>
      <point x="358.0" y="812.0" type="curve" smooth="yes"/>
      <point x="416.0" y="732.0"/>
      <point x="514.0" y="652.0"/>
      <point x="564.0" y="586.0" type="curve" smooth="yes"/>
      <point x="616.0" y="510.0"/>
      <point x="660.0" y="398.0"/>
      <point x="722.0" y="312.0" type="curve" smooth="yes"/>
      <point x="742.0" y="288.0"/>
      <point x="788.0" y="282.0"/>
    </contour>
  </outline>
</glyph>
<glyph name="Thorn" format="2">
  <advance width="1264"/>
  <unicode hex="00DE"/>
  <outline>
    <contour>
      <point x="916.0" y="1090.0" type="curve" smooth="yes"/>
      <point x="1078.0" y="1090.0"/>
      <point x="1206.0" y="956.0"/>
      <point x="1206.0" y="752.0" type="curve" smooth="yes"/>
      <point x="1206.0" y="482.0"/>
      <point x="1018.0" y="316.0"/>
      <point x="810.0" y="316.0" type="curve" smooth="yes"/>
      <point x="664.0" y="316.0"/>
      <point x="604.0" y="360.0"/>
      <point x="534.0" y="406.0" type="curve"/>
      <point x="494.0" y="330.0" type="line"/>
      <point x="586.0" y="270.0"/>
      <point x="664.0" y="212.0"/>
      <point x="872.0" y="212.0" type="curve" smooth="yes"/>
      <point x="1172.0" y="212.0"/>
      <point x="1416.0" y="422.0"/>
      <point x="1416.0" y="742.0" type="curve" smooth="yes"/>
      <point x="1416.0" y="1014.0"/>
      <point x="1242.0" y="1180.0"/>
      <point x="966.0" y="1180.0" type="curve" smooth="yes"/>
      <point x="782.0" y="1180.0"/>
      <point x="668.0" y="1104.0"/>
      <point x="668.0" y="1104.0" type="curve"/>
      <point x="678.0" y="1022.0" type="line"/>
      <point x="730.0" y="1058.0"/>
      <point x="810.0" y="1090.0"/>
    </contour>
    <contour>
      <point x="542.0" y="184.0" type="curve" smooth="yes"/>
      <point x="620.0" y="592.0"/>
      <point x="700.0" y="914.0"/>
      <point x="814.0" y="1214.0" type="curve" smooth="yes"/>
      <point x="834.0" y="1266.0"/>
      <point x="856.0" y="1294.0"/>
      <point x="902.0" y="1304.0" type="curve" smooth="yes"/>
      <point x="956.0" y="1316.0" type="line" smooth="yes"/>
      <point x="1002.0" y="1326.0"/>
      <point x="1024.0" y="1340.0"/>
      <point x="1024.0" y="1366.0" type="curve" smooth="yes"/>
      <point x="1024.0" y="1390.0"/>
      <point x="1013.3333333333334" y="1400.0"/>
      <point x="976.0" y="1400.0" type="curve" smooth="yes"/>
      <point x="520.0" y="1400.0" type="line" smooth="yes"/>
      <point x="478.0" y="1400.0"/>
      <point x="454.0" y="1385.2631578947369"/>
      <point x="454.0" y="1360.0" type="curve" smooth="yes"/>
      <point x="454.0" y="1337.0434782608695"/>
      <point x="468.76179172226534" y="1324.149097811583"/>
      <point x="500.0" y="1316.0" type="curve" smooth="yes"/>
      <point x="546.0" y="1304.0" type="line" smooth="yes"/>
      <point x="584.0" y="1294.0"/>
      <point x="596.0" y="1268.0"/>
      <point x="586.0" y="1214.0" type="curve" smooth="yes"/>
      <point x="530.0" y="892.0"/>
      <point x="442.0" y="552.0"/>
      <point x="314.0" y="184.0" type="curve" smooth="yes"/>
      <point x="296.0" y="134.0"/>
      <point x="272.0" y="106.0"/>
      <point x="226.0" y="96.0" type="curve" smooth="yes"/>
      <point x="174.0" y="84.0" type="line" smooth="yes"/>
      <point x="123.51924631044875" y="72.35059530241125"/>
      <point x="106.0" y="56.869565217391305"/>
      <point x="106.0" y="32.0" type="curve" smooth="yes"/>
      <point x="106.0" y="11.789473684210527"/>
      <point x="122.0" y="0.0"/>
      <point x="158.0" y="0.0" type="curve" smooth="yes"/>
      <point x="610.0" y="0.0" type="line" smooth="yes"/>
      <point x="648.0" y="0.0"/>
      <point x="674.0" y="15.473684210526319"/>
      <point x="674.0" y="42.0" type="curve" smooth="yes"/>
      <point x="674.0" y="65.73913043478261"/>
      <point x="661.8430488809903" y="76.03923777975241"/>
      <point x="630.0" y="84.0" type="curve" smooth="yes"/>
      <point x="582.0" y="96.0" type="line" smooth="yes"/>
      <point x="544.0" y="106.0"/>
      <point x="532.0" y="132.0"/>
    </contour>
  </outline>
</glyph>
<glyph name="acircumflex" format="2">
  <advance width="1030"/>
  <unicode hex="00E2"/>
  <outline>
    <contour>
      <point x="916.0" y="196.0" type="curve" smooth="yes"/>
      <point x="911.7062032734218" y="266.84764598854093"/>
      <point x="934.0" y="406.0"/>
      <point x="990.0" y="664.0" type="curve" smooth="yes"/>
      <point x="998.495876731605" y="700.1074761093212"/>
      <point x="1010.0" y="742.0"/>
      <point x="1030.0" y="766.0" type="curve" smooth="yes"/>
      <point x="1052.0" y="794.0"/>
      <point x="1068.0" y="812.0526315789474"/>
      <point x="1068.0" y="836.0" type="curve" smooth="yes"/>
      <point x="1068.0" y="915.2786885245902"/>
      <point x="974.0" y="960.0"/>
      <point x="838.0" y="960.0" type="curve" smooth="yes"/>
      <point x="492.0" y="960.0"/>
      <point x="162.0" y="550.0"/>
      <point x="162.0" y="182.0" type="curve" smooth="yes"/>
      <point x="162.0" y="30.0"/>
      <point x="236.0" y="-30.0"/>
      <point x="338.0" y="-30.0" type="curve" smooth="yes"/>
      <point x="492.0" y="-30.0"/>
      <point x="684.0" y="96.00000000000006"/>
      <point x="818.0" y="390.0" type="curve"/>
      <point x="784.0" y="398.0" type="line"/>
      <point x="790.0" y="274.0"/>
      <point x="744.0" y="160.0"/>
      <point x="748.0" y="68.0" type="curve" smooth="yes"/>
      <point x="752.0" y="10.0"/>
      <point x="796.0" y="-32.0"/>
      <point x="874.0" y="-32.0" type="curve" smooth="yes"/>
      <point x="990.0" y="-32.0"/>
      <point x="1072.0" y="82.0"/>
      <point x="1070.0" y="162.0" type="curve" smooth="yes"/>
      <point x="1070.0" y="190.0"/>
      <point x="1058.0" y="200.0"/>
      <point x="1042.0" y="200.0" type="curve" smooth="yes"/>
      <point x="1022.0" y="200.0"/>
      <point x="1014.0" y="188.0"/>
      <point x="1000.0" y="166.0" type="curve" smooth="yes"/>
      <point x="984.0" y="140.0"/>
      <point x="966.0" y="126.0"/>
      <point x="948.0" y="126.0" type="curve" smooth="yes"/>
      <point x="926.0" y="126.0"/>
      <point x="918.0" y="158.0"/>
    </contour>
    <contour>
      <point x="332.0" y="294.0" type="curve" smooth="yes"/>
      <point x="332.0" y="558.0"/>
      <point x="530.0" y="824.0"/>
      <point x="726.0" y="824.0" type="curve" smooth="yes"/>
      <point x="806.0" y="824.0"/>
      <point x="846.0" y="772.0"/>
      <point x="846.0" y="684.0" type="curve" smooth="yes"/>
      <point x="846.0" y="486.0"/>
      <point x="626.0" y="122.0"/>
      <point x="456.0" y="122.0" type="curve" smooth="yes"/>
      <point x="390.0" y="122.0"/>
      <point x="332.0" y="162.0"/>
    </contour>
    <contour>
      <point x="628.9768612456419" y="1142.0" type="curve" smooth="yes"/>
      <point x="794.9768612456419" y="1298.0" type="line" smooth="yes"/>
      <point x="844.9768612456419" y="1346.0"/>
      <point x="880.9768612456419" y="1366.0"/>
      <point x="926.9768612456419" y="1366.0" type="curve" smooth="yes"/>
      <point x="968.9768612456419" y="1366.0"/>
      <point x="996.9768612456419" y="1346.0"/>
      <point x="1020.9768612456419" y="1300.0" type="curve" smooth="yes"/>
      <point x="1104.9768612456419" y="1142.0" type="line" smooth="yes"/>
      <point x="1110.9768612456419" y="1128.0"/>
      <point x="1120.9768612456419" y="1108.0"/>
      <point x="1116.9768612456419" y="1090.0" type="curve" smooth="yes"/>
      <point x="1110.9768612456419" y="1068.0"/>
      <point x="1096.9768612456419" y="1058.0"/>
      <point x="1072.9768612456419" y="1058.0" type="curve" smooth="yes"/>
      <point x="1056.9768612456419" y="1058.0"/>
      <point x="1042.9768612456419" y="1070.0"/>
      <point x="1018.9768612456419" y="1092.0" type="curve" smooth="yes"/>
      <point x="852.9768612456419" y="1252.0" type="line"/>
      <point x="940.9768612456419" y="1252.0" type="line"/>
      <point x="686.9768612456419" y="1092.0" type="line" smooth="yes"/>
      <point x="650.9768612456419" y="1070.0"/>
      <point x="632.9768612456419" y="1058.0"/>
      <point x="616.9768612456419" y="1058.0" type="curve" smooth="yes"/>
      <point x="592.9768612456419" y="1058.0"/>
      <point x="582.9768612456419" y="1068.0"/>
      <point x="588.9768612456419" y="1090.0" type="curve" smooth="yes"/>
      <point x="592.9768612456419" y="1108.0"/>
      <point x="614.9768612456419" y="1128.0"/>
    </contour>
  </outline>
</glyph>
<glyph name="atilde" format="2">
  <advance width="1030"/>
  <unicode hex="00E3"/>
  <outline>
    <contour>
      <point x="916.0" y="196.0" type="curve" smooth="yes"/>
      <point x="911.7062032734218" y="266.84764598854093"/>
      <point x="934.0" y="406.0"/>
      <point x="990.0" y="664.0" type="curve" smooth="yes"/>
      <point x="998.495876731605" y="700.1074761093212"/>
      <point x="1010.0" y="742.0"/>
      <point x="1030.0" y="766.0" type="curve" smooth="yes"/>
      <point x="1052.0" y="794.0"/>
      <point x="1068.0" y="812.0526315789474"/>
      <point x="1068.0" y="836.0" type="curve" smooth="yes"/>
      <point x="1068.0" y="915.2786885245902"/>
      <point x="974.0" y="960.0"/>
      <point x="838.0" y="960.0" type="curve" smooth="yes"/>
      <point x="492.0" y="960.0"/>
      <point x="162.0" y="550.0"/>
      <point x="162.0" y="182.0" type="curve" smooth="yes"/>
      <point x="162.0" y="30.0"/>
      <point x="236.0" y="-30.0"/>
      <point x="338.0" y="-30.0" type="curve" smooth="yes"/>
      <point x="492.0" y="-30.0"/>
      <point x="684.0" y="96.00000000000006"/>
      <point x="818.0" y="390.0" type="curve"/>
      <point x="784.0" y="398.0" type="line"/>
      <point x="790.0" y="274.0"/>
      <point x="744.0" y="160.0"/>
      <point x="748.0" y="68.0" type="curve" smooth="yes"/>
      <point x="752.0" y="10.0"/>
      <point x="796.0" y="-32.0"/>
      <point x="874.0" y="-32.0" type="curve" smooth="yes"/>
      <point x="990.0" y="-32.0"/>
      <point x="1072.0" y="82.0"/>
      <point x="1070.0" y="162.0" type="curve" smooth="yes"/>
      <point x="1070.0" y="190.0"/>
      <point x="1058.0" y="200.0"/>
      <point x="1042.0" y="200.0" type="curve" smooth="yes"/>
      <point x="1022.0" y="200.0"/>
      <point x="1014.0" y="188.0"/>
      <point x="1000.0" y="166.0" type="curve" smooth="yes"/>
      <point x="984.0" y="140.0"/>
      <point x="966.0" y="126.0"/>
      <point x="948.0" y="126.0" type="curve" smooth="yes"/>
      <point x="926.0" y="126.0"/>
      <point x="918.0" y="158.0"/>
    </contour>
    <contour>
      <point x="332.0" y="294.0" type="curve" smooth="yes"/>
      <point x="332.0" y="558.0"/>
      <point x="530.0" y="824.0"/>
      <point x="726.0" y="824.0" type="curve" smooth="yes"/>
      <point x="806.0" y="824.0"/>
      <point x="846.0" y="772.0"/>
      <point x="846.0" y="684.0" type="curve" smooth="yes"/>
      <point x="846.0" y="486.0"/>
      <point x="626.0" y="122.0"/>
      <point x="456.0" y="122.0" type="curve" smooth="yes"/>
      <point x="390.0" y="122.0"/>
      <point x="332.0" y="162.0"/>
    </contour>
    <contour>
      <point x="570.6707214227338" y="1136.0" type="curve" smooth="yes"/>
      <point x="598.6707214227338" y="1242.0"/>
      <point x="676.6707214227338" y="1320.0"/>
      <point x="778.6707214227338" y="1320.0" type="curve" smooth="yes"/>
      <point x="826.6707214227338" y="1320.0"/>
      <point x="868.6707214227338" y="1300.0"/>
      <point x="904.6707214227338" y="1242.0" type="curve" smooth="yes"/>
      <point x="936.6707214227338" y="1190.0"/>
      <point x="956.6707214227338" y="1176.0"/>
      <point x="984.6707214227338" y="1176.0" type="curve" smooth="yes"/>
      <point x="1010.6707214227338" y="1176.0"/>
      <point x="1034.6707214227338" y="1206.0"/>
      <point x="1050.6707214227338" y="1268.0" type="curve" smooth="yes"/>
      <point x="1060.6707214227338" y="1302.0"/>
      <point x="1078.6707214227338" y="1320.0"/>
      <point x="1102.6707214227338" y="1320.0" type="curve" smooth="yes"/>
      <point x="1122.6707214227338" y="1320.0"/>
      <point x="1136.6707214227338" y="1306.0"/>
      <point x="1122.6707214227338" y="1250.0" type="curve" smooth="yes"/>
      <point x="1088.6707214227338" y="1126.0"/>
      <point x="1010.6707214227338" y="1066.0"/>
      <point x="924.6707214227338" y="1068.0" type="curve" smooth="yes"/>
      <point x="854.6707214227338" y="1070.0"/>
      <point x="810.6707214227338" y="1096.0"/>
      <point x="782.6707214227338" y="1144.0" type="curve" smooth="yes"/>
      <point x="748.6707214227338" y="1198.0"/>
      <point x="730.6707214227338" y="1212.0"/>
      <point x="708.6707214227338" y="1212.0" type="curve" smooth="yes"/>
      <point x="682.6707214227338" y="1212.0"/>
      <point x="658.6707214227338" y="1178.0"/>
      <point x="638.6707214227338" y="1104.0" type="curve" smooth="yes"/>
      <point x="630.6707214227338" y="1074.0"/>
      <point x="608.6707214227338" y="1058.0"/>
      <point x="586.6707214227338" y="1058.0" type="curve" smooth="yes"/>
      <point x="568.6707214227338" y="1058.0"/>
      <point x="552.6707214227338" y="1074.0"/>
    </contour>
  </outline>
</glyph>
<glyph name="eth" format="2">
  <advance width="886"/>
  <unicode hex="00F0"/>
  <outline>
    <contour>
      <point x="742.0" y="960.0" type="curve" smooth="yes"/>
      <point x="414.0" y="960.0"/>
      <point x="162.0" y="596.0"/>
      <point x="162.0" y="242.0" type="curve" smooth="yes"/>
      <point x="162.0" y="56.0"/>
      <point x="268.0" y="-30.0"/>
      <point x="426.0" y="-30.0" type="curve" smooth="yes"/>
      <point x="716.0" y="-30.0"/>
      <point x="992.0" y="350.0"/>
      <point x="992.0" y="694.0" type="curve" smooth="yes"/>
      <point x="992.0" y="1030.0"/>
      <point x="824.0" y="1300.0"/>
      <point x="610.0" y="1404.0" type="curve" smooth="yes"/>
      <point x="568.0" y="1424.0"/>
      <point x="544.0" y="1432.0"/>
      <point x="506.0" y="1432.0" type="curve" smooth="yes"/>
      <point x="476.0" y="1432.0"/>
      <point x="462.0" y="1418.0"/>
      <point x="462.0" y="1400.0" type="curve" smooth="yes"/>
      <point x="462.0" y="1384.0"/>
      <point x="478.0" y="1368.0"/>
      <point x="522.0" y="1336.0" type="curve" smooth="yes"/>
      <point x="734.0" y="1180.0"/>
      <point x="828.0" y="998.0"/>
      <point x="828.0" y="690.0" type="curve"/>
      <point x="932.0" y="730.0" type="line"/>
      <point x="932.0" y="874.0"/>
      <point x="866.0" y="960.0"/>
    </contour>
    <contour>
      <point x="486.0" y="80.0" type="curve" smooth="yes"/>
      <point x="394.0" y="80.0"/>
      <point x="342.0" y="150.0"/>
      <point x="342.0" y="316.0" type="curve" smooth="yes"/>
      <point x="342.0" y="616.0"/>
      <point x="510.0" y="854.0"/>
      <point x="698.0" y="854.0" type="curve" smooth="yes"/>
      <point x="766.0" y="854.0"/>
      <point x="816.0" y="792.0"/>
      <point x="816.0" y="614.0" type="curve" smooth="yes"/>
      <point x="816.0" y="294.0"/>
      <point x="644.0" y="80.0"/>
    </contour>
    <contour>
      <point x="456.0" y="1108.0" type="curve" smooth="yes"/>
      <point x="456.0" y="1094.0"/>
      <point x="468.0" y="1080.0"/>
      <point x="484.0" y="1080.0" type="curve" smooth="yes"/>
      <point x="496.0" y="1080.0"/>
      <point x="512.0" y="1084.0"/>
      <point x="526.0" y="1094.0" type="curve" smooth="yes"/>
      <point x="914.0" y="1340.0" type="line" smooth="yes"/>
      <point x="948.0" y="1362.0"/>
      <point x="956.0" y="1374.0"/>
      <point x="956.0" y="1394.0" type="curve" smooth="yes"/>
      <point x="956.0" y="1406.0"/>
      <point x="944.0" y="1422.0"/>
      <point x="924.0" y="1422.0" type="curve" smooth="yes"/>
      <point x="910.0" y="1422.0"/>
      <point x="892.0" y="1414.0"/>
      <point x="882.0" y="1408.0" type="curve" smooth="yes"/>
      <point x="498.0" y="1162.0" type="line" smooth="yes"/>
      <point x="470.0" y="1144.0"/>
      <point x="456.0" y="1126.0"/>
    </contour>
  </outline>
</glyph>
<glyph name="otilde" format="2">
  <advance width="850"/>
  <unicode hex="00F5"/>
  <outline>
    <contour>
      <point x="734.0" y="960.0" type="curve" smooth="yes"/>
      <point x="454.0" y="960.0"/>
      <point x="160.0" y="644.0"/>
      <point x="160.0" y="298.0" type="curve" smooth="yes"/>
      <point x="160.0" y="86.0"/>
      <point x="272.0" y="-30.0"/>
      <point x="434.0" y="-30.0" type="curve" smooth="yes"/>
      <point x="688.0" y="-30.0"/>
      <point x="1000.0" y="246.0"/>
      <point x="1000.0" y="636.0" type="curve" smooth="yes"/>
      <point x="1000.0" y="852.0"/>
      <point x="878.0" y="960.0"/>
    </contour>
    <contour>
      <point x="818.0" y="284.13861386138615"/>
      <point x="610.7953216374269" y="66.0"/>
      <point x="474.0" y="66.0" type="curve" smooth="yes"/>
      <point x="401.1044776119403" y="66.0"/>
      <point x="342.0" y="125.97727272727273"/>
      <point x="342.0" y="248.0" type="curve" smooth="yes"/>
      <point x="342.0" y="598.2819672131147"/>
      <point x="527.0635838150289" y="862.0"/>
      <point x="690.0" y="862.0" type="curve" smooth="yes"/>
      <point x="756.9538461538461" y="862.0"/>
      <point x="818.0" y="802.7111111111111"/>
      <point x="818.0" y="678.0" type="curve" smooth="yes"/>
    </contour>
    <contour>
      <point x="494.0" y="1138.0" type="curve" smooth="yes"/>
      <point x="522.0" y="1244.0"/>
      <point x="600.0" y="1322.0"/>
      <point x="702.0" y="1322.0" type="curve" smooth="yes"/>
      <point x="750.0" y="1322.0"/>
      <point x="792.0" y="1302.0"/>
      <point x="828.0" y="1244.0" type="curve" smooth="yes"/>
      <point x="860.0" y="1192.0"/>
      <point x="880.0" y="1178.0"/>
      <point x="908.0" y="1178.0" type="curve" smooth="yes"/>
      <point x="934.0" y="1178.0"/>
      <point x="958.0" y="1208.0"/>
      <point x="974.0" y="1270.0" type="curve" smooth="yes"/>
      <point x="984.0" y="1304.0"/>
      <point x="1002.0" y="1322.0"/>
      <point x="1026.0" y="1322.0" type="curve" smooth="yes"/>
      <point x="1046.0" y="1322.0"/>
      <point x="1060.0" y="1308.0"/>
      <point x="1046.0" y="1252.0" type="curve" smooth="yes"/>
      <point x="1012.0" y="1128.0"/>
      <point x="934.0" y="1068.0"/>
      <point x="848.0" y="1070.0" type="curve" smooth="yes"/>
      <point x="778.0" y="1072.0"/>
      <point x="734.0" y="1098.0"/>
      <point x="706.0" y="1146.0" type="curve" smooth="yes"/>
      <point x="672.0" y="1200.0"/>
      <point x="654.0" y="1214.0"/>
      <point x="632.0" y="1214.0" type="curve" smooth="yes"/>
      <point x="606.0" y="1214.0"/>
      <point x="582.0" y="1180.0"/>
      <point x="562.0" y="1106.0" type="curve" smooth="yes"/>
      <point x="554.0" y="1076.0"/>
      <point x="532.0" y="1060.0"/>
      <point x="510.0" y="1060.0" type="curve" smooth="yes"/>
      <point x="492.0" y="1060.0"/>
      <point x="476.0" y="1076.0"/>
    </contour>
  </outline>
</glyph>
<glyph name="divide" format="2">
  <advance width="996"/>
  <unicode hex="00F7"/>
  <outline>
    <contour>
      <point x="264.0" y="608.0" type="curve" smooth="yes"/>
      <point x="254.0" y="572.0"/>
      <point x="280.0" y="544.0"/>
      <point x="318.0" y="544.0" type="curve" smooth="yes"/>
      <point x="432.0" y="544.0"/>
      <point x="572.0" y="562.0"/>
      <point x="656.0" y="562.0" type="curve" smooth="yes"/>
      <point x="742.0" y="562.0"/>
      <point x="864.0" y="544.0"/>
      <point x="970.0" y="544.0" type="curve" smooth="yes"/>
      <point x="1014.0" y="544.0"/>
      <point x="1050.0" y="572.0"/>
      <point x="1060.0" y="608.0" type="curve" smooth="yes"/>
      <point x="1070.0" y="646.0"/>
      <point x="1048.0" y="676.0"/>
      <point x="1006.0" y="676.0" type="curve" smooth="yes"/>
      <point x="900.0" y="676.0"/>
      <point x="768.0" y="658.0"/>
      <point x="682.0" y="658.0" type="curve" smooth="yes"/>
      <point x="584.0" y="658.0"/>
      <point x="468.0" y="676.0"/>
      <point x="356.0" y="676.0" type="curve" smooth="yes"/>
      <point x="320.0" y="676.0"/>
      <point x="274.0" y="646.0"/>
    </contour>
    <contour>
      <point x="592.5" y="249.75" type="curve" smooth="yes"/>
      <point x="649.2" y="249.75"/>
      <point x="720.75" y="340.44107142857143"/>
      <point x="720.75" y="427.95000000000005" type="curve" smooth="yes"/>
      <point x="720.75" y="460.35"/>
      <point x="696.45" y="483.3"/>
      <point x="666.75" y="483.3" type="curve" smooth="yes"/>
      <point x="606.0" y="483.3"/>
      <point x="537.15" y="387.70540540540543"/>
      <point x="537.15" y="306.45" type="curve" smooth="yes"/>
      <point x="537.15" y="274.05"/>
      <point x="561.45" y="249.75"/>
    </contour>
    <contour>
      <point x="736.5" y="785.75" type="curve" smooth="yes"/>
      <point x="793.2" y="785.75"/>
      <point x="864.75" y="876.4410714285714"/>
      <point x="864.75" y="963.95" type="curve" smooth="yes"/>
      <point x="864.75" y="996.35"/>
      <point x="840.45" y="1019.3"/>
      <point x="810.75" y="1019.3" type="curve" smooth="yes"/>
      <point x="750.0" y="1019.3"/>
      <point x="681.15" y="923.7054054054054"/>
      <point x="681.15" y="842.45" type="curve" smooth="yes"/>
      <point x="681.15" y="810.05"/>
      <point x="705.45" y="785.75"/>
    </contour>
  </outline>
</glyph>
<glyph name="oslash" format="2">
  <advance width="850"/>
  <unicode hex="00F8"/>
  <outline>
    <contour>
      <point x="984.0" y="1012.0" type="curve" smooth="yes"/>
      <point x="64.0" y="-50.0" type="line" smooth="yes"/>
      <point x="50.0" y="-68.0"/>
      <point x="44.0" y="-78.0"/>
      <point x="44.0" y="-90.0" type="curve" smooth="yes"/>
      <point x="42.0" y="-108.0"/>
      <point x="54.0" y="-128.0"/>
      <point x="78.0" y="-128.0" type="curve" smooth="yes"/>
      <point x="96.0" y="-128.0"/>
      <point x="112.0" y="-118.0"/>
      <point x="126.0" y="-102.0" type="curve" smooth="yes"/>
      <point x="1046.0" y="962.0" type="line" smooth="yes"/>
      <point x="1056.0" y="974.0"/>
      <point x="1062.0" y="990.0"/>
      <point x="1064.0" y="1004.0" type="curve" smooth="yes"/>
      <point x="1064.0" y="1024.0"/>
      <point x="1050.0" y="1038.0"/>
      <point x="1032.0" y="1038.0" type="curve" smooth="yes"/>
      <point x="1014.0" y="1038.0"/>
      <point x="996.0" y="1026.0"/>
    </contour>
    <contour>
      <point x="734.0" y="960.0" type="curve" smooth="yes"/>
      <point x="454.0" y="960.0"/>
      <point x="160.0" y="644.0"/>
      <point x="160.0" y="298.0" type="curve" smooth="yes"/>
      <point x="160.0" y="86.0"/>
      <point x="272.0" y="-30.0"/>
      <point x="434.0" y="-30.0" type="curve" smooth="yes"/>
      <point x="688.0" y="-30.0"/>
      <point x="1000.0" y="246.0"/>
      <point x="1000.0" y="636.0" type="curve" smooth="yes"/>
      <point x="1000.0" y="852.0"/>
      <point x="878.0" y="960.0"/>
    </contour>
    <contour>
      <point x="818.0" y="284.13861386138615"/>
      <point x="610.7953216374269" y="66.0"/>
      <point x="474.0" y="66.0" type="curve" smooth="yes"/>
      <point x="401.1044776119403" y="66.0"/>
      <point x="342.0" y="125.97727272727273"/>
      <point x="342.0" y="248.0" type="curve" smooth="yes"/>
      <point x="342.0" y="598.2819672131147"/>
      <point x="527.0635838150289" y="862.0"/>
      <point x="690.0" y="862.0" type="curve" smooth="yes"/>
      <point x="756.9538461538461" y="862.0"/>
      <point x="818.0" y="802.7111111111111"/>
      <point x="818.0" y="678.0" type="curve" smooth="yes"/>
    </contour>
  </outline>
</glyph>
<glyph name="thorn" format="2">
  <advance width="1024"/>
  <unicode hex="00FE"/>
  <outline>
    <contour>
      <point x="544.0" y="1002.0" type="curve" smooth="yes"/>
      <point x="148.0" y="-270.0" type="line" smooth="yes"/>
      <point x="136.0" y="-306.0"/>
      <point x="110.0" y="-330.0"/>
      <point x="66.0" y="-356.0" type="curve" smooth="yes"/>
      <point x="18.0" y="-382.0"/>
      <point x="0.0" y="-402.0"/>
      <point x="0.0" y="-422.0" type="curve" smooth="yes"/>
      <point x="0.0" y="-454.0"/>
      <point x="26.0" y="-472.0"/>
      <point x="60.0" y="-470.0" type="curve" smooth="yes"/>
      <point x="372.0" y="-460.0" type="line" smooth="yes"/>
      <point x="410.0" y="-458.0"/>
      <point x="436.0" y="-440.0"/>
      <point x="436.0" y="-414.0" type="curve" smooth="yes"/>
      <point x="436.0" y="-390.0"/>
      <point x="418.0" y="-374.0"/>
      <point x="376.0" y="-356.0" type="curve" smooth="yes"/>
      <point x="329.55580229177133" y="-334.8890010417142"/>
      <point x="312.0" y="-316.0"/>
      <point x="312.0" y="-282.0" type="curve" smooth="yes"/>
      <point x="312.0" y="-250.0"/>
      <point x="324.0" y="-208.0"/>
      <point x="336.0" y="-170.0" type="curve" smooth="yes"/>
      <point x="728.0" y="1132.0" type="line" smooth="yes"/>
      <point x="756.0" y="1228.0"/>
      <point x="768.0" y="1272.0"/>
      <point x="766.0" y="1332.0" type="curve" smooth="yes"/>
      <point x="764.0002072474169" y="1395.993368082658"/>
      <point x="736.8571428571429" y="1432.0"/>
      <point x="682.0" y="1432.0" type="curve" smooth="yes"/>
      <point x="616.0" y="1432.0"/>
      <point x="554.0" y="1378.0"/>
      <point x="554.0" y="1308.0" type="curve" smooth="yes"/>
      <point x="554.0" y="1254.0"/>
      <point x="578.0" y="1222.0"/>
      <point x="578.0" y="1158.0" type="curve" smooth="yes"/>
      <point x="578.0" y="1116.0"/>
      <point x="564.8151113851663" y="1068.8606608129585"/>
    </contour>
    <contour>
      <point x="244.0" y="684.0" type="curve" smooth="yes"/>
      <point x="264.0" y="684.0"/>
      <point x="280.0" y="700.0"/>
      <point x="296.0" y="714.0" type="curve" smooth="yes"/>
      <point x="408.0" y="808.0"/>
      <point x="514.0" y="846.0"/>
      <point x="658.0" y="846.0" type="curve" smooth="yes"/>
      <point x="808.0" y="846.0"/>
      <point x="906.0" y="740.0"/>
      <point x="906.0" y="554.0" type="curve" smooth="yes"/>
      <point x="906.0" y="262.0"/>
      <point x="752.0" y="78.0"/>
      <point x="572.0" y="78.0" type="curve" smooth="yes"/>
      <point x="460.0" y="78.0"/>
      <point x="392.0" y="136.0"/>
      <point x="388.0" y="234.0" type="curve"/>
      <point x="324.0" y="208.0" type="line"/>
      <point x="324.0" y="82.0"/>
      <point x="420.0" y="-32.0"/>
      <point x="584.0" y="-32.0" type="curve" smooth="yes"/>
      <point x="856.0" y="-32.0"/>
      <point x="1086.0" y="212.0"/>
      <point x="1086.0" y="582.0" type="curve" smooth="yes"/>
      <point x="1086.0" y="822.0"/>
      <point x="942.0" y="960.0"/>
      <point x="730.0" y="960.0" type="curve" smooth="yes"/>
      <point x="484.0" y="960.0"/>
      <point x="348.0" y="890.0"/>
      <point x="240.0" y="786.0" type="curve" smooth="yes"/>
      <point x="226.0" y="772.0"/>
      <point x="204.0" y="748.0"/>
      <point x="204.0" y="720.0" type="curve" smooth="yes"/>
      <point x="204.0" y="696.0"/>
      <point x="222.0" y="684.0"/>
    </contour>
  </outline>
</glyph>
<glyph name="ccircumflex" format="2">
  <advance width="786"/>
  <unicode hex="0109"/>
  <outline>
    <contour>
      <point x="664.0" y="856.0" type="curve" smooth="yes"/>
      <point x="714.6666666666666" y="856.0"/>
      <point x="744.0" y="830.0"/>
      <point x="744.0" y="800.0" type="curve" smooth="yes"/>
      <point x="744.0" y="764.0"/>
      <point x="726.0" y="720.0"/>
      <point x="726.0" y="690.0" type="curve" smooth="yes"/>
      <point x="726.0" y="642.0"/>
      <point x="762.0" y="612.0"/>
      <point x="814.0" y="612.0" type="curve" smooth="yes"/>
      <point x="874.0" y="612.0"/>
      <point x="924.0" y="668.0"/>
      <point x="924.0" y="764.0" type="curve" smooth="yes"/>
      <point x="924.0" y="860.0"/>
      <point x="851.2653061224489" y="960.0"/>
      <point x="708.0" y="960.0" type="curve" smooth="yes"/>
      <point x="422.0" y="960.0"/>
      <point x="170.0" y="606.0"/>
      <point x="170.0" y="286.0" type="curve" smooth="yes"/>
      <point x="170.0" y="102.0"/>
      <point x="270.0" y="-30.0"/>
      <point x="448.0" y="-30.0" type="curve" smooth="yes"/>
      <point x="650.0" y="-30.0"/>
      <point x="830.0" y="132.0"/>
      <point x="830.0" y="242.0" type="curve" smooth="yes"/>
      <point x="830.0" y="270.0"/>
      <point x="812.0" y="290.0"/>
      <point x="798.0" y="290.0" type="curve" smooth="yes"/>
      <point x="768.0" y="290.0"/>
      <point x="748.0" y="264.0"/>
      <point x="730.0" y="236.0" type="curve" smooth="yes"/>
      <point x="685.1029522021091" y="162.53210360345122"/>
      <point x="617.1351351351351" y="104.0"/>
      <point x="514.0" y="104.0" type="curve" smooth="yes"/>
      <point x="416.51851851851853" y="104.0"/>
      <point x="346.0" y="198.0"/>
      <point x="346.0" y="358.0" type="curve" smooth="yes"/>
      <point x="346.0" y="628.0"/>
      <point x="502.0" y="856.0"/>
    </contour>
    <contour>
      <point x="531.8049408018898" y="1144.0" type="curve" smooth="yes"/>
      <point x="697.8049408018898" y="1300.0" type="line" smooth="yes"/>
      <point x="747.8049408018898" y="1348.0"/>
      <point x="783.8049408018898" y="1368.0"/>
      <point x="829.8049408018898" y="1368.0" type="curve" smooth="yes"/>
      <point x="871.8049408018898" y="1368.0"/>
      <point x="899.8049408018898" y="1348.0"/>
      <point x="923.8049408018898" y="1302.0" type="curve" smooth="yes"/>
      <point x="1007.8049408018898" y="1144.0" type="line" smooth="yes"/>
      <point x="1013.8049408018898" y="1130.0"/>
      <point x="1023.8049408018898" y="1110.0"/>
      <point x="1019.8049408018898" y="1092.0" type="curve" smooth="yes"/>
      <point x="1013.8049408018898" y="1070.0"/>
      <point x="999.8049408018898" y="1060.0"/>
      <point x="975.8049408018898" y="1060.0" type="curve" smooth="yes"/>
      <point x="959.8049408018898" y="1060.0"/>
      <point x="945.8049408018898" y="1072.0"/>
      <point x="921.8049408018898" y="1094.0" type="curve" smooth="yes"/>
      <point x="755.8049408018898" y="1254.0" type="line"/>
      <point x="843.8049408018898" y="1254.0" type="line"/>
      <point x="589.8049408018898" y="1094.0" type="line" smooth="yes"/>
      <point x="553.8049408018898" y="1072.0"/>
      <point x="535.8049408018898" y="1060.0"/>
      <point x="519.8049408018898" y="1060.0" type="curve" smooth="yes"/>
      <point x="495.80494080188976" y="1060.0"/>
      <point x="485.80494080188976" y="1070.0"/>
      <point x="491.80494080188976" y="1092.0" type="curve" smooth="yes"/>
      <point x="495.80494080188976" y="1110.0"/>
      <point x="517.8049408018898" y="1130.0"/>
    </contour>
  </outline>
</glyph>
<glyph name="Ccaron" format="2">
  <advance width="1272"/>
  <unicode hex="010C"/>
  <outline>
    <contour>
      <point x="1296.0" y="364.0" type="curve" smooth="yes"/>
      <point x="1296.0" y="392.0"/>
      <point x="1284.0" y="406.0"/>
      <point x="1264.0" y="406.0" type="curve" smooth="yes"/>
      <point x="1240.4285714285713" y="406.0"/>
      <point x="1226.1195502189541" y="385.2420069877993"/>
      <point x="1198.0" y="344.0" type="curve" smooth="yes"/>
      <point x="1090.4306405935886" y="185.69037672263977"/>
      <point x="970.1827411167512" y="126.0"/>
      <point x="790.0" y="126.0" type="curve" smooth="yes"/>
      <point x="603.7142857142858" y="126.0"/>
      <point x="464.0" y="292.69767441860466"/>
      <point x="464.0" y="574.0" type="curve" smooth="yes"/>
      <point x="464.0" y="958.860824742268"/>
      <point x="728.0" y="1332.0"/>
      <point x="1028.0" y="1332.0" type="curve" smooth="yes"/>
      <point x="1176.0" y="1332.0"/>
      <point x="1242.0" y="1282.0"/>
      <point x="1306.0" y="1166.0" type="curve" smooth="yes"/>
      <point x="1356.0" y="1076.0" type="line" smooth="yes"/>
      <point x="1372.0" y="1046.0"/>
      <point x="1388.0" y="1024.0"/>
      <point x="1416.0" y="1024.0" type="curve" smooth="yes"/>
      <point x="1442.0" y="1024.0"/>
      <point x="1462.0" y="1040.0"/>
      <point x="1460.0" y="1080.0" type="curve" smooth="yes"/>
      <point x="1450.0" y="1358.0" type="line" smooth="yes"/>
      <point x="1448.0" y="1398.0"/>
      <point x="1430.0" y="1422.0"/>
      <point x="1400.0" y="1422.0" type="curve" smooth="yes"/>
      <point x="1366.0" y="1422.0"/>
      <point x="1338.0" y="1370.0"/>
      <point x="1300.0" y="1370.0" type="curve" smooth="yes"/>
      <point x="1252.0" y="1370.0"/>
      <point x="1168.0" y="1430.0"/>
      <point x="1042.0" y="1430.0" type="curve" smooth="yes"/>
      <point x="622.0" y="1430.0"/>
      <point x="248.0" y="947.1111111111111"/>
      <point x="248.0" y="476.0" type="curve" smooth="yes"/>
      <point x="248.0" y="173.22950819672133"/>
      <point x="423.56756756756755" y="-30.0"/>
      <point x="696.0" y="-30.0" type="curve" smooth="yes"/>
      <point x="984.0068728522338" y="-30.0"/>
      <point x="1198.0939571862416" y="124.20027716014636"/>
      <point x="1274.0" y="286.0" type="curve" smooth="yes"/>
      <point x="1290.0" y="320.0"/>
      <point x="1296.0" y="340.0"/>
    </contour>
    <contour>
      <point x="905.5652158090865" y="1731.6000000000001" type="curve" smooth="yes"/>
      <point x="991.6652158090865" y="1591.2" type="line" smooth="yes"/>
      <point x="1016.8652158090865" y="1548.0"/>
      <point x="1044.1652158090865" y="1530.0"/>
      <point x="1092.4652158090864" y="1530.0" type="curve" smooth="yes"/>
      <point x="1136.5652158090866" y="1530.0"/>
      <point x="1176.4652158090864" y="1548.0"/>
      <point x="1226.8652158090867" y="1589.4" type="curve" smooth="yes"/>
      <point x="1405.3652158090867" y="1731.6000000000001" type="line" smooth="yes"/>
      <point x="1420.0652158090866" y="1744.2"/>
      <point x="1441.0652158090866" y="1762.2"/>
      <point x="1447.3652158090863" y="1778.4" type="curve" smooth="yes"/>
      <point x="1453.6652158090865" y="1798.2"/>
      <point x="1443.1652158090865" y="1807.2"/>
      <point x="1417.9652158090867" y="1807.2" type="curve" smooth="yes"/>
      <point x="1401.1652158090865" y="1807.2"/>
      <point x="1380.1652158090865" y="1796.4"/>
      <point x="1342.3652158090867" y="1776.6000000000001" type="curve" smooth="yes"/>
      <point x="1077.7652158090864" y="1632.6" type="line"/>
      <point x="1170.1652158090865" y="1632.6" type="line"/>
      <point x="993.7652158090865" y="1776.6000000000001" type="line" smooth="yes"/>
      <point x="968.5652158090865" y="1796.4"/>
      <point x="955.9652158090864" y="1807.2"/>
      <point x="939.1652158090865" y="1807.2" type="curve" smooth="yes"/>
      <point x="913.9652158090865" y="1807.2"/>
      <point x="899.2652158090865" y="1798.2"/>
      <point x="892.9652158090865" y="1778.4" type="curve" smooth="yes"/>
      <point x="886.6652158090865" y="1762.2"/>
      <point x="899.2652158090865" y="1744.2"/>
    </contour>
    <contour>
      <point x="905.5652158090865" y="1731.6000000000001" type="curve" smooth="yes"/>
      <point x="991.6652158090865" y="1591.2" type="line" smooth="yes"/>
      <point x="1016.8652158090865" y="1548.0"/>
      <point x="1044.1652158090865" y="1530.0"/>
      <point x="1092.4652158090864" y="1530.0" type="curve" smooth="yes"/>
      <point x="1136.5652158090866" y="1530.0"/>
      <point x="1176.4652158090864" y="1548.0"/>
      <point x="1226.8652158090867" y="1589.4" type="curve" smooth="yes"/>
      <point x="1405.3652158090867" y="1731.6000000000001" type="line" smooth="yes"/>
      <point x="1420.0652158090866" y="1744.2"/>
      <point x="1441.0652158090866" y="1762.2"/>
      <point x="1447.3652158090863" y="1778.4" type="curve" smooth="yes"/>
      <point x="1453.6652158090865" y="1798.2"/>
      <point x="1443.1652158090865" y="1807.2"/>
      <point x="1417.9652158090867" y="1807.2" type="curve" smooth="yes"/>
      <point x="1401.1652158090865" y="1807.2"/>
      <point x="1380.1652158090865" y="1796.4"/>
      <point x="1342.3652158090867" y="1776.6000000000001" type="curve" smooth="yes"/>
      <point x="1077.7652158090864" y="1632.6" type="line"/>
      <point x="1170.1652158090865" y="1632.6" type="line"/>
      <point x="993.7652158090865" y="1776.6000000000001" type="line" smooth="yes"/>
      <point x="968.5652158090865" y="1796.4"/>
      <point x="955.9652158090864" y="1807.2"/>
      <point x="939.1652158090865" y="1807.2" type="curve" smooth="yes"/>
      <point x="913.9652158090865" y="1807.2"/>
      <point x="899.2652158090865" y="1798.2"/>
      <point x="892.9652158090865" y="1778.4" type="curve" smooth="yes"/>
      <point x="886.6652158090865" y="1762.2"/>
      <point x="899.2652158090865" y="1744.2"/>
    </contour>
  </outline>
</glyph>
<glyph name="ccaron" format="2">
  <advance width="786"/>
  <unicode hex="010D"/>
  <outline>
    <contour>
      <point x="664.0" y="856.0" type="curve" smooth="yes"/>
      <point x="714.6666666666666" y="856.0"/>
      <point x="744.0" y="830.0"/>
      <point x="744.0" y="800.0" type="curve" smooth="yes"/>
      <point x="744.0" y="764.0"/>
      <point x="726.0" y="720.0"/>
      <point x="726.0" y="690.0" type="curve" smooth="yes"/>
      <point x="726.0" y="642.0"/>
      <point x="762.0" y="612.0"/>
      <point x="814.0" y="612.0" type="curve" smooth="yes"/>
      <point x="874.0" y="612.0"/>
      <point x="924.0" y="668.0"/>
      <point x="924.0" y="764.0" type="curve" smooth="yes"/>
      <point x="924.0" y="860.0"/>
      <point x="851.2653061224489" y="960.0"/>
      <point x="708.0" y="960.0" type="curve" smooth="yes"/>
      <point x="422.0" y="960.0"/>
      <point x="170.0" y="606.0"/>
      <point x="170.0" y="286.0" type="curve" smooth="yes"/>
      <point x="170.0" y="102.0"/>
      <point x="270.0" y="-30.0"/>
      <point x="448.0" y="-30.0" type="curve" smooth="yes"/>
      <point x="650.0" y="-30.0"/>
      <point x="830.0" y="132.0"/>
      <point x="830.0" y="242.0" type="curve" smooth="yes"/>
      <point x="830.0" y="270.0"/>
      <point x="812.0" y="290.0"/>
      <point x="798.0" y="290.0" type="curve" smooth="yes"/>
      <point x="768.0" y="290.0"/>
      <point x="748.0" y="264.0"/>
      <point x="730.0" y="236.0" type="curve" smooth="yes"/>
      <point x="685.1029522021091" y="162.53210360345122"/>
      <point x="617.1351351351351" y="104.0"/>
      <point x="514.0" y="104.0" type="curve" smooth="yes"/>
      <point x="416.51851851851853" y="104.0"/>
      <point x="346.0" y="198.0"/>
      <point x="346.0" y="358.0" type="curve" smooth="yes"/>
      <point x="346.0" y="628.0"/>
      <point x="502.0" y="856.0"/>
    </contour>
    <contour>
      <point x="544.0" y="1284.0" type="curve" smooth="yes"/>
      <point x="626.0" y="1128.0" type="line" smooth="yes"/>
      <point x="650.0" y="1080.0"/>
      <point x="676.0" y="1060.0"/>
      <point x="722.0" y="1060.0" type="curve" smooth="yes"/>
      <point x="764.0" y="1060.0"/>
      <point x="802.0" y="1080.0"/>
      <point x="850.0" y="1126.0" type="curve" smooth="yes"/>
      <point x="1020.0" y="1284.0" type="line" smooth="yes"/>
      <point x="1034.0" y="1298.0"/>
      <point x="1054.0" y="1318.0"/>
      <point x="1060.0" y="1336.0" type="curve" smooth="yes"/>
      <point x="1066.0" y="1358.0"/>
      <point x="1056.0" y="1368.0"/>
      <point x="1032.0" y="1368.0" type="curve" smooth="yes"/>
      <point x="1016.0" y="1368.0"/>
      <point x="996.0" y="1356.0"/>
      <point x="960.0" y="1334.0" type="curve" smooth="yes"/>
      <point x="708.0" y="1174.0" type="line"/>
      <point x="796.0" y="1174.0" type="line"/>
      <point x="628.0" y="1334.0" type="line" smooth="yes"/>
      <point x="604.0" y="1356.0"/>
      <point x="592.0" y="1368.0"/>
      <point x="576.0" y="1368.0" type="curve" smooth="yes"/>
      <point x="552.0" y="1368.0"/>
      <point x="538.0" y="1358.0"/>
      <point x="532.0" y="1336.0" type="curve" smooth="yes"/>
      <point x="526.0" y="1318.0"/>
      <point x="538.0" y="1298.0"/>
    </contour>
  </outline>
</glyph>
<glyph name="dcroat" format="2">
  <advance width="496"/>
  <unicode hex="0111"/>
  <outline>
    <contour>
      <point x="529" y="518" type="line"/>
      <point x="620" y="518" type="line" smooth="yes"/>
      <point x="632" y="518"/>
      <point x="641" y="526"/>
      <point x="642" y="539" type="curve" smooth="yes"/>
      <point x="642" y="551"/>
      <point x="632" y="560"/>
      <point x="619" y="560" type="curve" smooth="yes"/>
      <point x="531" y="560" type="line"/>
    </contour>
    <contour>
      <point x="380" y="549" type="curve" smooth="yes"/>
      <point x="380" y="536"/>
      <point x="386" y="528"/>
      <point x="399" y="528" type="curve" smooth="yes"/>
      <point x="529" y="528" type="line"/>
      <point x="531" y="570" type="line"/>
      <point x="401" y="570" type="line" smooth="yes"/>
      <point x="389" y="570"/>
      <point x="380" y="561"/>
    </contour>
    <component base="d"/>
  </outline>
</glyph>
<glyph name="ebreve" format="2">
  <advance width="860"/>
  <unicode hex="0115"/>
  <outline>
    <contour>
      <point x="268.0" y="408.0" type="curve"/>
      <point x="278.0" y="334.0" type="line"/>
      <point x="278.0" y="334.0"/>
      <point x="742.0" y="564.0"/>
      <point x="932.0" y="648.0" type="curve" smooth="yes"/>
      <point x="970.0" y="664.0"/>
      <point x="988.0" y="688.0"/>
      <point x="988.0" y="712.0" type="curve" smooth="yes"/>
      <point x="988.0" y="732.0"/>
      <point x="974.0" y="748.0"/>
      <point x="948.0" y="748.0" type="curve" smooth="yes"/>
      <point x="926.0" y="748.0"/>
      <point x="912.0" y="764.0"/>
      <point x="910.0" y="786.0" type="curve" smooth="yes"/>
      <point x="894.0" y="898.0"/>
      <point x="818.0" y="960.0"/>
      <point x="708.0" y="960.0" type="curve" smooth="yes"/>
      <point x="442.0" y="960.0"/>
      <point x="170.0" y="600.0"/>
      <point x="170.0" y="300.0" type="curve" smooth="yes"/>
      <point x="170.0" y="106.0"/>
      <point x="275.36842105263156" y="-30.0"/>
      <point x="456.0" y="-30.0" type="curve" smooth="yes"/>
      <point x="702.3783783783783" y="-30.0"/>
      <point x="880.0" y="148.0"/>
      <point x="880.0" y="302.0" type="curve" smooth="yes"/>
      <point x="880.0" y="328.0"/>
      <point x="870.0" y="348.0"/>
      <point x="848.0" y="348.0" type="curve" smooth="yes"/>
      <point x="826.0" y="348.0"/>
      <point x="812.0" y="336.0"/>
      <point x="794.0" y="298.0" type="curve" smooth="yes"/>
      <point x="736.6382164672327" y="165.47450011395136"/>
      <point x="654.7913669064749" y="98.0"/>
      <point x="536.0" y="98.0" type="curve" smooth="yes"/>
      <point x="426.8636363636364" y="98.0"/>
      <point x="340.0" y="212.0"/>
      <point x="340.0" y="382.0" type="curve" smooth="yes"/>
      <point x="340.0" y="634.0"/>
      <point x="512.0" y="854.0"/>
      <point x="652.0" y="854.0" type="curve" smooth="yes"/>
      <point x="704.0" y="854.0"/>
      <point x="738.0" y="804.0"/>
      <point x="738.0" y="728.0" type="curve" smooth="yes"/>
      <point x="738.0" y="660.0"/>
      <point x="722.0" y="616.0"/>
      <point x="696.0" y="584.0" type="curve"/>
      <point x="790.0" y="670.0" type="line"/>
      <point x="622.0" y="580.0"/>
      <point x="268.0" y="408.0"/>
    </contour>
    <contour>
      <point x="740.0" y="1060.0" type="curve" smooth="yes"/>
      <point x="882.0459770114942" y="1060.0"/>
      <point x="1034.1292188665616" y="1182.4328832029817"/>
      <point x="1074.0" y="1316.0" type="curve" smooth="yes"/>
      <point x="1080.0" y="1334.0"/>
      <point x="1068.0" y="1348.0"/>
      <point x="1048.0" y="1348.0" type="curve" smooth="yes"/>
      <point x="1036.0" y="1348.0"/>
      <point x="1018.0" y="1338.0"/>
      <point x="1006.0" y="1322.0" type="curve" smooth="yes"/>
      <point x="949.3099894110586" y="1253.5810217030019"/>
      <point x="881.4516129032259" y="1216.0"/>
      <point x="772.0" y="1216.0" type="curve" smooth="yes"/>
      <point x="659.8" y="1216.0"/>
      <point x="586.0071343133868" y="1251.95838317191"/>
      <point x="574.0" y="1322.0" type="curve" smooth="yes"/>
      <point x="570.0" y="1340.0"/>
      <point x="558.0" y="1346.0"/>
      <point x="544.0" y="1346.0" type="curve" smooth="yes"/>
      <point x="528.4" y="1346.0"/>
      <point x="518.0" y="1326.0"/>
      <point x="518.0" y="1300.0" type="curve" smooth="yes"/>
      <point x="518.0" y="1162.0"/>
      <point x="596.9807692307693" y="1060.0"/>
    </contour>
  </outline>
</glyph>
<glyph name="eogonek" format="2">
  <advance width="860"/>
  <unicode hex="0119"/>
  <outline>
    <contour>
      <point x="714.0" y="78.0" type="line"/>
      <point x="368.0" y="-128.0"/>
      <point x="314.0" y="-200.0"/>
      <point x="290.0" y="-290.0" type="curve" smooth="yes"/>
      <point x="264.0" y="-388.0"/>
      <point x="322.0" y="-464.0"/>
      <point x="454.0" y="-464.0" type="curve" smooth="yes"/>
      <point x="590.0" y="-464.0"/>
      <point x="690.0" y="-400.0"/>
      <point x="712.0" y="-320.0" type="curve" smooth="yes"/>
      <point x="722.0" y="-278.0"/>
      <point x="706.0" y="-252.0"/>
      <point x="670.0" y="-252.0" type="curve" smooth="yes"/>
      <point x="628.0" y="-252.0"/>
      <point x="586.0" y="-284.0"/>
      <point x="574.0" y="-336.0" type="curve" smooth="yes"/>
      <point x="562.0" y="-374.0"/>
      <point x="534.0" y="-394.0"/>
      <point x="504.0" y="-394.0" type="curve" smooth="yes"/>
      <point x="462.0" y="-394.0"/>
      <point x="438.0" y="-354.0"/>
      <point x="460.0" y="-266.0" type="curve" smooth="yes"/>
      <point x="492.0" y="-140.0"/>
      <point x="536.0" y="-70.0"/>
      <point x="716.0" y="46.0" type="curve"/>
    </contour>
    <contour>
      <point x="268.0" y="408.0" type="curve"/>
      <point x="278.0" y="334.0" type="line"/>
      <point x="278.0" y="334.0"/>
      <point x="742.0" y="564.0"/>
      <point x="932.0" y="648.0" type="curve" smooth="yes"/>
      <point x="970.0" y="664.0"/>
      <point x="988.0" y="688.0"/>
      <point x="988.0" y="712.0" type="curve" smooth="yes"/>
      <point x="988.0" y="732.0"/>
      <point x="974.0" y="748.0"/>
      <point x="948.0" y="748.0" type="curve" smooth="yes"/>
      <point x="926.0" y="748.0"/>
      <point x="912.0" y="764.0"/>
      <point x="910.0" y="786.0" type="curve" smooth="yes"/>
      <point x="894.0" y="898.0"/>
      <point x="818.0" y="960.0"/>
      <point x="708.0" y="960.0" type="curve" smooth="yes"/>
      <point x="442.0" y="960.0"/>
      <point x="170.0" y="600.0"/>
      <point x="170.0" y="300.0" type="curve" smooth="yes"/>
      <point x="170.0" y="106.0"/>
      <point x="275.36842105263156" y="-30.0"/>
      <point x="456.0" y="-30.0" type="curve" smooth="yes"/>
      <point x="702.3783783783783" y="-30.0"/>
      <point x="880.0" y="148.0"/>
      <point x="880.0" y="302.0" type="curve" smooth="yes"/>
      <point x="880.0" y="328.0"/>
      <point x="870.0" y="348.0"/>
      <point x="848.0" y="348.0" type="curve" smooth="yes"/>
      <point x="826.0" y="348.0"/>
      <point x="812.0" y="336.0"/>
      <point x="794.0" y="298.0" type="curve" smooth="yes"/>
      <point x="736.6382164672327" y="165.47450011395136"/>
      <point x="654.7913669064749" y="98.0"/>
      <point x="536.0" y="98.0" type="curve" smooth="yes"/>
      <point x="426.8636363636364" y="98.0"/>
      <point x="340.0" y="212.0"/>
      <point x="340.0" y="382.0" type="curve" smooth="yes"/>
      <point x="340.0" y="634.0"/>
      <point x="512.0" y="854.0"/>
      <point x="652.0" y="854.0" type="curve" smooth="yes"/>
      <point x="704.0" y="854.0"/>
      <point x="738.0" y="804.0"/>
      <point x="738.0" y="728.0" type="curve" smooth="yes"/>
      <point x="738.0" y="660.0"/>
      <point x="722.0" y="616.0"/>
      <point x="696.0" y="584.0" type="curve"/>
      <point x="790.0" y="670.0" type="line"/>
      <point x="622.0" y="580.0"/>
      <point x="268.0" y="408.0"/>
    </contour>
  </outline>
</glyph>
<glyph name="hcircumflex" format="2">
  <advance width="1042"/>
  <unicode hex="0125"/>
  <outline>
    <contour>
      <point x="418.0" y="422.0" type="curve" smooth="yes"/>
      <point x="386.0" y="334.0"/>
      <point x="364.0" y="278.0"/>
      <point x="364.0" y="240.0" type="curve" smooth="yes"/>
      <point x="364.0" y="168.0"/>
      <point x="376.0" y="140.0"/>
      <point x="376.0" y="94.0" type="curve" smooth="yes"/>
      <point x="376.0" y="20.0"/>
      <point x="308.0" y="-30.0"/>
      <point x="236.0" y="-30.0" type="curve" smooth="yes"/>
      <point x="190.0" y="-30.0"/>
      <point x="160.0" y="10.0"/>
      <point x="160.0" y="78.0" type="curve" smooth="yes"/>
      <point x="160.0" y="116.0"/>
      <point x="178.0" y="154.0"/>
      <point x="216.0" y="282.0" type="curve" smooth="yes"/>
      <point x="408.0" y="930.0" type="line" smooth="yes"/>
      <point x="510.0" y="1274.0"/>
      <point x="690.0" y="1430.0"/>
      <point x="1060.0" y="1430.0" type="curve" smooth="yes"/>
      <point x="1190.0" y="1430.0"/>
      <point x="1244.0" y="1380.0"/>
      <point x="1244.0" y="1322.0" type="curve" smooth="yes"/>
      <point x="1244.0" y="1266.0"/>
      <point x="1210.0" y="1230.0"/>
      <point x="1132.0" y="1230.0" type="curve" smooth="yes"/>
      <point x="1044.0" y="1230.0"/>
      <point x="942.2962962962963" y="1316.0"/>
      <point x="822.0" y="1316.0" type="curve" smooth="yes"/>
      <point x="722.780487804878" y="1316.0"/>
      <point x="644.6636813496194" y="1241.0288946205844"/>
      <point x="596.0" y="1060.0" type="curve" smooth="yes"/>
      <point x="512.0" y="748.0"/>
      <point x="468.0" y="664.0"/>
      <point x="468.0" y="574.0" type="curve"/>
      <point x="436.0" y="582.0" type="line"/>
      <point x="563.7777357322691" y="823.5797816188212"/>
      <point x="769.3551020408163" y="960.0"/>
      <point x="934.0" y="960.0" type="curve" smooth="yes"/>
      <point x="1010.0" y="960.0"/>
      <point x="1052.0" y="908.0"/>
      <point x="1052.0" y="834.0" type="curve" smooth="yes"/>
      <point x="1052.0" y="750.0"/>
      <point x="1028.0" y="692.0"/>
      <point x="992.0" y="598.0" type="curve" smooth="yes"/>
      <point x="894.0" y="340.0" type="line" smooth="yes"/>
      <point x="876.0" y="292.0"/>
      <point x="858.0" y="242.0"/>
      <point x="862.0" y="196.0" type="curve" smooth="yes"/>
      <point x="864.0" y="156.0"/>
      <point x="886.0" y="132.0"/>
      <point x="914.0" y="132.0" type="curve" smooth="yes"/>
      <point x="940.0" y="132.0"/>
      <point x="970.0" y="148.0"/>
      <point x="990.0" y="176.0" type="curve" smooth="yes"/>
      <point x="1008.0" y="202.0"/>
      <point x="1020.0" y="212.0"/>
      <point x="1034.0" y="212.0" type="curve" smooth="yes"/>
      <point x="1052.0" y="212.0"/>
      <point x="1066.0" y="202.0"/>
      <point x="1068.0" y="174.0" type="curve" smooth="yes"/>
      <point x="1072.0" y="86.0"/>
      <point x="956.0" y="-30.0"/>
      <point x="802.0" y="-30.0" type="curve" smooth="yes"/>
      <point x="720.0" y="-30.0"/>
      <point x="680.0" y="28.0"/>
      <point x="676.0" y="100.0" type="curve" smooth="yes"/>
      <point x="674.0" y="158.0"/>
      <point x="700.0" y="212.0"/>
      <point x="726.0" y="280.0" type="curve" smooth="yes"/>
      <point x="844.0" y="586.0" type="line" smooth="yes"/>
      <point x="862.2574217442045" y="633.3455174044627"/>
      <point x="872.0" y="684.2222222222222"/>
      <point x="872.0" y="722.0" type="curve" smooth="yes"/>
      <point x="872.0" y="770.7567567567568"/>
      <point x="850.0" y="804.0"/>
      <point x="794.0" y="804.0" type="curve" smooth="yes"/>
      <point x="686.0" y="804.0"/>
      <point x="506.48081818591766" y="670.9809069882798"/>
    </contour>
    <contour>
      <point x="788.0" y="1620.0" type="curve" smooth="yes"/>
      <point x="954.0" y="1776.0" type="line" smooth="yes"/>
      <point x="1004.0" y="1824.0"/>
      <point x="1040.0" y="1844.0"/>
      <point x="1086.0" y="1844.0" type="curve" smooth="yes"/>
      <point x="1128.0" y="1844.0"/>
      <point x="1156.0" y="1824.0"/>
      <point x="1180.0" y="1778.0" type="curve" smooth="yes"/>
      <point x="1264.0" y="1620.0" type="line" smooth="yes"/>
      <point x="1270.0" y="1606.0"/>
      <point x="1280.0" y="1586.0"/>
      <point x="1276.0" y="1568.0" type="curve" smooth="yes"/>
      <point x="1270.0" y="1546.0"/>
      <point x="1256.0" y="1536.0"/>
      <point x="1232.0" y="1536.0" type="curve" smooth="yes"/>
      <point x="1216.0" y="1536.0"/>
      <point x="1202.0" y="1548.0"/>
      <point x="1178.0" y="1570.0" type="curve" smooth="yes"/>
      <point x="1012.0" y="1730.0" type="line"/>
      <point x="1100.0" y="1730.0" type="line"/>
      <point x="846.0" y="1570.0" type="line" smooth="yes"/>
      <point x="810.0" y="1548.0"/>
      <point x="792.0" y="1536.0"/>
      <point x="776.0" y="1536.0" type="curve" smooth="yes"/>
      <point x="752.0" y="1536.0"/>
      <point x="742.0" y="1546.0"/>
      <point x="748.0" y="1568.0" type="curve" smooth="yes"/>
      <point x="752.0" y="1586.0"/>
      <point x="774.0" y="1606.0"/>
    </contour>
  </outline>
</glyph>
<glyph name="Hbar" format="2">
  <advance width="760"/>
  <unicode hex="0126"/>
  <outline>
    <contour>
      <point x="834" y="507" type="curve" smooth="yes"/>
      <point x="229" y="507" type="line" smooth="yes"/>
      <point x="211" y="507"/>
      <point x="196.0" y="495.0"/>
      <point x="196" y="483" type="curve" smooth="yes"/>
      <point x="196.0" y="472"/>
      <point x="204" y="465"/>
      <point x="219" y="465" type="curve" smooth="yes"/>
      <point x="824" y="465" type="line" smooth="yes"/>
      <point x="842.0" y="465.0"/>
      <point x="857.0" y="477.0"/>
      <point x="857" y="489" type="curve" smooth="yes"/>
      <point x="857.0" y="500"/>
      <point x="849.0" y="507.0"/>
    </contour>
    <component base="H"/>
  </outline>
</glyph>
<glyph name="Ibreve" format="2">
  <advance width="742"/>
  <unicode hex="012C"/>
  <outline>
    <contour>
      <point x="542.0" y="184.0" type="curve" smooth="yes"/>
      <point x="620.0" y="592.0"/>
      <point x="700.0" y="914.0"/>
      <point x="814.0" y="1214.0" type="curve" smooth="yes"/>
      <point x="834.0" y="1266.0"/>
      <point x="856.0" y="1294.0"/>
      <point x="902.0" y="1304.0" type="curve" smooth="yes"/>
      <point x="956.0" y="1316.0" type="line" smooth="yes"/>
      <point x="1002.0" y="1326.0"/>
      <point x="1024.0" y="1340.0"/>
      <point x="1024.0" y="1366.0" type="curve" smooth="yes"/>
      <point x="1024.0" y="1390.0"/>
      <point x="1013.3333333333334" y="1400.0"/>
      <point x="976.0" y="1400.0" type="curve" smooth="yes"/>
      <point x="520.0" y="1400.0" type="line" smooth="yes"/>
      <point x="478.0" y="1400.0"/>
      <point x="454.0" y="1385.2631578947369"/>
      <point x="454.0" y="1360.0" type="curve" smooth="yes"/>
      <point x="454.0" y="1337.0434782608695"/>
      <point x="468.76179172226534" y="1324.149097811583"/>
      <point x="500.0" y="1316.0" type="curve" smooth="yes"/>
      <point x="546.0" y="1304.0" type="line" smooth="yes"/>
      <point x="584.0" y="1294.0"/>
      <point x="596.0" y="1268.0"/>
      <point x="586.0" y="1214.0" type="curve" smooth="yes"/>
      <point x="530.0" y="892.0"/>
      <point x="442.0" y="552.0"/>
      <point x="314.0" y="184.0" type="curve" smooth="yes"/>
      <point x="296.0" y="134.0"/>
      <point x="272.0" y="106.0"/>
      <point x="226.0" y="96.0" type="curve" smooth="yes"/>
      <point x="174.0" y="84.0" type="line" smooth="yes"/>
      <point x="123.51924631044875" y="72.35059530241125"/>
      <point x="106.0" y="56.869565217391305"/>
      <point x="106.0" y="32.0" type="curve" smooth="yes"/>
      <point x="106.0" y="11.789473684210527"/>
      <point x="122.0" y="0.0"/>
      <point x="158.0" y="0.0" type="curve" smooth="yes"/>
      <point x="610.0" y="0.0" type="line" smooth="yes"/>
      <point x="648.0" y="0.0"/>
      <point x="674.0" y="15.473684210526319"/>
      <point x="674.0" y="42.0" type="curve" smooth="yes"/>
      <point x="674.0" y="65.73913043478261"/>
      <point x="661.8430488809903" y="76.03923777975241"/>
      <point x="630.0" y="84.0" type="curve" smooth="yes"/>
      <point x="582.0" y="96.0" type="line" smooth="yes"/>
      <point x="544.0" y="106.0"/>
      <point x="532.0" y="132.0"/>
    </contour>
    <contour>
      <point x="811.548271896306" y="1500.0" type="curve" smooth="yes"/>
      <point x="981.548271896306" y="1500.0"/>
      <point x="1105.548271896306" y="1584.0"/>
      <point x="1163.548271896306" y="1722.0" type="curve" smooth="yes"/>
      <point x="1173.548271896306" y="1746.0"/>
      <point x="1169.548271896306" y="1760.0"/>
      <point x="1147.548271896306" y="1760.0" type="curve" smooth="yes"/>
      <point x="1135.548271896306" y="1760.0"/>
      <point x="1119.548271896306" y="1750.0"/>
      <point x="1103.548271896306" y="1736.0" type="curve" smooth="yes"/>
      <point x="1040.5358953981217" y="1676.9258970329524"/>
      <point x="952.1030164218535" y="1644.0"/>
      <point x="837.548271896306" y="1644.0" type="curve" smooth="yes"/>
      <point x="716.3927163407504" y="1644.0"/>
      <point x="665.5995956231457" y="1671.8139514902061"/>
      <point x="649.548271896306" y="1730.0" type="curve" smooth="yes"/>
      <point x="643.548271896306" y="1750.0"/>
      <point x="637.548271896306" y="1758.0"/>
      <point x="619.548271896306" y="1758.0" type="curve" smooth="yes"/>
      <point x="599.548271896306" y="1758.0"/>
      <point x="581.548271896306" y="1732.0"/>
      <point x="581.548271896306" y="1686.0" type="curve" smooth="yes"/>
      <point x="581.548271896306" y="1572.0"/>
      <point x="655.548271896306" y="1500.0"/>
    </contour>
  </outline>
</glyph>
<glyph name="ibreve" format="2">
  <advance width="618"/>
  <unicode hex="012D"/>
  <outline>
    <contour>
      <point x="420.0" y="180.0" type="curve" smooth="yes"/>
      <point x="422.0" y="142.0"/>
      <point x="446.0" y="126.0"/>
      <point x="466.0" y="126.0" type="curve" smooth="yes"/>
      <point x="500.0" y="126.0"/>
      <point x="534.0" y="150.0"/>
      <point x="558.0" y="176.0" type="curve" smooth="yes"/>
      <point x="576.0" y="198.0"/>
      <point x="584.0" y="210.0"/>
      <point x="600.0" y="210.0" type="curve" smooth="yes"/>
      <point x="620.0" y="210.0"/>
      <point x="634.0" y="198.0"/>
      <point x="636.0" y="170.0" type="curve" smooth="yes"/>
      <point x="640.0" y="98.0"/>
      <point x="492.0" y="-30.0"/>
      <point x="364.0" y="-30.0" type="curve" smooth="yes"/>
      <point x="276.0" y="-30.0"/>
      <point x="234.0" y="18.0"/>
      <point x="230.0" y="80.0" type="curve" smooth="yes"/>
      <point x="226.0" y="168.0"/>
      <point x="262.0" y="242.0"/>
      <point x="302.0" y="332.0" type="curve" smooth="yes"/>
      <point x="434.0" y="634.0" type="line" smooth="yes"/>
      <point x="448.0" y="666.0"/>
      <point x="454.0" y="692.0"/>
      <point x="454.0" y="730.0" type="curve" smooth="yes"/>
      <point x="454.0" y="770.0"/>
      <point x="438.0" y="788.0"/>
      <point x="406.0" y="788.0" type="curve" smooth="yes"/>
      <point x="372.0" y="788.0"/>
      <point x="350.0" y="774.0"/>
      <point x="324.0" y="746.0" type="curve" smooth="yes"/>
      <point x="302.0" y="720.0"/>
      <point x="284.0" y="704.0"/>
      <point x="266.0" y="704.0" type="curve" smooth="yes"/>
      <point x="248.0" y="704.0"/>
      <point x="234.0" y="714.0"/>
      <point x="232.0" y="742.0" type="curve" smooth="yes"/>
      <point x="230.0" y="812.0"/>
      <point x="410.0" y="960.0"/>
      <point x="552.0" y="960.0" type="curve" smooth="yes"/>
      <point x="616.0" y="960.0"/>
      <point x="648.0" y="924.0"/>
      <point x="650.0" y="872.0" type="curve" smooth="yes"/>
      <point x="654.0" y="792.0"/>
      <point x="620.0" y="708.0"/>
      <point x="570.0" y="598.0" type="curve" smooth="yes"/>
      <point x="462.0" y="362.0" type="line" smooth="yes"/>
      <point x="424.0" y="280.0"/>
      <point x="418.0" y="216.0"/>
    </contour>
    <contour>
      <point x="616.0" y="1060.0" type="curve" smooth="yes"/>
      <point x="758.0459770114942" y="1060.0"/>
      <point x="910.1292188665617" y="1182.4328832029817"/>
      <point x="950.0" y="1316.0" type="curve" smooth="yes"/>
      <point x="956.0" y="1334.0"/>
      <point x="944.0" y="1348.0"/>
      <point x="924.0" y="1348.0" type="curve" smooth="yes"/>
      <point x="912.0" y="1348.0"/>
      <point x="894.0" y="1338.0"/>
      <point x="882.0" y="1322.0" type="curve" smooth="yes"/>
      <point x="825.3099894110586" y="1253.5810217030019"/>
      <point x="757.4516129032259" y="1216.0"/>
      <point x="648.0" y="1216.0" type="curve" smooth="yes"/>
      <point x="535.8" y="1216.0"/>
      <point x="462.0071343133868" y="1251.95838317191"/>
      <point x="450.0" y="1322.0" type="curve" smooth="yes"/>
      <point x="446.0" y="1340.0"/>
      <point x="434.0" y="1346.0"/>
      <point x="420.0" y="1346.0" type="curve" smooth="yes"/>
      <point x="404.4" y="1346.0"/>
      <point x="394.0" y="1326.0"/>
      <point x="394.0" y="1300.0" type="curve" smooth="yes"/>
      <point x="394.0" y="1162.0"/>
      <point x="472.9807692307693" y="1060.0"/>
    </contour>
  </outline>
</glyph>
<glyph name="kcommaaccent" format="2">
  <advance width="1020"/>
  <unicode hex="0137"/>
  <outline>
    <contour>
      <point x="374.0" y="474.0" type="line"/>
      <point x="502.0" y="778.0"/>
      <point x="738.0" y="960.0"/>
      <point x="954.0" y="960.0" type="curve" smooth="yes"/>
      <point x="1072.0" y="960.0"/>
      <point x="1144.0" y="904.0"/>
      <point x="1144.0" y="798.0" type="curve" smooth="yes"/>
      <point x="1144.0" y="602.0"/>
      <point x="934.0" y="456.0"/>
      <point x="364.0" y="294.0" type="curve"/>
      <point x="360.0" y="352.0" type="line"/>
      <point x="838.0" y="506.0"/>
      <point x="970.0" y="656.0"/>
      <point x="970.0" y="772.0" type="curve" smooth="yes"/>
      <point x="970.0" y="826.0454545454545"/>
      <point x="936.16" y="854.0"/>
      <point x="876.0" y="854.0" type="curve" smooth="yes"/>
      <point x="705.8369098712446" y="854.0"/>
      <point x="485.1642826281493" y="645.1463309253878"/>
      <point x="404.0" y="368.0" type="curve" smooth="yes"/>
      <point x="390.0" y="318.0"/>
      <point x="384.0" y="282.0"/>
      <point x="384.0" y="256.0" type="curve" smooth="yes"/>
      <point x="384.0" y="180.0"/>
      <point x="420.0" y="148.0"/>
      <point x="420.0" y="100.0" type="curve" smooth="yes"/>
      <point x="420.0" y="22.0"/>
      <point x="348.0" y="-32.0"/>
      <point x="268.0" y="-32.0" type="curve" smooth="yes"/>
      <point x="210.0" y="-32.0"/>
      <point x="172.0" y="6.0"/>
      <point x="172.0" y="72.0" type="curve" smooth="yes"/>
      <point x="172.0" y="110.0"/>
      <point x="182.0" y="154.0"/>
      <point x="198.0" y="210.0" type="curve" smooth="yes"/>
      <point x="414.0" y="948.0" type="line" smooth="yes"/>
      <point x="498.0" y="1232.0"/>
      <point x="742.0" y="1432.0"/>
      <point x="1082.0" y="1432.0" type="curve" smooth="yes"/>
      <point x="1214.0" y="1432.0"/>
      <point x="1278.0" y="1378.0"/>
      <point x="1278.0" y="1322.0" type="curve" smooth="yes"/>
      <point x="1278.0" y="1260.0"/>
      <point x="1230.0" y="1204.0"/>
      <point x="1142.0" y="1204.0" type="curve" smooth="yes"/>
      <point x="1048.0" y="1204.0"/>
      <point x="922.0" y="1284.0"/>
      <point x="830.0" y="1284.0" type="curve" smooth="yes"/>
      <point x="726.0" y="1284.0"/>
      <point x="638.0" y="1192.0"/>
      <point x="604.0" y="1076.0" type="curve" smooth="yes"/>
      <point x="512.0" y="764.0"/>
      <point x="458.0" y="678.0"/>
      <point x="458.0" y="576.0" type="curve"/>
    </contour>
    <contour>
      <point x="588.0" y="414.0" type="curve"/>
      <point x="698.0" y="466.0" type="line"/>
      <point x="774.0" y="218.0"/>
      <point x="826.0" y="160.0"/>
      <point x="906.0" y="160.0" type="curve" smooth="yes"/>
      <point x="960.0" y="160.0"/>
      <point x="974.0" y="218.0"/>
      <point x="1012.0" y="218.0" type="curve" smooth="yes"/>
      <point x="1034.0" y="218.0"/>
      <point x="1046.0" y="204.0"/>
      <point x="1046.0" y="174.0" type="curve" smooth="yes"/>
      <point x="1046.0" y="60.0"/>
      <point x="936.0" y="-30.0"/>
      <point x="828.0" y="-30.0" type="curve" smooth="yes"/>
      <point x="720.0" y="-30.0"/>
      <point x="648.0" y="66.0"/>
    </contour>
    <contour>
      <point x="462.53063448427" y="-300.0" type="curve" smooth="yes"/>
      <point x="488.53063448427" y="-300.0" type="line" smooth="yes"/>
      <point x="510.53063448427" y="-300.0"/>
      <point x="512.53063448427" y="-312.0"/>
      <point x="508.53063448427" y="-332.0" type="curve" smooth="yes"/>
      <point x="494.53063448427" y="-380.0"/>
      <point x="460.53063448427" y="-404.0"/>
      <point x="408.53063448427" y="-416.0" type="curve" smooth="yes"/>
      <point x="376.53063448427" y="-424.0"/>
      <point x="364.53063448427" y="-436.0"/>
      <point x="358.53063448427" y="-454.0" type="curve" smooth="yes"/>
      <point x="352.53063448427" y="-474.0"/>
      <point x="364.53063448427" y="-490.0"/>
      <point x="392.53063448427" y="-490.0" type="curve" smooth="yes"/>
      <point x="468.53063448427" y="-490.0"/>
      <point x="572.53063448427" y="-416.0"/>
      <point x="608.53063448427" y="-280.0" type="curve" smooth="yes"/>
      <point x="642.53063448427" y="-160.0"/>
      <point x="600.53063448427" y="-108.0"/>
      <point x="524.53063448427" y="-108.0" type="curve" smooth="yes"/>
      <point x="470.53063448427" y="-108.0"/>
      <point x="412.53063448427" y="-152.0"/>
      <point x="398.53063448427" y="-202.0" type="curve" smooth="yes"/>
      <point x="382.53063448427" y="-258.0"/>
      <point x="410.53063448427" y="-300.0"/>
    </contour>
  </outline>
</glyph>
<glyph name="kra" format="2">
  <advance width="1076"/>
  <unicode hex="0138"/>
  <outline>
    <contour>
      <point x="606.0" y="444.0" type="curve"/>
      <point x="690.0" y="542.0" type="line"/>
      <point x="830.0" y="222.0"/>
      <point x="901.448275862069" y="172.0"/>
      <point x="982.0" y="172.0" type="curve" smooth="yes"/>
      <point x="1036.0" y="172.0"/>
      <point x="1050.0" y="230.0"/>
      <point x="1088.0" y="230.0" type="curve" smooth="yes"/>
      <point x="1110.0" y="230.0"/>
      <point x="1122.0" y="216.0"/>
      <point x="1122.0" y="186.0" type="curve" smooth="yes"/>
      <point x="1122.0" y="66.0"/>
      <point x="1012.0" y="-30.0"/>
      <point x="904.0" y="-30.0" type="curve" smooth="yes"/>
      <point x="797.3983739837398" y="-30.0"/>
      <point x="712.0" y="46.0"/>
    </contour>
    <contour>
      <point x="480.0" y="368.0" type="curve" smooth="yes"/>
      <point x="452.0" y="286.0"/>
      <point x="436.0" y="230.0"/>
      <point x="436.0" y="194.0" type="curve" smooth="yes"/>
      <point x="436.0" y="160.0"/>
      <point x="450.0" y="122.0"/>
      <point x="452.0" y="84.0" type="curve" smooth="yes"/>
      <point x="456.0" y="16.0"/>
      <point x="384.0" y="-32.0"/>
      <point x="310.0" y="-32.0" type="curve" smooth="yes"/>
      <point x="262.0" y="-32.0"/>
      <point x="234.0" y="-2.0"/>
      <point x="232.0" y="56.0" type="curve" smooth="yes"/>
      <point x="228.0" y="104.0"/>
      <point x="242.0" y="152.0"/>
      <point x="260.0" y="198.0" type="curve" smooth="yes"/>
      <point x="432.0" y="614.0" type="line" smooth="yes"/>
      <point x="448.0" y="656.0"/>
      <point x="456.0" y="698.0"/>
      <point x="454.0" y="736.0" type="curve" smooth="yes"/>
      <point x="452.0" y="762.0"/>
      <point x="440.0" y="784.0"/>
      <point x="410.0" y="784.0" type="curve" smooth="yes"/>
      <point x="384.0" y="784.0"/>
      <point x="358.0" y="766.0"/>
      <point x="328.0" y="732.0" type="curve" smooth="yes"/>
      <point x="310.0" y="710.0"/>
      <point x="292.0" y="696.0"/>
      <point x="268.0" y="696.0" type="curve" smooth="yes"/>
      <point x="248.0" y="696.0"/>
      <point x="236.0" y="710.0"/>
      <point x="236.0" y="732.0" type="curve" smooth="yes"/>
      <point x="230.0" y="824.0"/>
      <point x="390.0" y="958.0"/>
      <point x="516.0" y="958.0" type="curve" smooth="yes"/>
      <point x="578.0" y="958.0"/>
      <point x="612.6762380968476" y="920.5613809346767"/>
      <point x="618.0" y="862.0" type="curve" smooth="yes"/>
      <point x="621.4916324744471" y="807.8796966460691"/>
      <point x="610.1332482667481" y="745.6997129002747"/>
      <point x="596.0" y="698.0" type="curve" smooth="yes"/>
      <point x="558.0" y="574.0"/>
      <point x="498.0" y="420.0"/>
    </contour>
    <contour>
      <point x="412.0" y="150.0" type="line"/>
      <point x="360.0" y="192.0" type="line"/>
      <point x="782.0" y="696.0" type="line" smooth="yes"/>
      <point x="951.5633603045948" y="898.5116909798951"/>
      <point x="1032.0" y="962.0"/>
      <point x="1126.0" y="962.0" type="curve" smooth="yes"/>
      <point x="1196.0" y="962.0"/>
      <point x="1248.0" y="898.0"/>
      <point x="1248.0" y="834.0" type="curve" smooth="yes"/>
      <point x="1248.0" y="760.0"/>
      <point x="1188.0" y="706.0"/>
      <point x="1128.0" y="706.0" type="curve" smooth="yes"/>
      <point x="1066.0" y="706.0"/>
      <point x="1038.0" y="748.0"/>
      <point x="990.0" y="748.0" type="curve" smooth="yes"/>
      <point x="952.0" y="748.0"/>
      <point x="892.0" y="704.0"/>
      <point x="836.0" y="640.0" type="curve" smooth="yes"/>
    </contour>
  </outline>
</glyph>
<glyph name="Lacute" format="2">
  <advance width="1110"/>
  <unicode hex="0139"/>
  <outline>
    <contour>
      <point x="788.0" y="0.0" type="line" smooth="yes"/>
      <point x="854.0" y="0.0"/>
      <point x="890.0" y="-32.0"/>
      <point x="936.0" y="-32.0" type="curve" smooth="yes"/>
      <point x="1052.0" y="-32.0"/>
      <point x="1152.0" y="106.0"/>
      <point x="1152.0" y="258.0" type="curve" smooth="yes"/>
      <point x="1152.0" y="298.0"/>
      <point x="1136.0" y="316.0"/>
      <point x="1108.0" y="316.0" type="curve" smooth="yes"/>
      <point x="1078.0" y="316.0"/>
      <point x="1064.0" y="298.0"/>
      <point x="1040.0" y="264.0" type="curve" smooth="yes"/>
      <point x="1002.0" y="208.0" type="line" smooth="yes"/>
      <point x="936.0" y="112.0"/>
      <point x="844.0" y="82.0"/>
      <point x="684.0" y="82.0" type="curve" smooth="yes"/>
      <point x="590.0" y="82.0"/>
      <point x="552.0" y="132.0"/>
      <point x="552.0" y="196.0" type="curve" smooth="yes"/>
      <point x="552.0" y="310.0"/>
      <point x="670.0" y="816.0"/>
      <point x="816.0" y="1212.0" type="curve" smooth="yes"/>
      <point x="836.0" y="1264.0"/>
      <point x="858.0" y="1292.0"/>
      <point x="904.0" y="1302.0" type="curve" smooth="yes"/>
      <point x="956.0" y="1314.0" type="line" smooth="yes"/>
      <point x="994.0" y="1320.0"/>
      <point x="1018.0" y="1332.0"/>
      <point x="1024.0" y="1360.0" type="curve" smooth="yes"/>
      <point x="1032.0" y="1386.0"/>
      <point x="1014.0" y="1398.0"/>
      <point x="972.0" y="1398.0" type="curve" smooth="yes"/>
      <point x="528.0" y="1398.0" type="line" smooth="yes"/>
      <point x="484.0" y="1398.0"/>
      <point x="464.0" y="1386.0"/>
      <point x="456.0" y="1360.0" type="curve" smooth="yes"/>
      <point x="450.0" y="1332.0"/>
      <point x="468.0" y="1320.0"/>
      <point x="500.0" y="1314.0" type="curve" smooth="yes"/>
      <point x="548.0" y="1302.0" type="line" smooth="yes"/>
      <point x="584.0" y="1292.0"/>
      <point x="598.0" y="1264.0"/>
      <point x="592.0" y="1226.0" type="curve" smooth="yes"/>
      <point x="526.0" y="880.0"/>
      <point x="434.0" y="532.0"/>
      <point x="322.0" y="208.0" type="curve"/>
      <point x="306.0" y="148.0"/>
      <point x="280.0" y="116.0"/>
      <point x="230.0" y="104.0" type="curve" smooth="yes"/>
      <point x="188.0" y="94.0" type="line" smooth="yes"/>
      <point x="140.0" y="80.0"/>
      <point x="116.0" y="70.0"/>
      <point x="110.0" y="42.0" type="curve" smooth="yes"/>
      <point x="102.0" y="14.0"/>
      <point x="122.0" y="0.0"/>
      <point x="160.0" y="0.0" type="curve" smooth="yes"/>
    </contour>
    <contour>
      <point x="833.7314335826603" y="1570.0" type="curve" smooth="yes"/>
      <point x="1047.7314335826604" y="1710.0" type="line" smooth="yes"/>
      <point x="1079.7314335826604" y="1732.0"/>
      <point x="1111.7314335826604" y="1744.0"/>
      <point x="1155.7314335826604" y="1744.0" type="curve" smooth="yes"/>
      <point x="1271.7314335826604" y="1744.0" type="line" smooth="yes"/>
      <point x="1305.7314335826604" y="1744.0"/>
      <point x="1317.7314335826604" y="1730.0"/>
      <point x="1311.7314335826604" y="1706.0" type="curve" smooth="yes"/>
      <point x="1307.7314335826604" y="1682.0"/>
      <point x="1283.7314335826604" y="1656.0"/>
      <point x="1239.7314335826604" y="1640.0" type="curve" smooth="yes"/>
      <point x="909.7314335826603" y="1520.0" type="line" smooth="yes"/>
      <point x="871.7314335826603" y="1506.0"/>
      <point x="841.7314335826603" y="1498.0"/>
      <point x="821.7314335826603" y="1498.0" type="curve" smooth="yes"/>
      <point x="797.7314335826603" y="1498.0"/>
      <point x="791.7314335826603" y="1508.0"/>
      <point x="797.7314335826603" y="1530.0" type="curve" smooth="yes"/>
      <point x="797.7314335826603" y="1544.0"/>
      <point x="817.7314335826603" y="1560.0"/>
    </contour>
  </outline>
</glyph>
<glyph name="lcommaaccent" format="2">
  <advance width="554"/>
  <unicode hex="013C"/>
  <outline>
    <contour>
      <point x="812.0" y="1430.0" type="curve" smooth="yes"/>
      <point x="666.0" y="1430.0"/>
      <point x="514.0" y="1302.0"/>
      <point x="408.0" y="962.0" type="curve" smooth="yes"/>
      <point x="238.0" y="412.0" type="line" smooth="yes"/>
      <point x="200.0" y="286.0"/>
      <point x="168.0" y="212.0"/>
      <point x="168.0" y="106.0" type="curve" smooth="yes"/>
      <point x="168.0" y="24.0"/>
      <point x="214.0" y="-30.0"/>
      <point x="302.0" y="-30.0" type="curve" smooth="yes"/>
      <point x="458.0" y="-30.0"/>
      <point x="568.0" y="90.0"/>
      <point x="568.0" y="184.0" type="curve" smooth="yes"/>
      <point x="568.0" y="198.0"/>
      <point x="560.0" y="212.0"/>
      <point x="544.0" y="212.0" type="curve" smooth="yes"/>
      <point x="526.0" y="212.0"/>
      <point x="514.0" y="204.0"/>
      <point x="500.0" y="186.0" type="curve" smooth="yes"/>
      <point x="486.3474893124793" y="166.88648503747106"/>
      <point x="455.45454545454544" y="134.0"/>
      <point x="402.0" y="134.0" type="curve" smooth="yes"/>
      <point x="370.88888888888886" y="134.0"/>
      <point x="346.0" y="161.88"/>
      <point x="346.0" y="216.0" type="curve" smooth="yes"/>
      <point x="346.0" y="284.48837209302326"/>
      <point x="361.331455189857" y="339.7447582254295"/>
      <point x="382.0" y="406.0" type="curve" smooth="yes"/>
      <point x="596.0" y="1092.0" type="line" smooth="yes"/>
      <point x="610.0353003966881" y="1136.8270308588098"/>
      <point x="612.0" y="1183.7922077922078"/>
      <point x="612.0" y="1206.0" type="curve" smooth="yes"/>
      <point x="612.0" y="1252.4444444444443"/>
      <point x="637.8260869565217" y="1282.0"/>
      <point x="678.0" y="1282.0" type="curve" smooth="yes"/>
      <point x="723.92" y="1282.0"/>
      <point x="753.6923076923077" y="1216.0"/>
      <point x="842.0" y="1216.0" type="curve" smooth="yes"/>
      <point x="918.3888888888889" y="1216.0"/>
      <point x="952.0" y="1266.625"/>
      <point x="952.0" y="1324.0" type="curve" smooth="yes"/>
      <point x="952.0" y="1380.0"/>
      <point x="908.0" y="1430.0"/>
    </contour>
    <contour>
      <point x="216.0" y="-300.0" type="curve" smooth="yes"/>
      <point x="242.0" y="-300.0" type="line" smooth="yes"/>
      <point x="264.0" y="-300.0"/>
      <point x="266.0" y="-312.0"/>
      <point x="262.0" y="-332.0" type="curve" smooth="yes"/>
      <point x="248.0" y="-380.0"/>
      <point x="214.0" y="-404.0"/>
      <point x="162.0" y="-416.0" type="curve" smooth="yes"/>
      <point x="130.0" y="-424.0"/>
      <point x="118.0" y="-436.0"/>
      <point x="112.0" y="-454.0" type="curve" smooth="yes"/>
      <point x="106.0" y="-474.0"/>
      <point x="118.0" y="-490.0"/>
      <point x="146.0" y="-490.0" type="curve" smooth="yes"/>
      <point x="222.0" y="-490.0"/>
      <point x="326.0" y="-416.0"/>
      <point x="362.0" y="-280.0" type="curve" smooth="yes"/>
      <point x="396.0" y="-160.0"/>
      <point x="354.0" y="-108.0"/>
      <point x="278.0" y="-108.0" type="curve" smooth="yes"/>
      <point x="224.0" y="-108.0"/>
      <point x="166.0" y="-152.0"/>
      <point x="152.0" y="-202.0" type="curve" smooth="yes"/>
      <point x="136.0" y="-258.0"/>
      <point x="164.0" y="-300.0"/>
    </contour>
  </outline>
</glyph>
<glyph name="Lslash" format="2">
  <advance width="1110"/>
  <unicode hex="0141"/>
  <outline>
    <contour>
      <point x="974.0" y="826.0" type="curve" smooth="yes"/>
      <point x="314.0" y="588.0" type="line" smooth="yes"/>
      <point x="280.0" y="576.0"/>
      <point x="260.0" y="542.0"/>
      <point x="268.0" y="520.0" type="curve" smooth="yes"/>
      <point x="276.0" y="500.0"/>
      <point x="296.0" y="492.0"/>
      <point x="324.0" y="502.0" type="curve" smooth="yes"/>
      <point x="984.0" y="740.0" type="line" smooth="yes"/>
      <point x="1018.0" y="752.0"/>
      <point x="1038.0" y="786.0"/>
      <point x="1030.0" y="808.0" type="curve" smooth="yes"/>
      <point x="1022.0" y="828.0"/>
      <point x="1002.0" y="836.0"/>
    </contour>
    <contour>
      <point x="788.0" y="0.0" type="line" smooth="yes"/>
      <point x="854.0" y="0.0"/>
      <point x="890.0" y="-32.0"/>
      <point x="936.0" y="-32.0" type="curve" smooth="yes"/>
      <point x="1052.0" y="-32.0"/>
      <point x="1152.0" y="106.0"/>
      <point x="1152.0" y="258.0" type="curve" smooth="yes"/>
      <point x="1152.0" y="298.0"/>
      <point x="1136.0" y="316.0"/>
      <point x="1108.0" y="316.0" type="curve" smooth="yes"/>
      <point x="1078.0" y="316.0"/>
      <point x="1064.0" y="298.0"/>
      <point x="1040.0" y="264.0" type="curve" smooth="yes"/>
      <point x="1002.0" y="208.0" type="line" smooth="yes"/>
      <point x="936.0" y="112.0"/>
      <point x="844.0" y="82.0"/>
      <point x="684.0" y="82.0" type="curve" smooth="yes"/>
      <point x="590.0" y="82.0"/>
      <point x="552.0" y="132.0"/>
      <point x="552.0" y="196.0" type="curve" smooth="yes"/>
      <point x="552.0" y="310.0"/>
      <point x="670.0" y="816.0"/>
      <point x="816.0" y="1212.0" type="curve" smooth="yes"/>
      <point x="836.0" y="1264.0"/>
      <point x="858.0" y="1292.0"/>
      <point x="904.0" y="1302.0" type="curve" smooth="yes"/>
      <point x="956.0" y="1314.0" type="line" smooth="yes"/>
      <point x="994.0" y="1320.0"/>
      <point x="1018.0" y="1332.0"/>
      <point x="1024.0" y="1360.0" type="curve" smooth="yes"/>
      <point x="1032.0" y="1386.0"/>
      <point x="1014.0" y="1398.0"/>
      <point x="972.0" y="1398.0" type="curve" smooth="yes"/>
      <point x="528.0" y="1398.0" type="line" smooth="yes"/>
      <point x="484.0" y="1398.0"/>
      <point x="464.0" y="1386.0"/>
      <point x="456.0" y="1360.0" type="curve" smooth="yes"/>
      <point x="450.0" y="1332.0"/>
      <point x="468.0" y="1320.0"/>
      <point x="500.0" y="1314.0" type="curve" smooth="yes"/>
      <point x="548.0" y="1302.0" type="line" smooth="yes"/>
      <point x="584.0" y="1292.0"/>
      <point x="598.0" y="1264.0"/>
      <point x="592.0" y="1226.0" type="curve" smooth="yes"/>
      <point x="526.0" y="880.0"/>
      <point x="434.0" y="532.0"/>
      <point x="322.0" y="208.0" type="curve"/>
      <point x="306.0" y="148.0"/>
      <point x="280.0" y="116.0"/>
      <point x="230.0" y="104.0" type="curve" smooth="yes"/>
      <point x="188.0" y="94.0" type="line" smooth="yes"/>
      <point x="140.0" y="80.0"/>
      <point x="116.0" y="70.0"/>
      <point x="110.0" y="42.0" type="curve" smooth="yes"/>
      <point x="102.0" y="14.0"/>
      <point x="122.0" y="0.0"/>
      <point x="160.0" y="0.0" type="curve" smooth="yes"/>
    </contour>
  </outline>
</glyph>
